<svg xmlns="http://www.w3.org/2000/svg" fill="none" viewBox="0 0 40 40"><rect width="40" height="40" fill="#00665F" fill-opacity=".05" rx="5"/><path stroke="#00665F" stroke-miterlimit="10" stroke-width="2" d="M8 16.896v-4.5a2.7 2.7 0 0 1 2.7-2.7h19.801a2.7 2.7 0 0 1 2.7 2.7v4.5"/><path stroke="#00665F" stroke-linecap="square" stroke-miterlimit="10" stroke-width="2" d="M33.202 19.411v-2.513H8v11.623a2.778 2.778 0 0 0 2.778 2.778h7.81M14.3 7v5.4M26.9 7v5.4M27.801 25v2.7l2.7 1.8"/><path stroke="#00665F" stroke-linecap="square" stroke-miterlimit="10" stroke-width="2" d="M27.801 34a6.3 6.3 0 1 0 0-12.602 6.3 6.3 0 0 0 0 12.601Z"/></svg>