<svg viewBox="0 0 77 19" fill="none" xmlns="http://www.w3.org/2000/svg"><path fill-rule="evenodd" clip-rule="evenodd" d="M50.802 9.925c-.498-.334-1.103-.5-1.815-.5a3.65 3.65 0 0 0-1.921.515c-.57.344-1.017.844-1.342 1.501-.315.647-.473 1.41-.473 2.29 0 .879.158 1.647.473 2.304.325.646.773 1.142 1.342 1.485.57.344 1.21.516 1.921.516.712 0 1.317-.167 1.815-.5A2.9 2.9 0 0 0 51.9 16.17v1.759h2.134V6.244H51.9v5.03a2.814 2.814 0 0 0-1.098-1.349Zm-2.76 2.016c.406-.434.945-.652 1.616-.652.65 0 1.184.223 1.601.668.427.434.64 1.025.64 1.773 0 .738-.213 1.33-.64 1.774-.417.434-.95.652-1.6.652-.672 0-1.21-.212-1.617-.637-.407-.434-.61-1.03-.61-1.789 0-.758.203-1.354.61-1.789Z" fill="#fff"/><path d="M21.572 11.138a3.462 3.462 0 0 1 1.25-1.258 3.295 3.295 0 0 1 1.739-.47v2.289h-.625c-1.576 0-2.364.727-2.364 2.183v4.048h-2.15v-8.4h2.15v1.608Z" fill="#fff"/><path fill-rule="evenodd" clip-rule="evenodd" d="M32.933 13.412c0 .212-.025.455-.076.727h-6.191c.03.748.234 1.3.61 1.653.376.354.844.53 1.403.53.498 0 .91-.12 1.235-.363a1.6 1.6 0 0 0 .64-.986h2.272a3.603 3.603 0 0 1-.716 1.577 3.73 3.73 0 0 1-1.418 1.091c-.57.263-1.205.395-1.907.395-.823 0-1.555-.172-2.195-.516a3.737 3.737 0 0 1-1.495-1.5c-.355-.647-.533-1.41-.533-2.29 0-.88.177-1.642.533-2.289a3.616 3.616 0 0 1 1.495-1.5c.64-.344 1.372-.516 2.195-.516.834 0 1.56.172 2.181.515.63.344 1.113.819 1.449 1.425.345.596.518 1.279.518 2.047Zm-2.165-.212c.03-.688-.153-1.208-.55-1.562-.386-.354-.863-.53-1.433-.53-.579 0-1.067.176-1.463.53-.397.354-.616.874-.656 1.562h4.102Z" fill="#fff"/><path d="M40.208 10.304c-.722-.586-1.627-.88-2.714-.88-.824 0-1.556.173-2.196.516a3.616 3.616 0 0 0-1.494 1.501c-.356.647-.534 1.41-.534 2.29 0 .879.178 1.642.534 2.288a3.736 3.736 0 0 0 1.494 1.501c.64.344 1.372.516 2.196.516 1.087 0 1.992-.293 2.714-.88.732-.586 1.19-1.384 1.372-2.395h-2.272a1.77 1.77 0 0 1-.625 1.061c-.325.253-.737.38-1.235.38a1.88 1.88 0 0 1-1.433-.622c-.377-.425-.565-1.041-.565-1.85 0-.808.188-1.42.565-1.834a1.86 1.86 0 0 1 1.433-.637c.498 0 .91.131 1.235.394.325.253.534.602.625 1.046h2.272c-.183-1.01-.64-1.809-1.372-2.395Zm4.288-.774v8.4h-2.15v-8.4h2.15Zm12.874 0v8.4h-2.15v-8.4h2.15Zm6.993 0-2.135 6.262-2.15-6.261h-2.303l3.126 8.399h2.623l3.126-8.4h-2.287Zm4.87 0v8.4h-2.15v-8.4h2.15Zm7.068 6.61h-4.147l3.995-4.926V9.53h-6.252v1.774h3.797l-3.889 4.927v1.698h6.496v-1.79ZM43.416 8.77c.701 0 1.27-.565 1.27-1.263s-.569-1.263-1.27-1.263c-.702 0-1.271.565-1.271 1.263s.569 1.263 1.27 1.263Zm14.143-1.263c0 .698-.57 1.263-1.271 1.263-.702 0-1.27-.565-1.27-1.263s.568-1.263 1.27-1.263c.702 0 1.27.565 1.27 1.263ZM68.156 8.77c.702 0 1.271-.565 1.271-1.263s-.569-1.263-1.27-1.263c-.702 0-1.271.565-1.271 1.263s.569 1.263 1.27 1.263Z" fill="#fff"/><path fill="#00A1FF" d="M0 9.018h9.017v9.017H0z"/><rect x="8.324" width="9.711" height="9.711" rx="4.856" fill="#E00E00"/></svg>