<svg xmlns="http://www.w3.org/2000/svg" width="1149" height="170" fill="none" viewBox="0 0 1149 170"><path fill="#00C49D" d="M0 97h188v28.277H0z"/><path fill="#00C49D" d="m86.64 102.034 77.592-56.374 16.62 22.877-77.591 56.374z"/><path fill="#00C49D" d="M101.513 102.034 23.921 45.66 7.301 68.537l77.591 56.374z"/><path fill="#00C49D" d="M107.578 111.566 78.151 21l-26.893 8.738 29.427 90.566z"/><path fill="#00C49D" d="M80.206 111.566 109.633 21l26.893 8.738-29.427 90.566z"/><path fill="#012322" d="M264.25 126.35c-8 0-15.2-1.75-21.6-5.25-6.4-3.6-11.45-8.65-15.15-15.15-3.6-6.5-5.4-14-5.4-22.5s1.85-16 5.55-22.5c3.8-6.5 8.95-11.5 15.45-15 6.5-3.6 13.75-5.4 21.75-5.4s15.25 1.8 21.75 5.4c6.5 3.5 11.6 8.5 15.3 15 3.8 6.5 5.7 14 5.7 22.5s-1.95 16-5.85 22.5c-3.8 6.5-9 11.55-15.6 15.15-6.5 3.5-13.8 5.25-21.9 5.25Zm0-18.3c3.8 0 7.35-.9 10.65-2.7 3.4-1.9 6.1-4.7 8.1-8.4s3-8.2 3-13.5c0-7.9-2.1-13.95-6.3-18.15-4.1-4.3-9.15-6.45-15.15-6.45S253.5 61 249.4 65.3c-4 4.2-6 10.25-6 18.15 0 7.9 1.95 14 5.85 18.3 4 4.2 9 6.3 15 6.3Zm70.754-54.15c2.7-3.8 6.4-6.95 11.1-9.45 4.8-2.6 10.25-3.9 16.35-3.9 7.1 0 13.5 1.75 19.2 5.25 5.8 3.5 10.35 8.5 13.65 15 3.4 6.4 5.1 13.85 5.1 22.35 0 8.5-1.7 16.05-5.1 22.65-3.3 6.5-7.85 11.55-13.65 15.15-5.7 3.6-12.1 5.4-19.2 5.4-6.1 0-11.5-1.25-16.2-3.75-4.6-2.5-8.35-5.65-11.25-9.45v51.45h-21V41.9h21v12Zm43.95 29.25c0-5-1.05-9.3-3.15-12.9-2-3.7-4.7-6.5-8.1-8.4-3.3-1.9-6.9-2.85-10.8-2.85-3.8 0-7.4 1-10.8 3-3.3 1.9-6 4.7-8.1 8.4-2 3.7-3 8.05-3 13.05s1 9.35 3 13.05c2.1 3.7 4.8 6.55 8.1 8.55 3.4 1.9 7 2.85 10.8 2.85 3.9 0 7.5-1 10.8-3 3.4-2 6.1-4.85 8.1-8.55 2.1-3.7 3.15-8.1 3.15-13.2Zm48.71-29.25c2.7-3.8 6.4-6.95 11.1-9.45 4.8-2.6 10.25-3.9 16.35-3.9 7.1 0 13.5 1.75 19.2 5.25 5.8 3.5 10.35 8.5 13.65 15 3.4 6.4 5.1 13.85 5.1 22.35 0 8.5-1.7 16.05-5.1 22.65-3.3 6.5-7.85 11.55-13.65 15.15-5.7 3.6-12.1 5.4-19.2 5.4-6.1 0-11.5-1.25-16.2-3.75-4.6-2.5-8.35-5.65-11.25-9.45v51.45h-21V41.9h21v12Zm43.95 29.25c0-5-1.05-9.3-3.15-12.9-2-3.7-4.7-6.5-8.1-8.4-3.3-1.9-6.9-2.85-10.8-2.85-3.8 0-7.4 1-10.8 3-3.3 1.9-6 4.7-8.1 8.4-2 3.7-3 8.05-3 13.05s1 9.35 3 13.05c2.1 3.7 4.8 6.55 8.1 8.55 3.4 1.9 7 2.85 10.8 2.85 3.9 0 7.5-1 10.8-3 3.4-2 6.1-4.85 8.1-8.55 2.1-3.7 3.15-8.1 3.15-13.2Zm69.111 43.2c-8 0-15.2-1.75-21.6-5.25-6.4-3.6-11.45-8.65-15.15-15.15-3.6-6.5-5.4-14-5.4-22.5s1.85-16 5.55-22.5c3.8-6.5 8.95-11.5 15.45-15 6.5-3.6 13.75-5.4 21.75-5.4s15.25 1.8 21.75 5.4c6.5 3.5 11.6 8.5 15.3 15 3.8 6.5 5.7 14 5.7 22.5s-1.95 16-5.85 22.5c-3.8 6.5-9 11.55-15.6 15.15-6.5 3.5-13.8 5.25-21.9 5.25Zm0-18.3c3.8 0 7.35-.9 10.65-2.7 3.4-1.9 6.1-4.7 8.1-8.4s3-8.2 3-13.5c0-7.9-2.1-13.95-6.3-18.15-4.1-4.3-9.15-6.45-15.15-6.45s-11.05 2.15-15.15 6.45c-4 4.2-6 10.25-6 18.15 0 7.9 1.95 14 5.85 18.3 4 4.2 9 6.3 15 6.3Zm70.754-53.25c2.7-4.4 6.2-7.85 10.5-10.35 4.4-2.5 9.4-3.75 15-3.75v22.05h-5.55c-6.6 0-11.6 1.55-15 4.65-3.3 3.1-4.95 8.5-4.95 16.2V125h-21V41.9h21v12.9Zm62.594 4.35v40.2c0 2.8.65 4.85 1.95 6.15 1.4 1.2 3.7 1.8 6.9 1.8h9.75V125h-13.2c-17.7 0-26.55-8.6-26.55-25.8V59.15h-9.9V41.9h9.9V21.35h21.15V41.9h18.6v17.25h-18.6ZM777.228 41.9V125h-21.15v-10.5c-2.7 3.6-6.25 6.45-10.65 8.55-4.3 2-9 3-14.1 3-6.5 0-12.25-1.35-17.25-4.05-5-2.8-8.95-6.85-11.85-12.15-2.8-5.4-4.2-11.8-4.2-19.2V41.9h21v45.75c0 6.6 1.65 11.7 4.95 15.3 3.3 3.5 7.8 5.25 13.5 5.25 5.8 0 10.35-1.75 13.65-5.25 3.3-3.6 4.95-8.7 4.95-15.3V41.9h21.15Zm57.77-1.2c9.9 0 17.9 3.15 24 9.45 6.1 6.2 9.15 14.9 9.15 26.1V125h-21V79.1c0-6.6-1.65-11.65-4.95-15.15-3.3-3.6-7.8-5.4-13.5-5.4-5.8 0-10.4 1.8-13.8 5.4-3.3 3.5-4.95 8.55-4.95 15.15V125h-21V41.9h21v10.35c2.8-3.6 6.35-6.4 10.65-8.4 4.4-2.1 9.2-3.15 14.4-3.15Zm54.77-8.7c-3.7 0-6.8-1.15-9.3-3.45-2.4-2.4-3.6-5.35-3.6-8.85s1.2-6.4 3.6-8.7c2.5-2.4 5.6-3.6 9.3-3.6 3.7 0 6.75 1.2 9.15 3.6 2.5 2.3 3.75 5.2 3.75 8.7 0 3.5-1.25 6.45-3.75 8.85-2.4 2.3-5.45 3.45-9.15 3.45Zm10.35 9.9V125h-21V41.9h21Zm36.198 17.25v40.2c0 2.8.65 4.85 1.95 6.15 1.4 1.2 3.7 1.8 6.9 1.8h9.75V125h-13.2c-17.7 0-26.55-8.6-26.55-25.8V59.15h-9.9V41.9h9.9V21.35h21.15V41.9h18.6v17.25h-18.6ZM971.67 32c-3.7 0-6.8-1.15-9.3-3.45-2.4-2.4-3.6-5.35-3.6-8.85s1.2-6.4 3.6-8.7c2.5-2.4 5.6-3.6 9.3-3.6 3.7 0 6.75 1.2 9.15 3.6 2.5 2.3 3.75 5.2 3.75 8.7 0 3.5-1.25 6.45-3.75 8.85-2.4 2.3-5.45 3.45-9.15 3.45Zm10.35 9.9V125h-21V41.9h21Zm89 39.75c0 3-.2 5.7-.6 8.1h-60.75c.5 6 2.6 10.7 6.3 14.1 3.7 3.4 8.25 5.1 13.65 5.1 7.8 0 13.35-3.35 16.65-10.05h22.65c-2.4 8-7 14.6-13.8 19.8-6.8 5.1-15.15 7.65-25.05 7.65-8 0-15.2-1.75-21.6-5.25-6.3-3.6-11.252-8.65-14.852-15.15-3.5-6.5-5.25-14-5.25-22.5 0-8.6 1.75-16.15 5.25-22.65s8.402-11.5 14.702-15c6.3-3.5 13.55-5.25 21.75-5.25 7.9 0 14.95 1.7 21.15 5.1 6.3 3.4 11.15 8.25 14.55 14.55 3.5 6.2 5.25 13.35 5.25 21.45Zm-21.75-6c-.1-5.4-2.05-9.7-5.85-12.9-3.8-3.3-8.45-4.95-13.95-4.95-5.2 0-9.6 1.6-13.2 4.8-3.5 3.1-5.65 7.45-6.45 13.05h39.45Zm59.88 50.7c-6.8 0-12.9-1.2-18.3-3.6-5.4-2.5-9.7-5.85-12.9-10.05-3.1-4.2-4.8-8.85-5.1-13.95H1094c.4 3.2 1.95 5.85 4.65 7.95 2.8 2.1 6.25 3.15 10.35 3.15 4 0 7.1-.8 9.3-2.4 2.3-1.6 3.45-3.65 3.45-6.15 0-2.7-1.4-4.7-4.2-6-2.7-1.4-7.05-2.9-13.05-4.5-6.2-1.5-11.3-3.05-15.3-4.65-3.9-1.6-7.3-4.05-10.2-7.35-2.8-3.3-4.2-7.75-4.2-13.35 0-4.6 1.3-8.8 3.9-12.6 2.7-3.8 6.5-6.8 11.4-9 5-2.2 10.85-3.3 17.55-3.3 9.9 0 17.8 2.5 23.7 7.5 5.9 4.9 9.15 11.55 9.75 19.95H1121c-.3-3.3-1.7-5.9-4.2-7.8-2.4-2-5.65-3-9.75-3-3.8 0-6.75.7-8.85 2.1-2 1.4-3 3.35-3 5.85 0 2.8 1.4 4.95 4.2 6.45 2.8 1.4 7.15 2.85 13.05 4.35 6 1.5 10.95 3.05 14.85 4.65 3.9 1.6 7.25 4.1 10.05 7.5 2.9 3.3 4.4 7.7 4.5 13.2 0 4.8-1.35 9.1-4.05 12.9-2.6 3.8-6.4 6.8-11.4 9-4.9 2.1-10.65 3.15-17.25 3.15Z"/></svg>