<svg xmlns="http://www.w3.org/2000/svg" width="132" height="29" fill="none" viewBox="0 0 132 29"><g clip-path="url(#a)"><path fill="#012322" d="M30.708 21.891c-.91 0-1.73-.199-2.458-.597a4.482 4.482 0 0 1-1.724-1.724c-.41-.74-.614-1.593-.614-2.56 0-.968.21-1.821.632-2.56a4.446 4.446 0 0 1 1.758-1.708c.74-.41 1.564-.614 2.475-.614.91 0 1.735.204 2.475.614.74.398 1.32.967 1.74 1.707.433.74.65 1.593.65 2.56 0 .968-.223 1.821-.667 2.56a4.535 4.535 0 0 1-1.775 1.725c-.74.398-1.57.597-2.492.597Zm0-2.082c.433 0 .837-.103 1.212-.308.387-.216.694-.534.922-.955.227-.421.341-.933.341-1.537 0-.899-.239-1.587-.717-2.065a2.288 2.288 0 0 0-1.724-.734c-.682 0-1.257.245-1.724.734-.455.478-.682 1.166-.682 2.065 0 .9.222 1.593.665 2.083.456.478 1.024.717 1.707.717Zm8.052-6.162c.307-.433.728-.791 1.263-1.075.546-.296 1.166-.444 1.86-.444.808 0 1.536.199 2.185.597.66.398 1.178.967 1.553 1.707.387.728.58 1.576.58 2.543 0 .967-.193 1.827-.58 2.578-.375.74-.893 1.314-1.553 1.724a4.006 4.006 0 0 1-2.185.614c-.694 0-1.308-.142-1.843-.427a3.961 3.961 0 0 1-1.28-1.075v5.855h-2.39V12.28h2.39v1.366Zm5 3.328c0-.569-.119-1.058-.358-1.468a2.335 2.335 0 0 0-.921-.955 2.42 2.42 0 0 0-1.23-.325c-.432 0-.841.114-1.228.342a2.487 2.487 0 0 0-.922.955c-.228.421-.341.917-.341 1.485 0 .57.113 1.064.341 1.485.239.421.546.746.922.973.387.216.796.325 1.229.325.443 0 .853-.114 1.229-.342.386-.227.694-.552.921-.973.24-.42.359-.921.359-1.502Zm5.544-3.328c.307-.433.728-.791 1.263-1.075.546-.296 1.166-.444 1.86-.444.808 0 1.536.199 2.185.597.66.398 1.178.967 1.553 1.707.387.728.58 1.576.58 2.543 0 .967-.193 1.827-.58 2.578-.375.74-.893 1.314-1.553 1.724a4.006 4.006 0 0 1-2.185.614c-.694 0-1.308-.142-1.843-.427a3.961 3.961 0 0 1-1.28-1.075v5.855h-2.39V12.28h2.39v1.366Zm5 3.328c0-.569-.119-1.058-.358-1.468a2.334 2.334 0 0 0-.921-.955 2.42 2.42 0 0 0-1.23-.325c-.432 0-.841.114-1.228.342a2.487 2.487 0 0 0-.922.955c-.228.421-.341.917-.341 1.485 0 .57.113 1.064.341 1.485.239.421.546.746.922.973.387.216.796.325 1.229.325.444 0 .853-.114 1.229-.342.386-.227.694-.552.921-.973.24-.42.359-.921.359-1.502Zm7.865 4.916c-.91 0-1.73-.199-2.458-.597a4.482 4.482 0 0 1-1.724-1.724c-.41-.74-.614-1.593-.614-2.56 0-.968.21-1.821.631-2.56a4.446 4.446 0 0 1 1.758-1.708c.74-.41 1.565-.614 2.475-.614.91 0 1.736.204 2.475.614.74.398 1.32.967 1.741 1.707.433.74.649 1.593.649 2.56 0 .968-.222 1.821-.666 2.56a4.535 4.535 0 0 1-1.775 1.725c-.74.398-1.57.597-2.492.597Zm0-2.082c.432 0 .836-.103 1.212-.308.387-.216.694-.534.922-.955.227-.421.341-.933.341-1.537 0-.899-.239-1.587-.717-2.065a2.288 2.288 0 0 0-1.724-.734c-.683 0-1.257.245-1.724.734-.455.478-.683 1.166-.683 2.065 0 .9.222 1.593.666 2.083.455.478 1.024.717 1.707.717Zm8.051-6.06c.308-.5.706-.893 1.195-1.178.5-.284 1.07-.426 1.707-.426v2.509h-.632c-.75 0-1.32.176-1.706.529-.376.353-.564.967-.564 1.843v4.712h-2.39V12.28h2.39v1.468Zm7.123.495v4.575c0 .318.074.552.222.7.16.136.421.204.785.204h1.11v2.015h-1.502c-2.015 0-3.022-.98-3.022-2.936v-4.558H73.81v-1.963h1.126V9.943h2.407v2.338h2.117v1.963h-2.117Zm11.738-1.963v9.457h-2.407v-1.195c-.307.41-.71.734-1.211.973a3.757 3.757 0 0 1-1.605.341c-.74 0-1.394-.154-1.963-.46a3.432 3.432 0 0 1-1.348-1.383c-.319-.615-.478-1.343-.478-2.185V12.28h2.39v5.206c0 .751.187 1.332.563 1.741.375.399.887.598 1.536.598.66 0 1.178-.2 1.553-.598.376-.41.563-.99.563-1.74V12.28h2.407Zm6.574-.136c1.127 0 2.037.358 2.731 1.075.694.706 1.041 1.696 1.041 2.97v5.547h-2.39v-5.223c0-.75-.187-1.325-.563-1.723-.375-.41-.887-.615-1.536-.615-.66 0-1.183.205-1.57.614-.376.399-.563.973-.563 1.724v5.224h-2.39V12.28h2.39v1.178a3.24 3.24 0 0 1 1.211-.956 3.756 3.756 0 0 1 1.639-.358Zm6.232-.99c-.421 0-.773-.131-1.058-.393a1.37 1.37 0 0 1-.41-1.007c0-.398.137-.728.41-.99.285-.273.637-.41 1.058-.41.421 0 .769.137 1.042.41.284.262.426.592.426.99s-.142.734-.426 1.007c-.273.262-.621.393-1.042.393Zm1.178 1.126v9.457h-2.389V12.28h2.389Zm4.119 1.963v4.575c0 .318.074.552.222.7.159.136.421.204.785.204h1.11v2.015h-1.502c-2.014 0-3.021-.98-3.021-2.936v-4.558h-1.127v-1.963h1.127V9.943h2.406v2.338h2.117v1.963h-2.117Zm4.023-3.09c-.421 0-.774-.13-1.058-.392a1.37 1.37 0 0 1-.41-1.007c0-.398.137-.728.41-.99.284-.273.637-.41 1.058-.41.421 0 .768.137 1.041.41.285.262.427.592.427.99s-.142.734-.427 1.007c-.273.262-.62.393-1.041.393Zm1.178 1.127v9.457h-2.39V12.28h2.39Zm10.127 4.524c0 .341-.022.648-.068.921h-6.913c.057.683.296 1.218.717 1.605s.939.58 1.553.58c.888 0 1.519-.381 1.895-1.144h2.577a4.349 4.349 0 0 1-1.57 2.254c-.774.58-1.724.87-2.85.87-.911 0-1.73-.199-2.458-.597a4.392 4.392 0 0 1-1.69-1.724c-.398-.74-.598-1.593-.598-2.56 0-.98.2-1.838.598-2.578a4.167 4.167 0 0 1 1.673-1.707c.716-.398 1.541-.597 2.475-.597.898 0 1.701.193 2.406.58a4.005 4.005 0 0 1 1.656 1.656c.398.705.597 1.519.597 2.44Zm-2.475-.683c-.011-.615-.233-1.104-.665-1.468-.433-.376-.962-.563-1.588-.563-.591 0-1.092.182-1.502.546-.398.353-.643.848-.734 1.485h4.489Zm6.814 5.77c-.774 0-1.468-.137-2.082-.41-.615-.285-1.104-.666-1.468-1.144a2.908 2.908 0 0 1-.581-1.588h2.407c.046.365.222.666.529.905.319.24.711.358 1.178.358.455 0 .808-.09 1.058-.273.262-.182.393-.415.393-.7 0-.307-.16-.534-.478-.682-.307-.16-.802-.33-1.485-.512a13.061 13.061 0 0 1-1.741-.53 3.094 3.094 0 0 1-1.161-.836c-.318-.375-.478-.882-.478-1.519 0-.523.148-1.001.444-1.434.307-.432.74-.773 1.297-1.024.569-.25 1.235-.375 1.997-.375 1.127 0 2.026.284 2.697.853.672.558 1.041 1.315 1.11 2.27h-2.288a1.2 1.2 0 0 0-.477-.887c-.274-.228-.643-.342-1.11-.342-.432 0-.768.08-1.007.24a.766.766 0 0 0-.341.665c0 .319.159.563.478.734.318.16.813.324 1.485.495.682.17 1.246.347 1.689.53.444.181.825.466 1.144.852.33.376.501.877.512 1.503 0 .546-.154 1.035-.461 1.468-.296.432-.728.773-1.297 1.024-.558.239-1.212.358-1.963.358Z"/><path fill="#FCCE44" d="M0 7.531h16.431v16.431H0z"/><path fill="#00665F" d="m15.746 0 7.115 13.864H8.631L15.747 0Z"/></g><defs><clipPath id="a"><path fill="#fff" d="M0 0h132v29H0z"/></clipPath></defs></svg>