<svg width="24" height="24" viewBox="0 0 24 24" fill="none" xmlns="http://www.w3.org/2000/svg">
	<g clip-path="url(#clip0_7537_14942)">
		<path d="M0.5 12C0.5 5.67614 5.67614 0.5 12 0.5C18.3239 0.5 23.5 5.67614 23.5 12C23.5 18.3239 18.3239 23.5 12 23.5C5.67614 23.5 0.5 18.3239 0.5 12Z" stroke="#2B5469" stroke-opacity="0.2" />
		<path d="M10.5 16.5C10.5 17.4 11.1 18 12 18C12.9 18 13.5 17.4 13.5 16.5C13.5 15.6 12.9 15 12 15C11.1 15 10.5 15.6 10.5 16.5Z" fill="#2B5469" fill-opacity="0.6" />
		<path d="M11 13.5H13C13.2761 13.5 13.5 13.2761 13.5 13V6.5C13.5 6.22386 13.2761 6 13 6H11C10.7239 6 10.5 6.22386 10.5 6.5V13C10.5 13.2761 10.7239 13.5 11 13.5Z" fill="#2B5469" fill-opacity="0.6" />
	</g>
	<defs>
		<clipPath id="clip0_7537_14942">
			<rect width="24" height="24" fill="white" />
		</clipPath>
	</defs>
</svg>
