<svg width="24" height="24" viewBox="0 0 24 24" fill="none" xmlns="http://www.w3.org/2000/svg">
	<circle cx="12" cy="12" r="12" fill="white" />
	<path d="M12 0C5.4 0 0 5.4 0 12C0 18.6 5.4 24 12 24C18.6 24 24 18.6 24 12C24 5.4 18.6 0 12 0ZM10.8536 16.7464C10.6583 16.9417 10.3417 16.9417 10.1464 16.7464L5.75355 12.3536C5.55829 12.1583 5.55829 11.8417 5.75355 11.6464L7.14645 10.2536C7.34171 10.0583 7.65829 10.0583 7.85355 10.2536L10.5 12.9L16.1464 7.25355C16.3417 7.05829 16.6583 7.05829 16.8536 7.25355L18.2464 8.64645C18.4417 8.84171 18.4417 9.15829 18.2464 9.35355L10.8536 16.7464Z" fill="#00C49D" />
</svg>
