<svg width="32" height="32" viewBox="0 0 32 32" fill="none" xmlns="http://www.w3.org/2000/svg">
	<g>
		<path d="M4 31C6.20914 31 8 29.2091 8 27C8 24.7909 6.20914 23 4 23C1.79086 23 0 24.7909 0 27C0 29.2091 1.79086 31 4 31Z" fill="white" />
		<path fill-rule="evenodd" clip-rule="evenodd" d="M26.5 12.8596V24C26.5 26.4853 24.4853 28.5 22 28.5C19.5147 28.5 17.5 26.4853 17.5 24V8C17.5 3.85786 14.1421 0.5 10 0.5C5.85786 0.5 2.5 3.85786 2.5 8V19.1404C2.98588 19.0482 3.48731 19 4 19C4.51269 19 5.01412 19.0482 5.5 19.1404V8C5.5 5.51472 7.51472 3.5 10 3.5C12.4853 3.5 14.5 5.51472 14.5 8V24C14.5 28.1421 17.8579 31.5 22 31.5C26.1421 31.5 29.5 28.1421 29.5 24V12.8596C29.0141 12.9518 28.5127 13 28 13C27.4873 13 26.9859 12.9518 26.5 12.8596Z" fill="white" />
		<path d="M28 9C30.2091 9 32 7.20914 32 5C32 2.79086 30.2091 1 28 1C25.7909 1 24 2.79086 24 5C24 7.20914 25.7909 9 28 9Z" fill="white" />
	</g>
</svg>
