<svg width="32" height="32" viewBox="0 0 32 32" fill="none" xmlns="http://www.w3.org/2000/svg">
<path fill-rule="evenodd" clip-rule="evenodd" d="M 20.0413 0.5148 C 18.7504 0.1788 17.3961 0 16 0 C 7.1634 0 0 7.1634 0 16 C 0 24.8366 7.1634 32 16 32 C 24.8366 32 32 24.8366 32 16 C 32 14.4317 31.7744 12.9161 31.3538 11.4839 C 30.5367 12.0755 29.6034 12.5166 28.5946 12.7662 C 28.8593 13.8001 29 14.8836 29 16 C 29 23.1797 23.1797 29 16 29 C 8.8203 29 3 23.1797 3 16 C 3 8.8203 8.8203 3 16 3 C 16.9773 3 17.9294 3.1078 18.845 3.3123 C 19.0636 2.2944 19.4759 1.3484 20.0413 0.5148" fill="white"/>
<path d="M26.6667 9C28.8759 9 30.6667 7.20914 30.6667 5C30.6667 2.79086 28.8759 1 26.6667 1C24.4576 1 22.6667 2.79086 22.6667 5C22.6667 7.20914 24.4576 9 26.6667 9Z" fill="white"/>
<path fill-rule="evenodd" clip-rule="evenodd" d="M16 21C18.7614 21 21 18.7614 21 16C21 13.2386 18.7614 11 16 11C13.2386 11 11 13.2386 11 16C11 18.7614 13.2386 21 16 21ZM16 24C20.4183 24 24 20.4183 24 16C24 11.5817 20.4183 8 16 8C11.5817 8 8 11.5817 8 16C8 20.4183 11.5817 24 16 24Z" fill="white"/>
</svg>
