<svg width="24" height="24" viewBox="0 0 24 24" fill="none" xmlns="http://www.w3.org/2000/svg">
<g id="Group 2861">
<circle id="Ellipse 1325" cx="12" cy="12" r="12" fill="white"/>
<path id="Vector" d="M12 0C5.4 0 0 5.4 0 12C0 18.6 5.4 24 12 24C18.6 24 24 18.6 24 12C24 5.4 18.6 0 12 0ZM12 18C11.1 18 10.5 17.4 10.5 16.5C10.5 15.6 11.1 15 12 15C12.9 15 13.5 15.6 13.5 16.5C13.5 17.4 12.9 18 12 18ZM13.5 13C13.5 13.2761 13.2761 13.5 13 13.5H11C10.7239 13.5 10.5 13.2761 10.5 13V6.5C10.5 6.22386 10.7239 6 11 6H13C13.2761 6 13.5 6.22386 13.5 6.5V13Z" fill="#B42D2D"/>
</g>
</svg>
