<svg width="24" height="24" viewBox="0 0 24 24" fill="none" xmlns="http://www.w3.org/2000/svg">
	<g opacity="0.5" clip-path="url(#clip0_4_1145)">
		<path d="M1.07307 10.823C2.27318 12.0231 4.21895 12.0231 5.41906 10.823C6.61917 9.6229 6.61917 7.67713 5.41906 6.47701C4.21895 5.2769 2.27318 5.2769 1.07307 6.47701C-0.127048 7.67713 -0.127048 9.6229 1.07307 10.823Z" fill="white" />
		<path d="M11.9535 22.8924C13.1536 24.0925 15.0994 24.0925 16.2995 22.8924C17.4996 21.6923 17.4996 19.7465 16.2995 18.5464C15.0994 17.3463 13.1536 17.3463 11.9535 18.5464C10.7534 19.7465 10.7534 21.6923 11.9535 22.8924Z" fill="white" />
		<path fill-rule="evenodd" clip-rule="evenodd" d="M12.5017 0.700195C14.1091 0.700195 15.634 1.05359 17.0029 1.68693C16.9642 1.72339 16.9258 1.76057 16.8879 1.79847C16.4135 2.27286 16.0517 2.81716 15.8023 3.3982C14.7847 2.97971 13.6702 2.74892 12.5017 2.74892C10.2991 2.74892 8.28803 3.56902 6.7572 4.92053C6.21969 4.41383 5.59941 4.04536 4.94153 3.81514C6.88135 1.88972 9.55261 0.700195 12.5017 0.700195ZM17.6073 4.40775C18.9998 5.42158 20.0792 6.83936 20.6734 8.48887C21.3553 8.45269 22.0273 8.19048 22.5678 7.70226C21.8381 5.73369 20.5474 4.03747 18.8899 2.80772C18.6932 2.92989 18.5074 3.07636 18.3366 3.24713C17.9979 3.5858 17.7548 3.98384 17.6073 4.40775ZM21.185 11.4322C21.185 11.1185 21.1684 10.8088 21.1359 10.5037C21.8248 10.4193 22.4998 10.1951 23.1151 9.83113C23.1932 10.3535 23.2337 10.8881 23.2337 11.4322C23.2337 14.8381 21.6472 17.8734 19.1728 19.8394C19.0508 19.1352 18.7809 18.4517 18.3631 17.8387C20.0974 16.2512 21.185 13.9687 21.185 11.4322ZM11.1363 20.0087C11.5811 20.079 12.0372 20.1155 12.5017 20.1155C14.0239 20.1155 15.4546 19.7238 16.6986 19.0357C17.1043 19.6542 17.2637 20.3869 17.1768 21.0951C15.7636 21.7801 14.1775 22.1642 12.5017 22.1642C12.1242 22.1642 11.7513 22.1447 11.3839 22.1067C11.0535 21.454 10.971 20.708 11.1363 20.0087ZM9.16354 19.4506C6.7055 18.4261 4.81929 16.3043 4.11676 13.697C3.41231 13.818 2.68743 13.791 1.99208 13.6162C2.76801 17.3695 5.50394 20.4059 9.08219 21.6079C8.95681 20.8929 8.98392 20.1563 9.16354 19.4506ZM5.39034 6.44816C4.85928 5.93054 4.18728 5.6434 3.49985 5.58675C2.42014 7.24607 1.7868 9.22249 1.77005 11.3458C2.40204 11.6921 3.12999 11.7996 3.82158 11.6684C3.81949 11.5899 3.81843 11.5112 3.81843 11.4322C3.81843 9.57761 4.39985 7.85882 5.39034 6.44816Z" fill="white" />
		<path d="M18.3364 7.59321C19.5365 8.79333 21.4823 8.79333 22.6824 7.59321C23.8825 6.3931 23.8825 4.44733 22.6824 3.24722C21.4823 2.0471 19.5365 2.0471 18.3364 3.24722C17.1363 4.44733 17.1363 6.3931 18.3364 7.59321Z" fill="white" />
	</g>
</svg>
