<svg width="141" height="96" viewBox="0 0 141 96" fill="none" xmlns="http://www.w3.org/2000/svg">
<path d="M114.913 1.8314V2.13472L115.26 1.22474L127.512 16.3395L127.677 17.1178H128.587C128.587 10.3359 127.876 9.25426 124.407 5.7231C121.688 2.95312 118.201 1.72838 114.555 0L114.913 1.8314ZM133.764 5.19085L133.456 5.4999L133.764 5.19085H134.372L134.071 25.0729L133.764 24.7639L133.456 24.4605L133.155 24.1515L132.848 23.8482L133.155 24.1515L133.456 24.4605L133.764 24.7639L134.071 25.0729L134.913 26.1603L138.32 21.1011L138.627 19.8763L138.929 17.1235V16.5111C138.929 11.1372 135.572 7.37136 134.668 3.97183L134.099 3.98328L133.764 5.19085ZM13.3786 19.5673C13.8053 20.2483 13.9588 21.496 14.4878 22.4288C14.9429 23.2358 15.6027 24.0027 16.1203 24.7639L16.4218 25.0729L16.7233 25.382L17.0305 25.6853H17.3319V4.27516C15.8416 6.51861 13.0715 12.8713 13.0715 16.5111V17.4268C13.0715 18.4799 13.299 18.6115 13.3786 19.5673ZM29.1861 17.7359L28.8847 18.0392H28.5775L28.276 18.3483C23.3102 19.5158 19.1578 24.8669 19.1578 31.5H19.7665L34.6582 16.5111C34.1974 15.3093 30.4091 17.4497 29.1861 17.7359ZM6.99648 34.8594L6.62106 31.5057L6.68932 30.5785C6.68932 26.6181 8.28202 23.6479 8.51523 20.792L9.42534 21.4044L12.8951 41.5669L13.3786 41.2865L13.6801 40.9831L13.3786 41.2865L13.0885 42.2079C9.68131 41.4066 8.52092 37.0743 6.99648 34.8594ZM117.347 16.8145V15.8988L122.82 17.7359L123.121 18.0392H123.423L123.73 18.3483H124.031L124.333 18.6516C129.059 19.7619 132.848 25.2618 132.848 31.5H132.239L117.882 16.5798L117.347 16.8145ZM138.627 41.5898L139.133 41.2636L142.876 21.0954L143.468 20.7405C143.741 23.8882 145.305 26.5666 145.305 30.5728V31.7976L145.003 34.5504C142.461 38.5852 143.934 39.0258 139.224 42.1964L138.627 41.5898ZM125.857 32.1066L136.192 50.1515H136.801L137.108 49.2358C137.188 48.2801 137.41 48.1485 137.41 47.0954V45.8707C137.41 40.5196 132.433 35.2085 128.9 33.3256L126.016 31.2653L125.857 32.1066ZM23.1055 33.3313L26.4501 31.5L26.143 33.028V31.8033L16.1829 49.2759L16.4218 49.8482L15.2102 50.1973L14.8974 44.3426C15.3069 39.4207 19.8461 35.529 23.1055 33.3313ZM138.32 56.8876C139.224 59.1311 144.901 54.5183 145.538 53.7514C148.308 50.4205 147.813 47.8795 149.27 45.5731L149.861 38.7969L149.27 39.146L138.32 56.8876ZM2.73602 45.5673C4.05569 47.6563 3.82816 50.8612 6.30252 53.6026C9.17506 56.7903 10.1819 56.1093 13.6801 57.8033V56.8876L3.04319 39.146L2.00225 38.8541L2.73602 45.5673ZM22.804 48.3201L22.4968 48.6235C19.0668 53.78 17.3262 53.78 17.3262 62.6966L19.4536 66.3708L25.2499 46.7692L25.8415 47.1011L25.6651 45.3842L22.804 48.3201ZM0.9158 58.1067L0 56.5786V56.2753H0.9158L17.349 68.786L17.6334 68.2022V68.5055V69.4212C16.9508 69.5815 16.9338 69.7303 16.1147 69.7303C7.31502 69.7303 3.9533 63.887 0.9158 58.1067ZM126.164 47.0954V45.5673L127.984 47.0954L128.286 47.3987L128.593 47.702L128.9 48.0111L129.202 48.3144L129.503 48.6178L129.805 48.9268C133.087 53.8658 134.668 54.2893 134.668 62.6909L132.541 66.3651L126.75 46.7635L126.164 47.0954ZM134.367 68.5055L134.873 68.6715L151.09 56.2753H152V56.5786L151.09 58.1067C148.519 62.9885 144.344 69.7303 137.103 69.7303C136.028 69.7303 134.697 69.633 134.367 68.8146V68.5055ZM21.8882 76.764C21.8882 72.506 22.4058 69.9535 23.9075 67.172C24.6982 65.7012 27.5479 60.911 28.879 60.5504V61.4661L24.9257 81.9605L24.3341 82.3154L21.8882 76.764ZM3.34466 71.2583C7.13869 75.648 9.84627 81.6572 17.9349 81.6572H18.242C19.7835 81.6572 19.8575 81.165 21.2795 81.0449C22.1726 80.7015 21.9508 80.484 21.2795 79.5168C20.7733 80.8388 18.1055 78.5954 17.2694 78.0459C15.9213 77.1417 14.1921 76.3805 12.7757 75.5278C11.2513 74.6178 4.90892 71.3213 4.26046 70.3713L6.68932 70.0336L2.72465 70.045L3.34466 71.2583ZM123.121 61.4718L127.074 81.9663H127.683L130.118 75.8483C130.118 72.1225 129.338 69.3125 127.984 66.9832C127.131 65.5066 124.577 61.0884 123.127 60.5561V61.4718H123.121ZM130.419 79.8201V81.0449L134.668 81.6572C137.45 82.138 141.761 79.2192 143.109 77.92C145.612 75.5163 146.579 73.6563 148.65 71.2641L149.258 70.0393H145.003L147.887 70.6116L130.999 80.1578L130.419 79.8201ZM31.0064 85.3257C32.7697 87.8725 31.9335 89.5036 35.2668 91.7528L35.5683 70.646L35.2668 69.7303C32.4569 71.802 31.0064 79.9059 31.0064 85.3257ZM11.5527 83.7977L30.6309 90.528L31.0121 90.2247V91.1404L30.7106 91.4494C29.0155 91.8501 28.1907 92.6742 25.8472 92.6742C17.6107 92.6742 15.9099 87.9584 11.5584 85.0281L11.2569 84.7191L10.9498 84.41L10.6483 84.1067V83.7977H11.5527ZM120.994 89.9157V91.1347C122.273 91.9989 124.077 92.6685 126.164 92.6685H127.376C132.546 92.6685 139.258 86.9511 141.357 83.7977L139.844 83.4943L140.498 84.0151L121.295 90.5223L120.994 89.9157ZM116.432 70.955L116.773 69.7417C119.435 71.7162 120.994 79.9861 120.994 85.3257C119.236 87.8725 120.066 89.5036 116.739 91.7528L116.432 70.955ZM41.649 89.6123C42.8378 91.501 42.2519 93.3495 44.4533 95.6616C45.79 97.0695 47.4623 98.9124 49.5499 99.3988V98.7865L42.5591 78.6011C41.1769 80.6042 41.649 86.2243 41.649 89.6123ZM102.45 98.7865V99.3988C104.799 98.8494 106.068 97.2012 107.547 95.6616C109.589 93.5326 109.242 91.3693 110.351 89.6123L109.742 78.9044L102.45 98.7865ZM109.447 98.4831L129.509 95.7303L130.482 96.0966L129.816 96.646C127.308 98.34 121.927 102.152 117.962 102.152H115.533C112.922 102.152 110.761 100.486 109.151 99.3988L108.866 98.8093L109.447 98.4831ZM22.1953 96.646L21.5753 95.9764L22.804 95.7246C23.3273 97.018 30.8642 97.3957 32.5422 97.5503C35.6991 97.8421 39.9311 98.7865 42.8719 98.7865V99.3988C40.7616 100.818 39.1405 102.152 35.574 102.152H34.3567C29.8005 102.152 25.0394 98.5632 22.1953 96.646ZM52.8945 91.1404C54.3223 92.7944 55.5623 96.9493 57.8262 99.3301C60.0219 101.642 62.1663 103.68 66.5747 103.68H69.0092V102.455V101.534L68.6622 102.753C67.4051 102.409 53.7876 90.6597 53.5032 89.6066H52.5874L52.8945 91.1404ZM82.9908 103.067V103.68H86.034C89.9759 103.68 92.2739 101.247 94.3217 99.1756C96.688 96.7776 97.6095 92.8688 99.1055 91.1404L99.4695 89.6295L98.1953 89.6123L98.5253 90.2018L82.9908 103.067ZM35.8755 106.433L35.5171 106.787L35.8527 106.89L55.9434 103.68L56.5919 104.023L55.9434 104.899C54.1915 106.925 51.4611 109.489 47.7353 109.489H44.0892C41.8708 109.489 37.6786 108.373 36.1826 107.652L34.9028 107.28L35.8755 106.433ZM95.4593 104.292L96.0623 103.68L116.733 107.045L115.823 107.657C114.048 108.607 108.576 109.798 105.789 109.798C99.3102 109.798 98.4286 106.289 95.4593 104.292ZM81.4721 108.27H80.8634L81.4721 109.798C83.6904 111.435 85.7268 115 90.2888 115H95.1579C96.9951 115 99.6515 114.147 101.239 113.775H102.149L100.63 112.247L100.328 111.938L100.021 111.635L100.328 111.938L100.63 112.247L101.29 112.911L100.965 113.043L81.4721 108.27ZM51.0743 112.551L51.3815 112.247L51.683 111.938L51.9844 111.635L51.683 111.938L51.3815 112.247L51.0743 112.551L49.6864 113.604L50.7672 113.77L58.0651 114.994H60.494C67.1321 114.994 67.5246 111.818 70.528 109.792L71.2162 108.304L70.528 108.264L50.7615 113.129L51.0743 112.551ZM23.4069 17.1235C23.4069 10.8567 24.1521 9.02533 27.4285 5.87763C29.2828 4.09202 34.2657 0.967203 37.087 0.303324L24.0156 17.1292H23.4069V17.1235ZM24.0156 17.1235L37.087 0.297604V2.43804C36.4557 3.43959 36.0347 6.5415 35.5342 7.90933C34.9881 9.38016 33.9301 11.2058 33.1394 12.5336C31.8596 14.6569 27.73 17.1235 24.0156 17.1235ZM114.913 2.13472L115.26 1.22474L127.512 16.3395L127.677 17.1178C119.247 17.1235 116.534 9.1398 114.913 2.13472ZM17.3262 25.6853V4.27516L17.9235 3.92605C18.6004 6.80477 22.3432 11.9785 21.8882 15.8988L21.5867 19.5673C19.8916 22.0111 20.4206 23.6021 17.3262 25.6853H17.0248L16.7233 25.382L16.4218 25.0729L16.1203 24.7639L16.4218 25.0729L16.7233 25.382L17.0305 25.6853H17.3262ZM133.456 5.4999L133.764 5.19085H134.372L134.071 25.0729L133.764 24.7639L133.456 24.4605L133.155 24.1515L132.848 23.8482L130.112 18.6459C130.112 12.5279 131.358 9.49463 133.456 5.4999ZM19.7608 31.5L34.6525 16.5111L34.351 17.7359C31.1429 24.4605 30.119 31.5 19.7608 31.5ZM136.192 35.7808C136.192 30.1722 139.896 23.2987 142.882 21.1011L139.139 41.2693L138.633 41.5955L136.192 35.7808ZM117.347 16.8145L117.882 16.5798L132.239 31.5C121.841 31.5 120.868 24.4834 117.649 17.7359L117.347 16.8145ZM13.3786 41.2865L12.8951 41.5669L9.42534 21.4044C11.2911 22.7779 15.4321 29.4339 15.506 32.7247C15.506 36.708 15.58 38.7912 13.6801 40.9831L13.3786 41.2865ZM125.857 35.7808V32.1066L136.192 50.1515H136.801H136.192C133.394 49.9169 131.193 48.0111 129.583 46.4086C127.182 44.0221 127.467 41.5154 126.164 39.4493L125.857 35.7808ZM16.4218 49.8482C19.1635 49.791 21.1089 47.7421 22.5821 46.2598C24.738 44.0908 24.5332 41.6585 25.8472 39.7584L26.1486 33.028V31.8033L16.1886 49.2759L16.4218 49.8482ZM137.711 55.3596L138.32 56.8876L149.27 39.146C147.393 39.6497 142.66 43.467 141.283 44.8806C138.775 47.4331 137.711 50.2946 137.711 55.3596ZM13.6801 56.8876L13.9873 56.5786L14.2888 53.8258V52.601C14.2888 46.5403 7.16144 41.3322 3.04319 39.1403L13.6801 56.8876ZM126.164 47.0954L126.756 46.7635L132.546 66.3651C130.555 65.8958 128.764 64.1903 127.74 62.6336C126.278 60.4073 126.033 58.1181 125.254 56.8819L126.164 47.0954ZM19.4593 66.3651C23.6401 65.3864 24.1521 61.9469 26.1486 59.6347L26.7573 57.191L25.8472 47.0954L25.2556 46.7635L19.4593 66.3651ZM141.966 58.41L151.09 56.2695L134.873 68.6658L134.367 68.4998C134.742 63.9843 137.251 61.0254 140.447 59.3257L140.754 59.0166H141.062L141.363 58.7133H141.67L141.966 58.41ZM17.6334 68.2022L17.349 68.786L0.9158 56.2753L10.034 58.4157L10.3411 58.7248H10.6426L10.9441 59.0281H11.2513L11.5527 59.3371C15.1818 61.2658 16.5868 63.6924 17.6334 68.2022ZM24.9314 81.9663L28.8847 61.4718C30.5627 64.1331 30.7106 69.7875 30.7106 74.3202C29.8744 75.648 29.8232 76.9357 28.4637 78.7899C27.4569 80.1635 26.2681 81.062 24.9314 81.9663ZM121.295 74.3202C123.337 77.5538 122.78 79.677 127.074 81.9663H127.683H127.074L123.121 61.4718C122.387 62.6279 120.994 68.4369 120.994 70.3426V72.1798C120.994 73.2328 121.215 73.3587 121.295 74.3202ZM21.2795 79.5168C20.7733 80.8388 18.1055 78.5954 17.2694 78.0459C15.9213 77.1417 14.1921 76.3805 12.7757 75.5278C11.2513 74.6178 4.90892 71.3213 4.26046 70.3713L6.68932 70.0336L9.73251 70.3369L13.9873 71.5617C17.0134 72.2771 21.0065 76.1401 21.2795 79.5168ZM142.273 70.3426L145.009 70.0393L147.893 70.6116L131.005 80.1578L130.413 79.8258C132.171 76.1344 133.479 72.6319 138.007 71.5674L142.273 70.3426ZM112.484 85.3257C113.866 87.3345 114.276 90.0873 116.739 91.7528L116.437 70.955C113.718 72.9524 112.484 80.1234 112.484 85.3257ZM35.2668 91.7528L35.5683 70.646C38.0882 74.4347 39.5216 78.3664 39.5216 84.7191C39.021 85.5146 38.6172 87.3631 37.7981 88.7939C37.0643 90.0702 36.3874 90.9973 35.2668 91.7528ZM31.0064 90.2247L30.6253 90.528L11.547 83.7977L14.8917 83.1853L18.2364 82.882H19.4536C20.5003 82.882 20.6311 83.1052 21.581 83.1853L24.317 83.7977L24.9257 84.1067C28.276 85.8866 29.2373 86.8595 31.0064 90.2247ZM130.419 83.1853C131.363 83.1052 131.494 82.882 132.546 82.882H134.975C136.022 82.882 136.153 83.1052 137.103 83.1853L139.839 83.4943L140.493 84.0151L121.289 90.5223L120.988 89.9157C122.347 87.8725 124.48 84.7992 127.069 84.1067L127.376 83.7977L130.419 83.1853ZM100.931 95.4213C100.852 94.4655 100.624 94.3339 100.624 93.2808V92.9775C100.624 87.7867 108.11 77.9486 109.748 78.9101L102.45 98.7922L100.931 95.4213ZM82.9908 102.152C82.9908 98.2428 85.7666 95.2725 88.076 93.504C89.5663 92.3594 90.9145 91.8443 92.7176 91.1404C94.0316 90.6253 97.2113 90.0931 98.1953 89.618L98.5253 90.2075L82.9965 103.073V102.152H82.9908ZM49.5556 98.7865L42.5648 78.6011C44.7604 80.0834 47.0926 83.1109 48.6455 85.3257C51.0345 88.7252 51.0743 90.0759 51.0743 95.7303L50.7672 96.9551L49.5556 98.7865ZM116.432 93.5899L117.95 93.2808H121.295L126.164 94.5056L129.509 95.7303L109.447 98.4831C110.032 96.2511 113.923 94.1794 116.432 93.5899ZM25.2328 94.8089L31.3135 93.2808H34.0495L35.5683 93.5899C38.4636 93.8303 41.7514 96.6689 42.8663 98.7922C39.9255 98.7922 35.6991 97.8479 32.5365 97.556C30.8585 97.4015 23.3216 97.0237 22.7983 95.7303L25.2328 94.8089ZM69.0092 101.539L68.6622 102.758C67.4051 102.415 53.7876 90.6654 53.5032 89.6123C60.3745 91.2205 68.3778 93.8646 69.0092 101.539ZM35.8755 106.433L35.5171 106.787L35.8527 106.89L55.9434 103.68C55.039 102.444 51.774 100.927 49.5556 100.927H47.1267C44.0153 100.927 37.0927 104.767 35.8755 106.433ZM96.0623 103.68L116.733 107.045C115.385 105.019 108.241 100.927 104.577 100.927H102.143C100.038 100.927 96.9155 102.518 96.0623 103.68ZM51.9844 111.635L51.683 111.938L51.3815 112.247L51.0743 112.551L50.7615 113.129L70.528 108.264C69.5154 106.879 65.7385 105.814 63.2357 105.814C59.8455 105.82 53.3098 109.643 51.9844 111.635ZM81.4721 108.27L100.96 113.043L101.284 112.911L100.624 112.247L100.323 111.938L100.016 111.635C98.7073 109.672 92.1886 105.826 88.77 105.826C86.1819 105.82 82.5187 106.839 81.4721 108.27ZM75.4369 102.552C76.9158 102.552 78.1217 103.76 78.1217 105.254C78.1217 106.742 76.9158 107.955 75.4369 107.955C73.9579 107.955 72.752 106.742 72.752 105.254C72.752 103.76 73.9522 102.552 75.4369 102.552Z" fill="#73AEAB" fill-opacity="0.45"/>
</svg>
