<svg width="212" height="78" viewBox="0 0 212 78" fill="none" xmlns="http://www.w3.org/2000/svg">
<rect width="211.675" height="78" rx="39" fill="white"/>
<path d="M32 37C32 35.8954 32.8954 35 34 35C35.1046 35 36 35.8954 36 37C36 43.6274 41.3726 49 48 49C54.6274 49 60 43.6274 60 37C60 35.8954 60.8954 35 62 35C63.1046 35 64 35.8954 64 37C64 45.159 57.8923 51.8866 50 52.8711V57H56C57.1046 57 58 57.8954 58 59C58 60.1046 57.1046 61 56 61H40C38.8954 61 38 60.1046 38 59C38 57.8954 38.8954 57 40 57H46V52.8711C38.1077 51.8866 32 45.159 32 37ZM52 25C52 22.7909 50.2091 21 48 21C45.7909 21 44 22.7909 44 25V37C44 39.2091 45.7909 41 48 41C50.2091 41 52 39.2091 52 37V25ZM56 37C56 41.4183 52.4183 45 48 45C43.5817 45 40 41.4183 40 37V25C40 20.5817 43.5817 17 48 17C52.4183 17 56 20.5817 56 25V37Z" fill="#9AA9B1"/>
<path d="M87 38.25C86.5858 38.25 86.25 38.5858 86.25 39C86.25 39.4142 86.5858 39.75 87 39.75V39V38.25ZM117.53 39.5303C117.823 39.2374 117.823 38.7626 117.53 38.4697L112.757 33.6967C112.464 33.4038 111.99 33.4038 111.697 33.6967C111.404 33.9896 111.404 34.4645 111.697 34.7574L115.939 39L111.697 43.2426C111.404 43.5355 111.404 44.0104 111.697 44.3033C111.99 44.5962 112.464 44.5962 112.757 44.3033L117.53 39.5303ZM87 39V39.75H117V39V38.25H87V39Z" fill="#9AA9B1"/>
<path d="M139 35.7001C139 34.3332 140.108 33.2251 141.475 33.2251C142.842 33.2251 143.95 34.3332 143.95 35.7001V42.3001C143.95 43.667 142.842 44.7751 141.475 44.7751C140.108 44.7751 139 43.667 139 42.3001V35.7001Z" fill="#006C67"/>
<path d="M150.547 24.5625C150.547 23.4234 151.47 22.5 152.609 22.5C153.748 22.5 154.672 23.4234 154.672 24.5625V53.4375C154.672 54.5766 153.748 55.5 152.609 55.5C151.47 55.5 150.547 54.5766 150.547 53.4375V24.5625Z" fill="#006C67"/>
<path d="M161.273 34.4624C161.273 33.3233 162.197 32.3999 163.336 32.3999C164.475 32.3999 165.398 33.3233 165.398 34.4624V43.5374C165.398 44.6765 164.475 45.5999 163.336 45.5999C162.197 45.5999 161.273 44.6765 161.273 43.5374V34.4624Z" fill="#006C67"/>
<path d="M172 29.1C172 27.7331 173.108 26.625 174.475 26.625C175.842 26.625 176.95 27.7331 176.95 29.1V48.9C176.95 50.2669 175.842 51.375 174.475 51.375C173.108 51.375 172 50.2669 172 48.9V29.1Z" fill="#006C67"/>
<path d="M183.547 34.4624C183.547 33.3233 184.47 32.3999 185.609 32.3999C186.748 32.3999 187.672 33.3233 187.672 34.4624V43.5374C187.672 44.6765 186.748 45.5999 185.609 45.5999C184.47 45.5999 183.547 44.6765 183.547 43.5374V34.4624Z" fill="#006C67"/>
</svg>
