<svg width="12" height="15" viewBox="0 0 12 15" fill="none" xmlns="http://www.w3.org/2000/svg">
<path d="M4 11.4997C3.63333 11.4997 3.31944 11.3691 3.05833 11.108C2.79722 10.8469 2.66667 10.533 2.66667 10.1663V2.16634C2.66667 1.79967 2.79722 1.48579 3.05833 1.22467C3.31944 0.963563 3.63333 0.833008 4 0.833008H10C10.3667 0.833008 10.6806 0.963563 10.9417 1.22467C11.2028 1.48579 11.3333 1.79967 11.3333 2.16634V10.1663C11.3333 10.533 11.2028 10.8469 10.9417 11.108C10.6806 11.3691 10.3667 11.4997 10 11.4997H4ZM4 10.1663H10V2.16634H4V10.1663ZM1.33333 14.1663C0.966667 14.1663 0.652778 14.0358 0.391667 13.7747C0.130556 13.5136 0 13.1997 0 12.833V3.49967H1.33333V12.833H8.66667V14.1663H1.33333Z" fill="#2B5469" fill-opacity="0.6"/>
</svg>
