<svg width="12" height="13" viewBox="0 0 12 13" fill="none" xmlns="http://www.w3.org/2000/svg">
<path d="M11.572 4.76998L8.03202 4.25598L6.44802 1.04798C6.40214 0.969343 6.33644 0.904099 6.25749 0.858755C6.17853 0.813412 6.08907 0.789551 5.99802 0.789551C5.90697 0.789551 5.81751 0.813412 5.73856 0.858755C5.6596 0.904099 5.59391 0.969343 5.54802 1.04798L3.96802 4.25598L0.428023 4.76998C0.335673 4.7834 0.248919 4.82238 0.177576 4.88254C0.106232 4.94269 0.0531464 5.02161 0.0243241 5.11036C-0.00449822 5.19912 -0.00790677 5.29417 0.014484 5.38476C0.0368748 5.47536 0.0841713 5.55788 0.151023 5.62298L2.71302 8.12298L2.10702 11.649C2.0912 11.741 2.10146 11.8356 2.13664 11.9221C2.17182 12.0086 2.23051 12.0835 2.30607 12.1383C2.38163 12.1932 2.47104 12.2258 2.56417 12.2324C2.6573 12.2391 2.75043 12.2195 2.83302 12.176L6.00002 10.508L9.16702 12.173C9.23844 12.2109 9.31816 12.2305 9.39902 12.23C9.47189 12.2301 9.5439 12.2144 9.61004 12.1838C9.67617 12.1532 9.73482 12.1085 9.78187 12.0529C9.82893 11.9973 9.86326 11.932 9.88246 11.8617C9.90166 11.7914 9.90526 11.7178 9.89302 11.646L9.28702 8.11998L11.849 5.61998C11.9159 5.55488 11.9632 5.47236 11.9856 5.38176C12.008 5.29117 12.0045 5.19612 11.9757 5.10737C11.9469 5.01861 11.8938 4.93969 11.8225 4.87954C11.7511 4.81938 11.6644 4.7804 11.572 4.76698V4.76998Z" fill="#E0A852"/>
</svg>
