<svg width="16" height="17" viewBox="0 0 16 17" fill="none" xmlns="http://www.w3.org/2000/svg">
<path d="M8.11545 1C4.70827 1 2 3.70827 2 7.11545C2 8.77535 2.61154 10.3479 3.83463 11.4836C3.922 11.571 7.41654 14.7161 7.5039 14.8034C7.85335 15.0655 8.37754 15.0655 8.63963 14.8034C8.72699 14.7161 12.3089 11.571 12.3089 11.4836C13.532 10.3479 14.1435 8.77535 14.1435 7.11545C14.2309 3.70827 11.5226 1 8.11545 1ZM8.11545 8.86271C7.15445 8.86271 6.36818 8.07644 6.36818 7.11545C6.36818 6.15445 7.15445 5.36818 8.11545 5.36818C9.07644 5.36818 9.86271 6.15445 9.86271 7.11545C9.86271 8.07644 9.07644 8.86271 8.11545 8.86271Z" fill="#2B5469" fill-opacity="0.4"/>
</svg>
