<svg width="16" height="16" viewBox="0 0 16 16" xmlns="http://www.w3.org/2000/svg">
<path d="M15.086 10.4003L11.949 9.00832C11.6387 8.87105 11.2918 8.83996 10.962 8.91987C10.6322 8.99978 10.338 9.18623 10.125 9.45032L9.17799 10.6353C7.64333 9.65901 6.3417 8.35772 5.36499 6.82332L6.54899 5.87732C6.81401 5.66452 7.00124 5.37008 7.08154 5.03983C7.16184 4.70958 7.13071 4.36204 6.99299 4.05132L5.59999 0.914319C5.45201 0.581126 5.19055 0.311288 4.86218 0.152875C4.53382 -0.00553726 4.15988 -0.0422351 3.80699 0.0493194L1.15499 0.738319C0.789118 0.833898 0.471003 1.06034 0.260902 1.37475C0.0508015 1.68917 -0.0366933 2.06972 0.0149909 2.44432C0.506106 5.86153 2.09094 9.02772 4.53219 11.4688C6.97344 13.9099 10.1397 15.4945 13.557 15.9853C13.6272 15.9953 13.6981 16.0003 13.769 16.0003C14.1104 16.0001 14.4422 15.8867 14.7123 15.6779C14.9824 15.4691 15.1757 15.1767 15.262 14.8463L15.95 12.1933C16.0429 11.8405 16.0069 11.4662 15.8485 11.1375C15.6902 10.8089 15.4198 10.5475 15.086 10.4003Z" fill="current"/>
</svg>
