<svg width="16" height="17" viewBox="0 0 16 17" fill="none" xmlns="http://www.w3.org/2000/svg">
<path d="M15.854 7.646L8.854 0.646001C8.80748 0.599599 8.75227 0.562821 8.69153 0.537769C8.63079 0.512717 8.5657 0.499883 8.5 0.500001H3.5C3.36739 0.500001 3.24021 0.552679 3.14645 0.646447C3.05268 0.740216 3 0.867393 3 1V2H5.5C5.76274 1.99929 6.023 2.05072 6.26572 2.15131C6.50844 2.2519 6.72879 2.39965 6.914 2.586L13.914 9.586C14.0304 9.70619 14.1312 9.84058 14.214 9.986L15.85 8.35C15.9434 8.25689 15.9962 8.13067 15.9969 7.99882C15.9977 7.86697 15.9463 7.74017 15.854 7.646Z" fill="#2B5469" fill-opacity="0.4"/>
<path d="M5.854 3.646C5.80748 3.5996 5.75227 3.56282 5.69153 3.53777C5.63079 3.51272 5.56571 3.49988 5.5 3.5H0.500001C0.367393 3.5 0.240216 3.55268 0.146447 3.64645C0.0526792 3.74022 7.97493e-07 3.86739 7.97493e-07 4V9C-0.00011655 9.06571 0.0127175 9.13079 0.0377692 9.19153C0.0628209 9.25227 0.099599 9.30748 0.146001 9.354L7.146 16.354C7.19245 16.4006 7.24762 16.4375 7.30837 16.4627C7.36911 16.4879 7.43423 16.5009 7.5 16.5009C7.56577 16.5009 7.63089 16.4879 7.69163 16.4627C7.75238 16.4375 7.80756 16.4006 7.854 16.354L12.854 11.354C12.9006 11.3076 12.9375 11.2524 12.9627 11.1916C12.9879 11.1309 13.0009 11.0658 13.0009 11C13.0009 10.9342 12.9879 10.8691 12.9627 10.8084C12.9375 10.7476 12.9006 10.6924 12.854 10.646L5.854 3.646ZM3 7.5C2.80222 7.5 2.60888 7.44135 2.44443 7.33147C2.27998 7.22159 2.15181 7.06541 2.07612 6.88268C2.00043 6.69996 1.98063 6.49889 2.01922 6.30491C2.0578 6.11093 2.15304 5.93275 2.29289 5.79289C2.43275 5.65304 2.61093 5.5578 2.80491 5.51922C2.99889 5.48063 3.19996 5.50043 3.38268 5.57612C3.56541 5.65181 3.72159 5.77998 3.83147 5.94443C3.94135 6.10888 4 6.30222 4 6.5C4 6.76522 3.89464 7.01957 3.70711 7.20711C3.51957 7.39464 3.26522 7.5 3 7.5Z" fill="#2B5469" fill-opacity="0.4"/>
</svg>
