<svg xmlns="http://www.w3.org/2000/svg" width="452" height="168" fill="none" viewBox="0 0 452 168"><path fill="#003331" d="M291.369 137v-4.298l-3.472-5.824h1.638l2.59 4.501 2.555-4.501h1.638l-3.451 5.831V137h-1.498Zm7.928.14c-.676 0-1.267-.145-1.771-.434a2.996 2.996 0 0 1-1.176-1.274c-.28-.555-.42-1.227-.42-2.016 0-.761.133-1.426.399-1.995a3.039 3.039 0 0 1 1.148-1.323c.504-.317 1.113-.476 1.827-.476.682 0 1.272.149 1.771.448.5.294.887.726 1.162 1.295.276.565.413 1.248.413 2.051 0 .733-.128 1.379-.385 1.939-.256.56-.634.999-1.134 1.316-.494.313-1.106.469-1.834.469Zm.007-1.155c.416 0 .761-.107 1.036-.322.276-.219.483-.525.623-.917.14-.397.21-.854.21-1.372 0-.481-.063-.917-.189-1.309-.121-.397-.319-.712-.595-.945-.27-.233-.632-.35-1.085-.35-.415 0-.765.107-1.05.322-.28.21-.49.511-.63.903-.14.387-.21.847-.21 1.379 0 .471.063.905.189 1.302s.327.714.602.952c.28.238.647.357 1.099.357Zm7.475 1.155a3.662 3.662 0 0 1-1.043-.161 2.748 2.748 0 0 1-.889-.462 2.288 2.288 0 0 1-.616-.763 2.37 2.37 0 0 1-.224-1.057v-4.935h1.505v4.774c0 .434.135.786.406 1.057.271.271.679.406 1.225.406.495 0 .891-.128 1.19-.385.299-.261.448-.642.448-1.141v-4.711h1.491V137h-1.162l-.168-1.4c-.084.378-.236.681-.455.91a1.914 1.914 0 0 1-.77.49 2.813 2.813 0 0 1-.938.14Zm5.471-.14v-7.238h1.435v1.484c.122-.355.29-.651.504-.889.22-.243.474-.425.763-.546.29-.126.595-.189.917-.189.098 0 .192.007.28.021a.558.558 0 0 1 .21.056v1.442a.73.73 0 0 0-.238-.056 9.922 9.922 0 0 0-.245-.021 3.083 3.083 0 0 0-.868.049 1.896 1.896 0 0 0-.679.28 1.331 1.331 0 0 0-.434.511c-.098.21-.147.457-.147.742V137h-1.498Zm12.702.14c-.915 0-1.699-.21-2.352-.63-.653-.425-1.155-1.027-1.505-1.806-.345-.784-.518-1.722-.518-2.814 0-1.087.173-2.014.518-2.779.345-.77.845-1.358 1.498-1.764.653-.406 1.44-.609 2.359-.609.728 0 1.374.149 1.939.448.565.299 1.017.7 1.358 1.204.345.504.551 1.062.616 1.673h-1.596a2.791 2.791 0 0 0-.406-1.036 2.074 2.074 0 0 0-.784-.735c-.327-.182-.714-.273-1.162-.273-.574 0-1.062.135-1.463.406s-.707.693-.917 1.267c-.205.574-.308 1.314-.308 2.219 0 1.367.231 2.368.693 3.003.462.63 1.127.945 1.995.945.448 0 .835-.096 1.162-.287a2.27 2.27 0 0 0 .784-.777c.201-.327.336-.681.406-1.064h1.596a4.72 4.72 0 0 1-.35 1.281c-.177.406-.425.77-.742 1.092a3.328 3.328 0 0 1-1.169.763c-.467.182-1.017.273-1.652.273Zm8.173 0a3.668 3.668 0 0 1-1.043-.161 2.758 2.758 0 0 1-.889-.462 2.3 2.3 0 0 1-.616-.763 2.37 2.37 0 0 1-.224-1.057v-4.935h1.505v4.774c0 .434.136.786.406 1.057.271.271.679.406 1.225.406.495 0 .892-.128 1.19-.385.299-.261.448-.642.448-1.141v-4.711h1.491V137h-1.162l-.168-1.4c-.084.378-.235.681-.455.91a1.907 1.907 0 0 1-.77.49 2.809 2.809 0 0 1-.938.14Zm5.472-.14v-7.238h1.435v1.484c.121-.355.289-.651.504-.889.219-.243.473-.425.763-.546a2.27 2.27 0 0 1 1.197-.168.569.569 0 0 1 .21.056v1.442a.737.737 0 0 0-.238-.056 10.355 10.355 0 0 0-.245-.021 3.078 3.078 0 0 0-.868.049 1.88 1.88 0 0 0-.679.28 1.314 1.314 0 0 0-.434.511c-.098.21-.147.457-.147.742V137h-1.498Zm5.41 0v-7.238h1.435v1.484c.122-.355.29-.651.504-.889.22-.243.474-.425.763-.546.29-.126.595-.189.917-.189.098 0 .192.007.28.021a.558.558 0 0 1 .21.056v1.442a.73.73 0 0 0-.238-.056 9.922 9.922 0 0 0-.245-.021 3.083 3.083 0 0 0-.868.049 1.896 1.896 0 0 0-.679.28 1.331 1.331 0 0 0-.434.511c-.098.21-.147.457-.147.742V137h-1.498Zm8.465.14c-.686 0-1.29-.147-1.813-.441a3.135 3.135 0 0 1-1.225-1.274c-.289-.551-.434-1.206-.434-1.967 0-.751.133-1.414.399-1.988a3.138 3.138 0 0 1 1.155-1.358c.504-.327 1.111-.49 1.82-.49.696 0 1.284.149 1.764.448.481.299.845.719 1.092 1.26.248.537.371 1.171.371 1.904v.497h-5.096a2.94 2.94 0 0 0 .21 1.169c.145.341.36.611.644.812.29.196.649.294 1.078.294.434 0 .808-.098 1.12-.294a1.38 1.38 0 0 0 .623-.875h1.386a2.437 2.437 0 0 1-.595 1.26 3.025 3.025 0 0 1-1.127.784 3.704 3.704 0 0 1-1.372.259Zm-1.967-4.382h3.668c0-.378-.065-.721-.196-1.029a1.577 1.577 0 0 0-.602-.735c-.266-.182-.602-.273-1.008-.273-.415 0-.76.1-1.036.301a1.897 1.897 0 0 0-.623.77 2.417 2.417 0 0 0-.203.966Zm6.662 4.242v-7.238h1.463v1.043c.117-.196.273-.38.469-.553.201-.173.446-.313.735-.42a2.958 2.958 0 0 1 1.015-.161c.453 0 .87.091 1.253.273.387.177.698.457.931.84.233.378.35.868.35 1.47V137h-1.498v-4.585c0-.518-.14-.903-.42-1.155-.275-.252-.632-.378-1.071-.378a2.41 2.41 0 0 0-.84.147 1.457 1.457 0 0 0-.644.448c-.163.196-.245.443-.245.742V137h-1.498Zm10.473.049c-.537 0-.952-.072-1.246-.217a1.232 1.232 0 0 1-.616-.623c-.117-.275-.175-.607-.175-.994v-4.375h-1.176v-1.078h1.225l.364-2.128h1.092v2.121h1.624v1.085h-1.624l.007 4.319c0 .238.023.413.07.525a.38.38 0 0 0 .252.21c.121.028.285.042.49.042h.84v.973c-.089.037-.226.07-.413.098a4.88 4.88 0 0 1-.714.042ZM287.614 154v-10.122h4.018c.752 0 1.375.117 1.869.35.495.229.864.555 1.106.98.243.425.364.926.364 1.505 0 .546-.093 1.001-.28 1.365-.182.364-.42.66-.714.889a3.744 3.744 0 0 1-.917.539l1.96 4.494h-1.575l-1.792-4.235h-2.541V154h-1.498Zm1.498-5.446h2.114c.705 0 1.251-.152 1.638-.455.388-.308.581-.747.581-1.316 0-.56-.177-.985-.532-1.274-.35-.289-.826-.434-1.428-.434h-2.373v3.479Zm10.543 5.586c-.686 0-1.29-.147-1.813-.441a3.128 3.128 0 0 1-1.225-1.274c-.289-.551-.434-1.206-.434-1.967 0-.751.133-1.414.399-1.988a3.138 3.138 0 0 1 1.155-1.358c.504-.327 1.111-.49 1.82-.49.695 0 1.283.149 1.764.448.481.299.845.719 1.092 1.26.247.537.371 1.171.371 1.904v.497h-5.096c-.005.434.065.824.21 1.169.145.341.359.611.644.812.289.196.649.294 1.078.294.434 0 .807-.098 1.12-.294.317-.196.525-.488.623-.875h1.386a2.437 2.437 0 0 1-.595 1.26 3.033 3.033 0 0 1-1.127.784 3.707 3.707 0 0 1-1.372.259Zm-1.967-4.382h3.668c0-.378-.065-.721-.196-1.029a1.583 1.583 0 0 0-.602-.735c-.266-.182-.602-.273-1.008-.273-.415 0-.761.1-1.036.301a1.897 1.897 0 0 0-.623.77 2.417 2.417 0 0 0-.203.966Zm8.622 4.34c-.43 0-.775-.056-1.036-.168a1.385 1.385 0 0 1-.588-.448 1.63 1.63 0 0 1-.273-.644 4.385 4.385 0 0 1-.063-.749v-8.491h1.477v8.337c0 .336.065.593.196.77.135.177.34.278.616.301l.378.014v.952a2.98 2.98 0 0 1-.364.091 1.857 1.857 0 0 1-.343.035Zm5.001.042c-.686 0-1.291-.147-1.813-.441a3.128 3.128 0 0 1-1.225-1.274c-.29-.551-.434-1.206-.434-1.967 0-.751.133-1.414.399-1.988a3.138 3.138 0 0 1 1.155-1.358c.504-.327 1.11-.49 1.82-.49.695 0 1.283.149 1.764.448.48.299.844.719 1.092 1.26.247.537.371 1.171.371 1.904v.497h-5.096c-.005.434.065.824.21 1.169.144.341.359.611.644.812.289.196.648.294 1.078.294.434 0 .807-.098 1.12-.294.317-.196.525-.488.623-.875h1.386a2.445 2.445 0 0 1-.595 1.26 3.041 3.041 0 0 1-1.127.784 3.707 3.707 0 0 1-1.372.259Zm-1.967-4.382h3.668c0-.378-.066-.721-.196-1.029a1.59 1.59 0 0 0-.602-.735c-.266-.182-.602-.273-1.008-.273-.416 0-.761.1-1.036.301a1.89 1.89 0 0 0-.623.77 2.4 2.4 0 0 0-.203.966Zm8.644 4.382c-.466 0-.882-.084-1.246-.252a1.994 1.994 0 0 1-.847-.728c-.205-.317-.308-.7-.308-1.148 0-.803.283-1.402.847-1.799.57-.397 1.48-.607 2.73-.63l1.19-.035v-.525c0-.415-.123-.742-.371-.98-.247-.238-.63-.355-1.148-.35-.382 0-.725.089-1.029.266-.303.177-.501.469-.595.875h-1.295c.028-.481.166-.884.413-1.211.252-.331.598-.581 1.036-.749.439-.168.952-.252 1.54-.252.663 0 1.207.091 1.631.273.425.177.74.439.945.784.21.345.315.765.315 1.26V154h-1.274l-.112-1.33c-.27.555-.613.94-1.029 1.155a3.04 3.04 0 0 1-1.393.315Zm.469-1.043c.229 0 .455-.04.679-.119.224-.084.427-.196.609-.336.182-.145.327-.306.434-.483.112-.177.171-.359.175-.546v-1.197l-.98.021c-.499.005-.924.056-1.274.154-.345.098-.611.25-.798.455-.182.205-.273.478-.273.819 0 .387.133.691.399.91.271.215.614.322 1.029.322Zm7.746 1.043c-.504 0-.978-.079-1.421-.238a2.638 2.638 0 0 1-1.106-.749c-.294-.341-.478-.777-.553-1.309h1.337c.061.275.175.504.343.686.173.177.378.31.616.399.243.084.502.126.777.126.457 0 .828-.082 1.113-.245.285-.168.427-.425.427-.77 0-.247-.077-.446-.231-.595-.154-.149-.394-.259-.721-.329l-1.442-.343c-.597-.14-1.076-.362-1.435-.665-.359-.308-.541-.737-.546-1.288 0-.425.105-.803.315-1.134.215-.331.532-.59.952-.777.425-.191.947-.287 1.568-.287.817 0 1.472.182 1.967.546.499.364.756.891.77 1.582h-1.295a1.111 1.111 0 0 0-.455-.777c-.252-.191-.586-.287-1.001-.287-.429 0-.782.086-1.057.259-.275.168-.413.427-.413.777 0 .238.1.427.301.567.205.135.506.247.903.336l1.372.343c.355.093.646.217.875.371.229.149.408.315.539.497.131.182.222.371.273.567.056.196.084.38.084.553 0 .457-.117.849-.35 1.176-.229.322-.555.572-.98.749-.425.173-.933.259-1.526.259Zm7.465 0c-.686 0-1.29-.147-1.813-.441a3.128 3.128 0 0 1-1.225-1.274c-.289-.551-.434-1.206-.434-1.967 0-.751.133-1.414.399-1.988a3.138 3.138 0 0 1 1.155-1.358c.504-.327 1.111-.49 1.82-.49.695 0 1.283.149 1.764.448.481.299.845.719 1.092 1.26.247.537.371 1.171.371 1.904v.497h-5.096c-.005.434.065.824.21 1.169.145.341.359.611.644.812.289.196.649.294 1.078.294.434 0 .807-.098 1.12-.294.317-.196.525-.488.623-.875h1.386a2.437 2.437 0 0 1-.595 1.26 3.033 3.033 0 0 1-1.127.784 3.707 3.707 0 0 1-1.372.259Zm-1.967-4.382h3.668c0-.378-.065-.721-.196-1.029a1.583 1.583 0 0 0-.602-.735c-.266-.182-.602-.273-1.008-.273-.415 0-.761.1-1.036.301a1.897 1.897 0 0 0-.623.77 2.417 2.417 0 0 0-.203.966ZM341.743 154v-10.122c.037 0 .147.002.329.007h.672c.261-.005.527-.005.798 0 .275 0 .52.002.735.007 1.236.019 2.242.224 3.017.616.774.392 1.341.957 1.701 1.694.364.733.546 1.626.546 2.681 0 1.097-.194 2.028-.581 2.793-.388.761-.98 1.339-1.778 1.736-.794.392-1.799.588-3.017.588h-2.422Zm1.526-1.26h.91c.765 0 1.43-.124 1.995-.371a2.77 2.77 0 0 0 1.323-1.218c.312-.565.469-1.318.469-2.261 0-.924-.15-1.659-.448-2.205a2.58 2.58 0 0 0-1.288-1.183c-.556-.243-1.225-.364-2.009-.364h-.952v7.602Zm9.935 1.4c-.466 0-.882-.084-1.246-.252a1.994 1.994 0 0 1-.847-.728c-.205-.317-.308-.7-.308-1.148 0-.803.283-1.402.847-1.799.57-.397 1.48-.607 2.73-.63l1.19-.035v-.525c0-.415-.123-.742-.371-.98-.247-.238-.63-.355-1.148-.35-.382 0-.725.089-1.029.266-.303.177-.501.469-.595.875h-1.295c.028-.481.166-.884.413-1.211.252-.331.598-.581 1.036-.749.439-.168.952-.252 1.54-.252.663 0 1.207.091 1.631.273.425.177.74.439.945.784.21.345.315.765.315 1.26V154h-1.274l-.112-1.33c-.27.555-.613.94-1.029 1.155a3.04 3.04 0 0 1-1.393.315Zm.469-1.043c.229 0 .455-.04.679-.119.224-.084.427-.196.609-.336.182-.145.327-.306.434-.483.112-.177.171-.359.175-.546v-1.197l-.98.021c-.499.005-.924.056-1.274.154-.345.098-.611.25-.798.455-.182.205-.273.478-.273.819 0 .387.133.691.399.91.271.215.614.322 1.029.322Zm7.597.952c-.536 0-.952-.072-1.246-.217a1.232 1.232 0 0 1-.616-.623c-.116-.275-.175-.607-.175-.994v-4.375h-1.176v-1.078h1.225l.364-2.128h1.092v2.121h1.624v1.085h-1.624l.007 4.319c0 .238.024.413.07.525a.385.385 0 0 0 .252.21c.122.028.285.042.49.042h.84v.973c-.088.037-.226.07-.413.098a4.88 4.88 0 0 1-.714.042Zm5.577.091c-.686 0-1.291-.147-1.813-.441a3.128 3.128 0 0 1-1.225-1.274c-.29-.551-.434-1.206-.434-1.967 0-.751.133-1.414.399-1.988a3.138 3.138 0 0 1 1.155-1.358c.504-.327 1.11-.49 1.82-.49.695 0 1.283.149 1.764.448.48.299.844.719 1.092 1.26.247.537.371 1.171.371 1.904v.497h-5.096c-.005.434.065.824.21 1.169.144.341.359.611.644.812.289.196.648.294 1.078.294.434 0 .807-.098 1.12-.294.317-.196.525-.488.623-.875h1.386a2.445 2.445 0 0 1-.595 1.26 3.041 3.041 0 0 1-1.127.784 3.707 3.707 0 0 1-1.372.259Zm-1.967-4.382h3.668c0-.378-.066-.721-.196-1.029a1.59 1.59 0 0 0-.602-.735c-.266-.182-.602-.273-1.008-.273-.416 0-.761.1-1.036.301a1.89 1.89 0 0 0-.623.77 2.4 2.4 0 0 0-.203.966Z"/><path fill="#000" d="M328 45.333a2.667 2.667 0 1 0 0 5.334 2.667 2.667 0 0 0 0-5.334ZM327.5 48v73h1V48h-1ZM5 3.333a2.667 2.667 0 1 0 0 5.334 2.667 2.667 0 0 0 0-5.334ZM4.5 6v1h1V6h-1Zm0 3v2h1V9h-1Zm0 4v2h1v-2h-1Zm0 4v2h1v-2h-1Zm0 4v2h1v-2h-1Zm0 4v2h1v-2h-1Zm0 4v2h1v-2h-1Zm0 4v2h1v-2h-1Zm0 4v2h1v-2h-1Zm0 4v2h1v-2h-1Zm0 4v2h1v-2h-1Zm0 4v2h1v-2h-1Zm0 4v2h1v-2h-1Zm0 4v2h1v-2h-1Zm0 4v2h1v-2h-1Zm0 4v2h1v-2h-1Zm0 4v2h1v-2h-1Zm0 4v2h1v-2h-1Zm0 4v2h1v-2h-1Zm0 4v2h1v-2h-1Zm0 4v2h1v-2h-1Zm0 4v2h1v-2h-1Zm0 4v2h1v-2h-1Zm0 4v2h1v-2h-1Zm0 4v2h1v-2h-1Zm0 4v2h1v-2h-1Zm0 4v2h1v-2h-1Zm0 4v2h1v-2h-1Zm0 4v2h1v-2h-1Zm0 4v2h1v-2h-1Zm0 4v2h1v-2h-1Zm0 4v2h1v-2h-1Zm0 4v2h1v-2h-1Zm0 4v2h1v-2h-1Zm0 4v1h1v-1h-1ZM447 3.333a2.667 2.667 0 1 0 0 5.334 2.667 2.667 0 0 0 0-5.334ZM446.5 6v1h1V6h-1Zm0 3v2h1V9h-1Zm0 4v2h1v-2h-1Zm0 4v2h1v-2h-1Zm0 4v2h1v-2h-1Zm0 4v2h1v-2h-1Zm0 4v2h1v-2h-1Zm0 4v2h1v-2h-1Zm0 4v2h1v-2h-1Zm0 4v2h1v-2h-1Zm0 4v2h1v-2h-1Zm0 4v2h1v-2h-1Zm0 4v2h1v-2h-1Zm0 4v2h1v-2h-1Zm0 4v2h1v-2h-1Zm0 4v2h1v-2h-1Zm0 4v2h1v-2h-1Zm0 4v2h1v-2h-1Zm0 4v2h1v-2h-1Zm0 4v2h1v-2h-1Zm0 4v2h1v-2h-1Zm0 4v2h1v-2h-1Zm0 4v2h1v-2h-1Zm0 4v2h1v-2h-1Zm0 4v2h1v-2h-1Zm0 4v2h1v-2h-1Zm0 4v2h1v-2h-1Zm0 4v2h1v-2h-1Zm0 4v2h1v-2h-1Zm0 4v2h1v-2h-1Zm0 4v2h1v-2h-1Zm0 4v2h1v-2h-1Zm0 4v2h1v-2h-1Zm0 4v2h1v-2h-1Zm0 4v1h1v-1h-1Z"/><path fill="#2B5469" fill-opacity=".85" d="m14.62 20-2.515-8.676h1.284l1.836 6.588 1.86-6.588h.984l1.86 6.588 1.86-6.588h1.278L20.53 20h-1.128l-1.83-6.438L15.717 20H14.62Zm9.456 0v-8.916h1.266v3.618c.1-.164.234-.32.402-.468a2.06 2.06 0 0 1 .624-.36c.248-.096.536-.144.864-.144.404 0 .768.076 1.092.228.328.148.588.364.78.648.196.28.294.614.294 1.002V20h-1.284v-4.158c0-.348-.12-.616-.36-.804-.24-.188-.548-.282-.924-.282-.252 0-.492.044-.72.132a1.257 1.257 0 0 0-.546.384.978.978 0 0 0-.204.636V20h-1.284Zm9.54.12c-.588 0-1.106-.126-1.554-.378a2.683 2.683 0 0 1-1.05-1.092c-.248-.472-.372-1.034-.372-1.686 0-.644.114-1.212.342-1.704a2.69 2.69 0 0 1 .99-1.164c.432-.28.952-.42 1.56-.42.596 0 1.1.128 1.512.384.412.256.724.616.936 1.08.212.46.318 1.004.318 1.632v.426H31.93a2.5 2.5 0 0 0 .18 1.002c.124.292.308.524.552.696.248.168.556.252.924.252.372 0 .692-.084.96-.252.272-.168.45-.418.534-.75h1.188a2.093 2.093 0 0 1-.51 1.08 2.6 2.6 0 0 1-.966.672 3.182 3.182 0 0 1-1.176.222Zm-1.686-3.756h3.144c0-.324-.056-.618-.168-.882a1.36 1.36 0 0 0-.516-.63c-.228-.156-.516-.234-.864-.234-.356 0-.652.086-.888.258a1.624 1.624 0 0 0-.534.66 2.065 2.065 0 0 0-.174.828ZM37.64 20v-6.204h1.254v.894c.1-.168.234-.326.402-.474.172-.148.382-.268.63-.36a2.53 2.53 0 0 1 .87-.138c.388 0 .746.078 1.074.234.332.152.598.392.798.72.2.324.3.744.3 1.26V20h-1.284v-3.93c0-.444-.12-.774-.36-.99-.236-.216-.542-.324-.918-.324-.252 0-.492.042-.72.126a1.253 1.253 0 0 0-.552.384.96.96 0 0 0-.21.636V20H37.64Zm10.236 1.98c-.38 0-.644-.028-.792-.084l-.216-.084v-.828l.63.012c.24.012.438-.002.594-.042a.944.944 0 0 0 .366-.168.703.703 0 0 0 .204-.222c.048-.08.084-.154.108-.222l.192-.522-2.418-6.024h1.284l1.74 4.584 1.734-4.584h1.254l-2.586 6.552c-.176.432-.37.766-.582 1.002a1.7 1.7 0 0 1-.69.492 2.38 2.38 0 0 1-.822.138Zm8.085-1.86c-.58 0-1.086-.124-1.518-.372a2.567 2.567 0 0 1-1.008-1.092c-.24-.476-.36-1.052-.36-1.728 0-.652.114-1.222.342-1.71a2.6 2.6 0 0 1 .984-1.134c.432-.272.954-.408 1.566-.408.584 0 1.09.128 1.518.384.428.252.76.622.996 1.11.236.484.354 1.07.354 1.758 0 .628-.11 1.182-.33 1.662-.22.48-.544.856-.972 1.128-.424.268-.948.402-1.572.402Zm.006-.99c.356 0 .652-.092.888-.276.236-.188.414-.45.534-.786.12-.34.18-.732.18-1.176 0-.412-.054-.786-.162-1.122a1.672 1.672 0 0 0-.51-.81c-.232-.2-.542-.3-.93-.3-.356 0-.656.092-.9.276-.24.18-.42.438-.54.774-.12.332-.18.726-.18 1.182 0 .404.054.776.162 1.116.108.34.28.612.516.816.24.204.554.306.942.306Zm6.407.99a3.14 3.14 0 0 1-.894-.138 2.344 2.344 0 0 1-.762-.396 1.965 1.965 0 0 1-.528-.654 2.027 2.027 0 0 1-.192-.906v-4.23h1.29v4.092c0 .372.116.674.348.906.232.232.582.348 1.05.348.424 0 .764-.11 1.02-.33.256-.224.384-.55.384-.978v-4.038h1.278V20h-.996l-.144-1.2c-.072.324-.202.584-.39.78a1.638 1.638 0 0 1-.66.42c-.252.084-.52.124-.804.12Zm9.918 0c-.588 0-1.106-.126-1.554-.378a2.683 2.683 0 0 1-1.05-1.092c-.248-.472-.372-1.034-.372-1.686 0-.644.114-1.212.342-1.704a2.69 2.69 0 0 1 .99-1.164c.432-.28.952-.42 1.56-.42.596 0 1.1.128 1.512.384.412.256.724.616.936 1.08.212.46.318 1.004.318 1.632v.426h-4.368a2.5 2.5 0 0 0 .18 1.002c.124.292.308.524.552.696.248.168.556.252.924.252.372 0 .692-.084.96-.252.272-.168.45-.418.534-.75h1.188a2.093 2.093 0 0 1-.51 1.08 2.6 2.6 0 0 1-.966.672 3.182 3.182 0 0 1-1.176.222Zm-1.686-3.756h3.144c0-.324-.056-.618-.168-.882a1.36 1.36 0 0 0-.516-.63c-.228-.156-.516-.234-.864-.234-.356 0-.652.086-.888.258a1.624 1.624 0 0 0-.534.66 2.065 2.065 0 0 0-.174.828ZM76.316 20v-6.204h1.254v.894c.1-.168.234-.326.402-.474.172-.148.382-.268.63-.36a2.53 2.53 0 0 1 .87-.138c.388 0 .746.078 1.074.234.332.152.598.392.798.72.2.324.3.744.3 1.26V20H80.36v-3.93c0-.444-.12-.774-.36-.99-.236-.216-.542-.324-.918-.324-.252 0-.492.042-.72.126a1.253 1.253 0 0 0-.552.384.96.96 0 0 0-.21.636V20h-1.284Zm8.977.042c-.46 0-.816-.062-1.068-.186a1.055 1.055 0 0 1-.528-.534c-.1-.236-.15-.52-.15-.852v-3.75h-1.008v-.924h1.05l.312-1.824h.936v1.818h1.392v.93h-1.392l.006 3.702c0 .204.02.354.06.45a.326.326 0 0 0 .216.18c.104.024.244.036.42.036h.72v.834c-.076.032-.194.06-.354.084-.156.024-.36.036-.612.036Zm4.78.078c-.588 0-1.106-.126-1.554-.378a2.683 2.683 0 0 1-1.05-1.092c-.248-.472-.372-1.034-.372-1.686 0-.644.114-1.212.342-1.704a2.69 2.69 0 0 1 .99-1.164c.432-.28.952-.42 1.56-.42.596 0 1.1.128 1.512.384.412.256.724.616.936 1.08.212.46.318 1.004.318 1.632v.426h-4.368a2.5 2.5 0 0 0 .18 1.002c.124.292.308.524.552.696.248.168.556.252.924.252.372 0 .692-.084.96-.252.272-.168.45-.418.534-.75h1.188a2.093 2.093 0 0 1-.51 1.08 2.6 2.6 0 0 1-.966.672 3.182 3.182 0 0 1-1.176.222Zm-1.686-3.756h3.144c0-.324-.056-.618-.168-.882a1.36 1.36 0 0 0-.516-.63c-.228-.156-.516-.234-.864-.234-.356 0-.652.086-.888.258a1.624 1.624 0 0 0-.534.66 2.065 2.065 0 0 0-.174.828ZM94.097 20v-6.204h1.23v1.272a2.17 2.17 0 0 1 .432-.762 1.947 1.947 0 0 1 1.68-.612.487.487 0 0 1 .18.048v1.236a.637.637 0 0 0-.204-.048 6.469 6.469 0 0 0-.21-.018 2.63 2.63 0 0 0-.744.042 1.623 1.623 0 0 0-.582.24c-.16.112-.284.258-.372.438-.084.18-.126.392-.126.636V20h-1.284Zm7.255.12c-.588 0-1.106-.126-1.554-.378a2.683 2.683 0 0 1-1.05-1.092c-.248-.472-.372-1.034-.372-1.686 0-.644.114-1.212.342-1.704a2.69 2.69 0 0 1 .99-1.164c.432-.28.952-.42 1.56-.42.596 0 1.1.128 1.512.384.412.256.724.616.936 1.08.212.46.318 1.004.318 1.632v.426h-4.368a2.5 2.5 0 0 0 .18 1.002c.124.292.308.524.552.696.248.168.556.252.924.252.372 0 .692-.084.96-.252.272-.168.45-.418.534-.75h1.188a2.093 2.093 0 0 1-.51 1.08 2.6 2.6 0 0 1-.966.672 3.182 3.182 0 0 1-1.176.222Zm-1.686-3.756h3.144c0-.324-.056-.618-.168-.882a1.36 1.36 0 0 0-.516-.63c-.228-.156-.516-.234-.864-.234-.356 0-.652.086-.888.258a1.624 1.624 0 0 0-.534.66 2.065 2.065 0 0 0-.174.828Zm7.996 3.756c-.812 0-1.454-.278-1.926-.834-.468-.56-.702-1.366-.702-2.418 0-.644.094-1.204.282-1.68.192-.48.474-.852.846-1.116.372-.264.836-.396 1.392-.396.276 0 .524.034.744.102.22.068.412.156.576.264.164.108.302.224.414.348.112.124.196.24.252.348v-3.654h1.296V20h-.966l-.144-1.272a2.365 2.365 0 0 1-.204.444 1.82 1.82 0 0 1-.972.81c-.244.092-.54.138-.888.138Zm.246-.966c.576 0 .992-.18 1.248-.54.256-.364.384-.96.384-1.788-.004-.468-.062-.864-.174-1.188-.108-.324-.28-.568-.516-.732-.232-.168-.538-.252-.918-.252a1.49 1.49 0 0 0-1.17.516c-.3.34-.45.892-.45 1.656 0 .752.136 1.328.408 1.728.276.4.672.6 1.188.6ZM14.481 34.12c-.4 0-.756-.072-1.068-.216a1.702 1.702 0 0 1-.726-.624c-.176-.272-.264-.6-.264-.984 0-.688.242-1.202.726-1.542.488-.34 1.268-.52 2.34-.54l1.02-.03v-.45c0-.356-.106-.636-.318-.84-.212-.204-.54-.304-.984-.3-.328 0-.622.076-.882.228-.26.152-.43.402-.51.75h-1.11c.024-.412.142-.758.354-1.038.216-.284.512-.498.888-.642.376-.144.816-.216 1.32-.216.568 0 1.034.078 1.398.234.364.152.634.376.81.672.18.296.27.656.27 1.08V34h-1.092l-.096-1.14c-.232.476-.526.806-.882.99-.356.18-.754.27-1.194.27Zm.402-.894c.196 0 .39-.034.582-.102.192-.072.366-.168.522-.288.156-.124.28-.262.372-.414a.91.91 0 0 0 .15-.468v-1.026l-.84.018a4.246 4.246 0 0 0-1.092.132c-.296.084-.524.214-.684.39-.156.176-.234.41-.234.702 0 .332.114.592.342.78.232.184.526.276.882.276Zm7.355.774v-8.676l.282.006h.576c.224-.004.452-.004.684 0 .236 0 .446.002.63.006 1.06.016 1.922.192 2.586.528.664.336 1.15.82 1.458 1.452.312.628.468 1.394.468 2.298 0 .94-.166 1.738-.498 2.394a3.31 3.31 0 0 1-1.524 1.488c-.68.336-1.542.504-2.586.504h-2.076Zm1.308-1.08h.78c.656 0 1.226-.106 1.71-.318a2.372 2.372 0 0 0 1.134-1.044c.268-.484.402-1.13.402-1.938 0-.792-.128-1.422-.384-1.89a2.212 2.212 0 0 0-1.104-1.014c-.476-.208-1.05-.312-1.722-.312h-.816v6.516Zm10.34 1.2c-.787 0-1.47-.174-2.045-.522-.572-.352-1.014-.858-1.326-1.518-.308-.664-.462-1.464-.462-2.4 0-.944.156-1.748.468-2.412.316-.668.76-1.178 1.332-1.53.576-.356 1.254-.534 2.034-.534.776 0 1.448.178 2.016.534.572.352 1.012.862 1.32 1.53.312.664.468 1.468.468 2.412 0 .936-.154 1.734-.462 2.394-.308.66-.748 1.166-1.32 1.518-.568.352-1.242.528-2.022.528Zm0-1.098c.505 0 .935-.116 1.29-.348.36-.232.635-.594.823-1.086.188-.492.282-1.122.282-1.89 0-.788-.096-1.432-.288-1.932-.188-.5-.462-.868-.822-1.104-.356-.24-.784-.36-1.284-.36s-.932.12-1.296.36c-.36.24-.638.61-.834 1.11-.196.5-.294 1.142-.294 1.926 0 .772.098 1.404.294 1.896.196.488.474.848.834 1.08.364.232.796.348 1.296.348Zm8.644 1.098c-.784 0-1.456-.18-2.016-.54-.56-.364-.99-.88-1.29-1.548-.296-.672-.444-1.476-.444-2.412 0-.932.148-1.726.444-2.382.296-.66.724-1.164 1.284-1.512.56-.348 1.234-.522 2.022-.522.624 0 1.178.128 1.662.384s.872.6 1.164 1.032c.296.432.472.91.528 1.434h-1.368a2.4 2.4 0 0 0-.348-.888 1.784 1.784 0 0 0-.672-.63c-.28-.156-.612-.234-.996-.234-.492 0-.91.116-1.254.348-.344.232-.606.594-.786 1.086-.176.492-.264 1.126-.264 1.902 0 1.172.198 2.03.594 2.574.396.54.966.81 1.71.81.384 0 .716-.082.996-.246.28-.168.504-.39.672-.666.172-.28.288-.584.348-.912h1.368a4.03 4.03 0 0 1-.3 1.098c-.152.348-.364.66-.636.936a2.848 2.848 0 0 1-1.002.654c-.4.156-.872.234-1.416.234Zm8.257-.12v-5.28h-1.266v-.924h1.266v-.942c0-.496.13-.874.39-1.134.264-.264.652-.396 1.164-.396h1.242l.006.888h-.9c-.244 0-.412.066-.504.198-.088.128-.132.326-.132.594v.792h1.476v.924h-1.452V34h-1.29Zm5.675.12c-.4 0-.756-.072-1.068-.216a1.702 1.702 0 0 1-.726-.624c-.176-.272-.264-.6-.264-.984 0-.688.242-1.202.726-1.542.488-.34 1.268-.52 2.34-.54l1.02-.03v-.45c0-.356-.106-.636-.318-.84-.212-.204-.54-.304-.984-.3-.328 0-.622.076-.882.228-.26.152-.43.402-.51.75h-1.11c.024-.412.142-.758.354-1.038.216-.284.512-.498.888-.642.376-.144.816-.216 1.32-.216.568 0 1.034.078 1.398.234.364.152.634.376.81.672.18.296.27.656.27 1.08V34h-1.092l-.096-1.14c-.232.476-.526.806-.882.99-.356.18-.754.27-1.194.27Zm.402-.894c.196 0 .39-.034.582-.102.192-.072.366-.168.522-.288.156-.124.28-.262.372-.414a.91.91 0 0 0 .15-.468v-1.026l-.84.018a4.246 4.246 0 0 0-1.092.132c-.296.084-.524.214-.684.39-.156.176-.234.41-.234.702 0 .332.114.592.342.78.232.184.526.276.882.276Zm6.937.894c-.56 0-1.058-.122-1.494-.366a2.591 2.591 0 0 1-1.026-1.086c-.248-.48-.372-1.062-.372-1.746 0-.644.114-1.21.342-1.698.232-.488.564-.868.996-1.14.432-.272.95-.408 1.554-.408.468 0 .882.092 1.242.276.36.18.652.432.876.756.228.324.366.702.414 1.134h-1.116a1.381 1.381 0 0 0-.228-.57 1.301 1.301 0 0 0-.474-.42 1.434 1.434 0 0 0-.702-.162c-.5 0-.906.182-1.218.546-.312.364-.468.922-.468 1.674 0 .688.146 1.236.438 1.644.292.408.714.612 1.266.612.272 0 .506-.056.702-.168.196-.112.352-.256.468-.432.12-.176.196-.358.228-.546h1.092a2.29 2.29 0 0 1-1.29 1.836c-.36.176-.77.264-1.23.264Zm3.83-.12v-6.204h1.235V34H67.63Zm-.03-7.404V25.33h1.29v1.266H67.6Zm4.665 7.488c-.369 0-.665-.048-.889-.144a1.193 1.193 0 0 1-.503-.384 1.416 1.416 0 0 1-.234-.552 3.758 3.758 0 0 1-.055-.642v-7.278h1.267v7.146c0 .288.055.508.167.66.116.152.292.238.528.258l.325.012v.816a2.54 2.54 0 0 1-.313.078 1.56 1.56 0 0 1-.293.03ZM74.151 34v-6.204h1.236V34h-1.236Zm-.03-7.404V25.33h1.29v1.266h-1.29Zm5.297 7.446c-.46 0-.816-.062-1.068-.186a1.055 1.055 0 0 1-.528-.534c-.1-.236-.15-.52-.15-.852v-3.75h-1.008v-.924h1.05l.312-1.824h.936v1.818h1.392v.93h-1.392l.006 3.702c0 .204.02.354.06.45a.326.326 0 0 0 .216.18c.104.024.244.036.42.036h.72v.834c-.076.032-.194.06-.354.084-.156.024-.36.036-.612.036Zm2.97 1.938c-.38 0-.644-.028-.792-.084l-.216-.084v-.828l.63.012c.24.012.438-.002.594-.042a.944.944 0 0 0 .366-.168.703.703 0 0 0 .204-.222c.048-.08.084-.154.108-.222l.192-.522-2.418-6.024h1.284l1.74 4.584 1.734-4.584h1.254l-2.586 6.552c-.176.432-.37.766-.582 1.002a1.7 1.7 0 0 1-.69.492 2.38 2.38 0 0 1-.822.138ZM375.036 20v-3.684l-2.976-4.992h1.404l2.22 3.858 2.19-3.858h1.404l-2.958 4.998V20h-1.284Zm6.796.12c-.58 0-1.086-.124-1.518-.372a2.567 2.567 0 0 1-1.008-1.092c-.24-.476-.36-1.052-.36-1.728 0-.652.114-1.222.342-1.71a2.6 2.6 0 0 1 .984-1.134c.432-.272.954-.408 1.566-.408.584 0 1.09.128 1.518.384.428.252.76.622.996 1.11.236.484.354 1.07.354 1.758 0 .628-.11 1.182-.33 1.662-.22.48-.544.856-.972 1.128-.424.268-.948.402-1.572.402Zm.006-.99c.356 0 .652-.092.888-.276.236-.188.414-.45.534-.786.12-.34.18-.732.18-1.176 0-.412-.054-.786-.162-1.122a1.672 1.672 0 0 0-.51-.81c-.232-.2-.542-.3-.93-.3-.356 0-.656.092-.9.276-.24.18-.42.438-.54.774-.12.332-.18.726-.18 1.182 0 .404.054.776.162 1.116.108.34.28.612.516.816.24.204.554.306.942.306Zm6.407.99a3.14 3.14 0 0 1-.894-.138 2.344 2.344 0 0 1-.762-.396 1.965 1.965 0 0 1-.528-.654 2.027 2.027 0 0 1-.192-.906v-4.23h1.29v4.092c0 .372.116.674.348.906.232.232.582.348 1.05.348.424 0 .764-.11 1.02-.33.256-.224.384-.55.384-.978v-4.038h1.278V20h-.996l-.144-1.2c-.072.324-.202.584-.39.78a1.638 1.638 0 0 1-.66.42c-.252.084-.52.124-.804.12Zm4.689-.12v-6.204h1.23v1.272a2.17 2.17 0 0 1 .432-.762 1.947 1.947 0 0 1 1.68-.612.487.487 0 0 1 .18.048v1.236a.637.637 0 0 0-.204-.048 6.469 6.469 0 0 0-.21-.018 2.63 2.63 0 0 0-.744.042 1.623 1.623 0 0 0-.582.24c-.16.112-.284.258-.372.438-.084.18-.126.392-.126.636V20h-1.284Zm9.793.12c-.58 0-1.086-.124-1.518-.372a2.567 2.567 0 0 1-1.008-1.092c-.24-.476-.36-1.052-.36-1.728 0-.652.114-1.222.342-1.71a2.6 2.6 0 0 1 .984-1.134c.432-.272.954-.408 1.566-.408.584 0 1.09.128 1.518.384.428.252.76.622.996 1.11.236.484.354 1.07.354 1.758 0 .628-.11 1.182-.33 1.662-.22.48-.544.856-.972 1.128-.424.268-.948.402-1.572.402Zm.006-.99c.356 0 .652-.092.888-.276.236-.188.414-.45.534-.786.12-.34.18-.732.18-1.176 0-.412-.054-.786-.162-1.122a1.672 1.672 0 0 0-.51-.81c-.232-.2-.542-.3-.93-.3-.356 0-.656.092-.9.276-.24.18-.42.438-.54.774-.12.332-.18.726-.18 1.182 0 .404.054.776.162 1.116.108.34.28.612.516.816.24.204.554.306.942.306Zm4.15.87v-6.204h1.23v1.272a2.17 2.17 0 0 1 .432-.762 1.947 1.947 0 0 1 1.68-.612.487.487 0 0 1 .18.048v1.236a.637.637 0 0 0-.204-.048 6.469 6.469 0 0 0-.21-.018 2.63 2.63 0 0 0-.744.042 1.623 1.623 0 0 0-.582.24c-.16.112-.284.258-.372.438-.084.18-.126.392-.126.636V20h-1.284Zm4.668 0v-6.204h1.236V20h-1.236Zm-.03-7.404V11.33h1.29v1.266h-1.29Zm5.586 9.456c-1.008 0-1.788-.142-2.34-.426-.552-.28-.828-.672-.828-1.176 0-.22.052-.406.156-.558.108-.156.234-.284.378-.384.148-.1.284-.178.408-.234.124-.06.204-.102.24-.126-.068-.04-.156-.09-.264-.15a1.112 1.112 0 0 1-.282-.252.664.664 0 0 1-.126-.42c0-.2.094-.384.282-.552.192-.172.48-.298.864-.378a2.171 2.171 0 0 1-.876-.744 1.764 1.764 0 0 1-.312-.996c0-.404.114-.752.342-1.044.228-.296.548-.522.96-.678.416-.156.904-.234 1.464-.234.412 0 .754.046 1.026.138.276.092.53.22.762.384.076-.028.184-.07.324-.126l.468-.192c.168-.068.328-.134.48-.198l.378-.156-.006 1.116-1.08.198c.056.12.1.252.132.396.036.144.054.276.054.396 0 .36-.098.692-.294.996-.196.3-.49.54-.882.72-.392.18-.882.27-1.47.27h-.216a2.624 2.624 0 0 1-.222-.018c-.372.012-.628.056-.768.132-.14.072-.21.152-.21.24 0 .112.09.188.27.228.18.04.476.074.888.102.148.012.336.024.564.036.232.012.488.028.768.048.68.04 1.198.21 1.554.51.36.3.54.698.54 1.194 0 .568-.258 1.032-.774 1.392-.516.364-1.3.546-2.352.546Zm.222-.786c.548 0 .962-.08 1.242-.24.28-.156.42-.39.42-.702a.705.705 0 0 0-.27-.57c-.18-.148-.45-.234-.81-.258l-1.656-.108a1 1 0 0 0-.492.108c-.16.08-.292.192-.396.336a.766.766 0 0 0-.156.468c0 .312.172.55.516.714.344.168.878.252 1.602.252Zm-.228-4.41c.416 0 .75-.1 1.002-.3.256-.204.384-.496.384-.876 0-.392-.128-.694-.384-.906-.252-.216-.586-.324-1.002-.324-.42 0-.76.108-1.02.324-.256.216-.384.518-.384.906 0 .368.122.656.366.864.248.208.594.312 1.038.312Zm4.71 3.144v-6.204h1.236V20h-1.236Zm-.03-7.404V11.33h1.29v1.266h-1.29ZM424.766 20v-6.204h1.254v.894c.1-.168.234-.326.402-.474.172-.148.382-.268.63-.36a2.53 2.53 0 0 1 .87-.138c.388 0 .746.078 1.074.234.332.152.598.392.798.72.2.324.3.744.3 1.26V20h-1.284v-3.93c0-.444-.12-.774-.36-.99-.236-.216-.542-.324-.918-.324-.252 0-.492.042-.72.126a1.253 1.253 0 0 0-.552.384.96.96 0 0 0-.21.636V20h-1.284Zm8.599.12c-.4 0-.756-.072-1.068-.216a1.702 1.702 0 0 1-.726-.624c-.176-.272-.264-.6-.264-.984 0-.688.242-1.202.726-1.542.488-.34 1.268-.52 2.34-.54l1.02-.03v-.45c0-.356-.106-.636-.318-.84-.212-.204-.54-.304-.984-.3-.328 0-.622.076-.882.228-.26.152-.43.402-.51.75h-1.11c.024-.412.142-.758.354-1.038.216-.284.512-.498.888-.642.376-.144.816-.216 1.32-.216.568 0 1.034.078 1.398.234.364.152.634.376.81.672.18.296.27.656.27 1.08V20h-1.092l-.096-1.14c-.232.476-.526.806-.882.99-.356.18-.754.27-1.194.27Zm.402-.894c.196 0 .39-.034.582-.102.192-.072.366-.168.522-.288.156-.124.28-.262.372-.414a.91.91 0 0 0 .15-.468v-1.026l-.84.018a4.246 4.246 0 0 0-1.092.132c-.296.084-.524.214-.684.39-.156.176-.234.41-.234.702 0 .332.114.592.342.78.232.184.526.276.882.276Zm6.068.858c-.368 0-.664-.048-.888-.144a1.193 1.193 0 0 1-.504-.384 1.416 1.416 0 0 1-.234-.552 3.758 3.758 0 0 1-.054-.642v-7.278h1.266v7.146c0 .288.056.508.168.66.116.152.292.238.528.258l.324.012v.816a2.54 2.54 0 0 1-.312.078 1.56 1.56 0 0 1-.294.03ZM374.213 34v-6.204h1.23v1.272a2.17 2.17 0 0 1 .432-.762 1.947 1.947 0 0 1 1.68-.612.487.487 0 0 1 .18.048v1.236a.637.637 0 0 0-.204-.048 6.469 6.469 0 0 0-.21-.018 2.63 2.63 0 0 0-.744.042 1.623 1.623 0 0 0-.582.24c-.16.112-.284.258-.372.438-.084.18-.126.392-.126.636V34h-1.284Zm7.256.12c-.588 0-1.106-.126-1.554-.378a2.683 2.683 0 0 1-1.05-1.092c-.248-.472-.372-1.034-.372-1.686 0-.644.114-1.212.342-1.704a2.69 2.69 0 0 1 .99-1.164c.432-.28.952-.42 1.56-.42.596 0 1.1.128 1.512.384.412.256.724.616.936 1.08.212.46.318 1.004.318 1.632v.426h-4.368a2.5 2.5 0 0 0 .18 1.002c.124.292.308.524.552.696.248.168.556.252.924.252.372 0 .692-.084.96-.252.272-.168.45-.418.534-.75h1.188a2.093 2.093 0 0 1-.51 1.08 2.6 2.6 0 0 1-.966.672 3.182 3.182 0 0 1-1.176.222Zm-1.686-3.756h3.144c0-.324-.056-.618-.168-.882a1.36 1.36 0 0 0-.516-.63c-.228-.156-.516-.234-.864-.234-.356 0-.652.086-.888.258a1.624 1.624 0 0 0-.534.66 2.065 2.065 0 0 0-.174.828Zm7.39 3.72c-.368 0-.664-.048-.888-.144a1.193 1.193 0 0 1-.504-.384 1.416 1.416 0 0 1-.234-.552 3.758 3.758 0 0 1-.054-.642v-7.278h1.266v7.146c0 .288.056.508.168.66.116.152.292.238.528.258l.324.012v.816a2.54 2.54 0 0 1-.312.078 1.56 1.56 0 0 1-.294.03Zm4.286.036c-.588 0-1.106-.126-1.554-.378a2.683 2.683 0 0 1-1.05-1.092c-.248-.472-.372-1.034-.372-1.686 0-.644.114-1.212.342-1.704a2.69 2.69 0 0 1 .99-1.164c.432-.28.952-.42 1.56-.42.596 0 1.1.128 1.512.384.412.256.724.616.936 1.08.212.46.318 1.004.318 1.632v.426h-4.368a2.5 2.5 0 0 0 .18 1.002c.124.292.308.524.552.696.248.168.556.252.924.252.372 0 .692-.084.96-.252.272-.168.45-.418.534-.75h1.188a2.093 2.093 0 0 1-.51 1.08 2.6 2.6 0 0 1-.966.672 3.182 3.182 0 0 1-1.176.222Zm-1.686-3.756h3.144c0-.324-.056-.618-.168-.882a1.36 1.36 0 0 0-.516-.63c-.228-.156-.516-.234-.864-.234-.356 0-.652.086-.888.258a1.624 1.624 0 0 0-.534.66 2.065 2.065 0 0 0-.174.828Zm7.41 3.756c-.4 0-.756-.072-1.068-.216a1.702 1.702 0 0 1-.726-.624c-.176-.272-.264-.6-.264-.984 0-.688.242-1.202.726-1.542.488-.34 1.268-.52 2.34-.54l1.02-.03v-.45c0-.356-.106-.636-.318-.84-.212-.204-.54-.304-.984-.3-.328 0-.622.076-.882.228-.26.152-.43.402-.51.75h-1.11c.024-.412.142-.758.354-1.038.216-.284.512-.498.888-.642.376-.144.816-.216 1.32-.216.568 0 1.034.078 1.398.234.364.152.634.376.81.672.18.296.27.656.27 1.08V34h-1.092l-.096-1.14c-.232.476-.526.806-.882.99-.356.18-.754.27-1.194.27Zm.402-.894c.196 0 .39-.034.582-.102.192-.072.366-.168.522-.288.156-.124.28-.262.372-.414a.91.91 0 0 0 .15-.468v-1.026l-.84.018a4.246 4.246 0 0 0-1.092.132c-.296.084-.524.214-.684.39-.156.176-.234.41-.234.702 0 .332.114.592.342.78.232.184.526.276.882.276Zm6.639.894c-.432 0-.838-.068-1.218-.204a2.26 2.26 0 0 1-.948-.642c-.252-.292-.41-.666-.474-1.122h1.146c.052.236.15.432.294.588.148.152.324.266.528.342.208.072.43.108.666.108.392 0 .71-.07.954-.21.244-.144.366-.364.366-.66a.678.678 0 0 0-.198-.51c-.132-.128-.338-.222-.618-.282l-1.236-.294c-.512-.12-.922-.31-1.23-.57-.308-.264-.464-.632-.468-1.104 0-.364.09-.688.27-.972.184-.284.456-.506.816-.666.364-.164.812-.246 1.344-.246.7 0 1.262.156 1.686.468.428.312.648.764.66 1.356h-1.11a.952.952 0 0 0-.39-.666c-.216-.164-.502-.246-.858-.246-.368 0-.67.074-.906.222-.236.144-.354.366-.354.666 0 .204.086.366.258.486.176.116.434.212.774.288l1.176.294c.304.08.554.186.75.318.196.128.35.27.462.426.112.156.19.318.234.486.048.168.072.326.072.474 0 .392-.1.728-.3 1.008-.196.276-.476.49-.84.642-.364.148-.8.222-1.308.222Zm6.399 0c-.588 0-1.106-.126-1.554-.378a2.683 2.683 0 0 1-1.05-1.092c-.248-.472-.372-1.034-.372-1.686 0-.644.114-1.212.342-1.704a2.69 2.69 0 0 1 .99-1.164c.432-.28.952-.42 1.56-.42.596 0 1.1.128 1.512.384.412.256.724.616.936 1.08.212.46.318 1.004.318 1.632v.426h-4.368a2.5 2.5 0 0 0 .18 1.002c.124.292.308.524.552.696.248.168.556.252.924.252.372 0 .692-.084.96-.252.272-.168.45-.418.534-.75h1.188a2.093 2.093 0 0 1-.51 1.08 2.6 2.6 0 0 1-.966.672 3.182 3.182 0 0 1-1.176.222Zm-1.686-3.756h3.144c0-.324-.056-.618-.168-.882a1.36 1.36 0 0 0-.516-.63c-.228-.156-.516-.234-.864-.234-.356 0-.652.086-.888.258a1.624 1.624 0 0 0-.534.66 2.065 2.065 0 0 0-.174.828Zm10.536 3.756c-.812 0-1.454-.278-1.926-.834-.468-.56-.702-1.366-.702-2.418 0-.644.094-1.204.282-1.68.192-.48.474-.852.846-1.116.372-.264.836-.396 1.392-.396.276 0 .524.034.744.102.22.068.412.156.576.264.164.108.302.224.414.348.112.124.196.24.252.348v-3.654h1.296V34h-.966l-.144-1.272a2.365 2.365 0 0 1-.204.444 1.82 1.82 0 0 1-.972.81c-.244.092-.54.138-.888.138Zm.246-.966c.576 0 .992-.18 1.248-.54.256-.364.384-.96.384-1.788-.004-.468-.062-.864-.174-1.188-.108-.324-.28-.568-.516-.732-.232-.168-.538-.252-.918-.252a1.49 1.49 0 0 0-1.17.516c-.3.34-.45.892-.45 1.656 0 .752.136 1.328.408 1.728.276.4.672.6 1.188.6Zm6.313.966c-.4 0-.756-.072-1.068-.216a1.702 1.702 0 0 1-.726-.624c-.176-.272-.264-.6-.264-.984 0-.688.242-1.202.726-1.542.488-.34 1.268-.52 2.34-.54l1.02-.03v-.45c0-.356-.106-.636-.318-.84-.212-.204-.54-.304-.984-.3-.328 0-.622.076-.882.228-.26.152-.43.402-.51.75h-1.11c.024-.412.142-.758.354-1.038.216-.284.512-.498.888-.642.376-.144.816-.216 1.32-.216.568 0 1.034.078 1.398.234.364.152.634.376.81.672.18.296.27.656.27 1.08V34h-1.092l-.096-1.14c-.232.476-.526.806-.882.99-.356.18-.754.27-1.194.27Zm.402-.894c.196 0 .39-.034.582-.102.192-.072.366-.168.522-.288.156-.124.28-.262.372-.414a.91.91 0 0 0 .15-.468v-1.026l-.84.018a4.246 4.246 0 0 0-1.092.132c-.296.084-.524.214-.684.39-.156.176-.234.41-.234.702 0 .332.114.592.342.78.232.184.526.276.882.276Zm6.512.816c-.46 0-.816-.062-1.068-.186a1.055 1.055 0 0 1-.528-.534c-.1-.236-.15-.52-.15-.852v-3.75h-1.008v-.924h1.05l.312-1.824h.936v1.818h1.392v.93h-1.392l.006 3.702c0 .204.02.354.06.45a.326.326 0 0 0 .216.18c.104.024.244.036.42.036h.72v.834c-.076.032-.194.06-.354.084-.156.024-.36.036-.612.036Zm4.78.078c-.588 0-1.106-.126-1.554-.378a2.683 2.683 0 0 1-1.05-1.092c-.248-.472-.372-1.034-.372-1.686 0-.644.114-1.212.342-1.704a2.69 2.69 0 0 1 .99-1.164c.432-.28.952-.42 1.56-.42.596 0 1.1.128 1.512.384.412.256.724.616.936 1.08.212.46.318 1.004.318 1.632v.426h-4.368a2.5 2.5 0 0 0 .18 1.002c.124.292.308.524.552.696.248.168.556.252.924.252.372 0 .692-.084.96-.252.272-.168.45-.418.534-.75h1.188a2.093 2.093 0 0 1-.51 1.08 2.6 2.6 0 0 1-.966.672 3.182 3.182 0 0 1-1.176.222Zm-1.686-3.756h3.144c0-.324-.056-.618-.168-.882a1.36 1.36 0 0 0-.516-.63c-.228-.156-.516-.234-.864-.234-.356 0-.652.086-.888.258a1.624 1.624 0 0 0-.534.66 2.065 2.065 0 0 0-.174.828Z"/><rect width="318" height="56" x="7" y="49" fill="#003331" rx="4"/><rect width="317" height="55" x="7.5" y="49.5" stroke="#012322" stroke-opacity=".2" rx="3.5"/><path fill="#fff" d="m89.525 82 3.654-10.122h1.652L98.478 82h-1.512l-.952-2.653h-4.011L91.044 82h-1.519Zm2.849-4.011h3.248l-1.624-4.655-1.624 4.655Zm9.984 4.151c-.947 0-1.696-.324-2.247-.973-.546-.653-.819-1.594-.819-2.821 0-.751.11-1.405.33-1.96.223-.56.552-.994.986-1.302.434-.308.976-.462 1.624-.462.322 0 .612.04.868.119.257.08.481.182.672.308.192.126.353.261.483.406.131.145.229.28.294.406v-4.263h1.512V82h-1.127l-.168-1.484c-.051.159-.13.331-.238.518a2.034 2.034 0 0 1-.434.532 2.118 2.118 0 0 1-.7.413c-.284.107-.63.161-1.036.161Zm.287-1.127c.672 0 1.158-.21 1.456-.63.299-.425.448-1.12.448-2.086-.004-.546-.072-1.008-.203-1.386-.126-.378-.326-.663-.602-.854-.27-.196-.627-.294-1.071-.294-.555 0-1.01.2-1.365.602-.35.397-.525 1.04-.525 1.932 0 .877.159 1.55.476 2.016.322.467.784.7 1.386.7Zm4.902 3.311c-.387 0-.635-.03-.742-.091l-.168-.084v-1.001l.672-.042c.313-.028.532-.112.658-.252.131-.14.196-.364.196-.672v-7.42h1.498v7.462c0 .705-.159 1.23-.476 1.575-.317.35-.863.525-1.638.525Zm.574-10.962v-1.477h1.568v1.477h-1.568Zm6.118 8.778a3.668 3.668 0 0 1-1.043-.161 2.746 2.746 0 0 1-.889-.462 2.3 2.3 0 0 1-.616-.763 2.37 2.37 0 0 1-.224-1.057v-4.935h1.505v4.774c0 .434.136.786.406 1.057.271.27.679.406 1.225.406.495 0 .892-.128 1.19-.385.299-.261.448-.642.448-1.141v-4.711h1.491V82h-1.162l-.168-1.4c-.084.378-.235.681-.455.91a1.904 1.904 0 0 1-.77.49 2.816 2.816 0 0 1-.938.14Zm8.085 0c-.504 0-.978-.08-1.421-.238a2.631 2.631 0 0 1-1.106-.749c-.294-.34-.479-.777-.553-1.309h1.337c.06.275.175.504.343.686.172.177.378.31.616.399.242.084.501.126.777.126.457 0 .828-.082 1.113-.245.284-.168.427-.425.427-.77 0-.247-.077-.446-.231-.595-.154-.15-.395-.259-.721-.329l-1.442-.343c-.598-.14-1.076-.362-1.435-.665-.36-.308-.542-.737-.546-1.288 0-.425.105-.803.315-1.134.214-.331.532-.59.952-.777.424-.191.947-.287 1.568-.287.816 0 1.472.182 1.967.546.499.364.756.891.77 1.582h-1.295a1.114 1.114 0 0 0-.455-.777c-.252-.191-.586-.287-1.001-.287-.43 0-.782.086-1.057.259-.276.168-.413.427-.413.777 0 .238.1.427.301.567.205.135.506.247.903.336l1.372.343c.354.093.646.217.875.371.228.15.408.315.539.497.13.182.221.371.273.567.056.196.084.38.084.553 0 .457-.117.85-.35 1.176-.229.322-.556.572-.98.749-.425.173-.934.259-1.526.259Zm6.985-.091c-.537 0-.952-.072-1.246-.217a1.232 1.232 0 0 1-.616-.623c-.117-.275-.175-.607-.175-.994V75.84h-1.176v-1.078h1.225l.364-2.128h1.092v2.121h1.624v1.085h-1.624l.007 4.319c0 .238.023.413.07.525a.379.379 0 0 0 .252.21c.121.028.285.042.49.042h.84v.973a1.85 1.85 0 0 1-.413.098 4.88 4.88 0 0 1-.714.042Zm5.576.091c-.686 0-1.29-.147-1.813-.441a3.135 3.135 0 0 1-1.225-1.274c-.289-.55-.434-1.206-.434-1.967 0-.751.133-1.414.399-1.988a3.138 3.138 0 0 1 1.155-1.358c.504-.327 1.111-.49 1.82-.49.696 0 1.284.15 1.764.448.481.299.845.719 1.092 1.26.248.537.371 1.171.371 1.904v.497h-5.096a2.94 2.94 0 0 0 .21 1.169c.145.34.36.611.644.812.29.196.649.294 1.078.294.434 0 .808-.098 1.12-.294a1.38 1.38 0 0 0 .623-.875h1.386a2.44 2.44 0 0 1-.595 1.26 3.025 3.025 0 0 1-1.127.784 3.71 3.71 0 0 1-1.372.259Zm-1.967-4.382h3.668c0-.378-.065-.721-.196-1.029a1.58 1.58 0 0 0-.602-.735c-.266-.182-.602-.273-1.008-.273-.415 0-.76.1-1.036.301-.275.2-.483.457-.623.77a2.415 2.415 0 0 0-.203.966Zm9.329 4.382c-.947 0-1.696-.324-2.247-.973-.546-.653-.819-1.594-.819-2.821 0-.751.11-1.405.329-1.96.224-.56.553-.994.987-1.302.434-.308.975-.462 1.624-.462.322 0 .611.04.868.119.257.08.481.182.672.308.191.126.352.261.483.406.131.145.229.28.294.406v-4.263h1.512V82h-1.127l-.168-1.484a2.76 2.76 0 0 1-.238.518 2.054 2.054 0 0 1-.434.532 2.118 2.118 0 0 1-.7.413c-.285.107-.63.161-1.036.161Zm.287-1.127c.672 0 1.157-.21 1.456-.63.299-.425.448-1.12.448-2.086-.005-.546-.072-1.008-.203-1.386-.126-.378-.327-.663-.602-.854-.271-.196-.628-.294-1.071-.294-.555 0-1.01.2-1.365.602-.35.397-.525 1.04-.525 1.932 0 .877.159 1.55.476 2.016.322.467.784.7 1.386.7Zm8.762.987V71.878c.038 0 .147.002.329.007h.672c.262-.005.528-.005.798 0 .276 0 .521.002.735.007 1.237.019 2.243.224 3.017.616.775.392 1.342.957 1.701 1.694.364.733.546 1.626.546 2.681 0 1.097-.193 2.028-.581 2.793-.387.76-.98 1.34-1.778 1.736-.793.392-1.799.588-3.017.588h-2.422Zm1.526-1.26h.91c.766 0 1.431-.124 1.995-.371a2.761 2.761 0 0 0 1.323-1.218c.313-.565.469-1.318.469-2.261 0-.924-.149-1.659-.448-2.205a2.578 2.578 0 0 0-1.288-1.183c-.555-.243-1.225-.364-2.009-.364h-.952v7.602Zm12.064 1.4c-.919 0-1.715-.203-2.387-.609-.667-.41-1.183-1.001-1.547-1.771-.359-.775-.539-1.708-.539-2.8 0-1.101.182-2.04.546-2.814.369-.78.887-1.374 1.554-1.785.672-.415 1.463-.623 2.373-.623.905 0 1.689.208 2.352.623.667.41 1.181 1.006 1.54 1.785.364.775.546 1.713.546 2.814 0 1.092-.18 2.023-.539 2.793-.359.77-.873 1.36-1.54 1.771-.663.41-1.449.616-2.359.616Zm0-1.281c.588 0 1.09-.135 1.505-.406.42-.27.74-.693.959-1.267.219-.574.329-1.309.329-2.205 0-.92-.112-1.67-.336-2.254-.219-.583-.539-1.013-.959-1.288-.415-.28-.915-.42-1.498-.42s-1.087.14-1.512.42c-.42.28-.744.712-.973 1.295-.229.583-.343 1.332-.343 2.247 0 .9.114 1.638.343 2.212.229.57.553.99.973 1.26.425.27.929.406 1.512.406Zm10.084 1.281c-.914 0-1.698-.21-2.352-.63-.653-.425-1.155-1.027-1.505-1.806-.345-.784-.518-1.722-.518-2.814 0-1.087.173-2.014.518-2.779.346-.77.845-1.358 1.498-1.764.654-.406 1.44-.609 2.359-.609.728 0 1.375.15 1.939.448.565.299 1.018.7 1.358 1.204.346.504.551 1.062.616 1.673h-1.596a2.793 2.793 0 0 0-.406-1.036 2.079 2.079 0 0 0-.784-.735c-.326-.182-.714-.273-1.162-.273-.574 0-1.061.135-1.463.406-.401.27-.707.693-.917 1.267-.205.574-.308 1.314-.308 2.219 0 1.367.231 2.368.693 3.003.462.63 1.127.945 1.995.945.448 0 .836-.096 1.162-.287a2.27 2.27 0 0 0 .784-.777c.201-.327.336-.681.406-1.064h1.596c-.056.443-.172.87-.35 1.281-.177.406-.424.77-.742 1.092a3.315 3.315 0 0 1-1.169.763c-.466.182-1.017.273-1.652.273Zm11.404 0c-.504 0-.977-.08-1.421-.238a2.644 2.644 0 0 1-1.106-.749c-.294-.34-.478-.777-.553-1.309h1.337c.061.275.175.504.343.686.173.177.378.31.616.399.243.084.502.126.777.126.458 0 .829-.082 1.113-.245.285-.168.427-.425.427-.77 0-.247-.077-.446-.231-.595-.154-.15-.394-.259-.721-.329l-1.442-.343c-.597-.14-1.075-.362-1.435-.665-.359-.308-.541-.737-.546-1.288 0-.425.105-.803.315-1.134.215-.331.532-.59.952-.777.425-.191.948-.287 1.568-.287.817 0 1.473.182 1.967.546.5.364.756.891.77 1.582h-1.295a1.107 1.107 0 0 0-.455-.777c-.252-.191-.585-.287-1.001-.287-.429 0-.781.086-1.057.259-.275.168-.413.427-.413.777 0 .238.101.427.301.567.206.135.507.247.903.336l1.372.343c.355.093.647.217.875.371.229.15.409.315.539.497.131.182.222.371.273.567.056.196.084.38.084.553 0 .457-.116.85-.35 1.176-.228.322-.555.572-.98.749-.424.173-.933.259-1.526.259Zm7.465 0c-.686 0-1.29-.147-1.813-.441a3.135 3.135 0 0 1-1.225-1.274c-.289-.55-.434-1.206-.434-1.967 0-.751.133-1.414.399-1.988a3.138 3.138 0 0 1 1.155-1.358c.504-.327 1.111-.49 1.82-.49.696 0 1.284.15 1.764.448.481.299.845.719 1.092 1.26.248.537.371 1.171.371 1.904v.497h-5.096a2.94 2.94 0 0 0 .21 1.169c.145.34.36.611.644.812.29.196.649.294 1.078.294.434 0 .808-.098 1.12-.294a1.38 1.38 0 0 0 .623-.875h1.386a2.44 2.44 0 0 1-.595 1.26 3.025 3.025 0 0 1-1.127.784 3.71 3.71 0 0 1-1.372.259Zm-1.967-4.382h3.668c0-.378-.065-.721-.196-1.029a1.58 1.58 0 0 0-.602-.735c-.266-.182-.602-.273-1.008-.273-.415 0-.76.1-1.036.301-.275.2-.483.457-.623.77a2.415 2.415 0 0 0-.203.966ZM198.534 82v-7.238h1.463v1.043c.117-.196.273-.38.469-.553.201-.173.446-.313.735-.42a2.95 2.95 0 0 1 1.015-.161c.453 0 .87.091 1.253.273.387.177.698.457.931.84.233.378.35.868.35 1.47V82h-1.498v-4.585c0-.518-.14-.903-.42-1.155-.275-.252-.632-.378-1.071-.378a2.41 2.41 0 0 0-.84.147 1.46 1.46 0 0 0-.644.448c-.163.196-.245.443-.245.742V82h-1.498Zm10.473.049c-.537 0-.952-.072-1.246-.217a1.232 1.232 0 0 1-.616-.623c-.117-.275-.175-.607-.175-.994V75.84h-1.176v-1.078h1.225l.364-2.128h1.092v2.121h1.624v1.085h-1.624l.007 4.319c0 .238.023.413.07.525a.379.379 0 0 0 .252.21c.121.028.285.042.49.042h.84v.973a1.85 1.85 0 0 1-.413.098 4.88 4.88 0 0 1-.714.042Zm5.577.091c-.686 0-1.291-.147-1.813-.441a3.128 3.128 0 0 1-1.225-1.274c-.29-.55-.434-1.206-.434-1.967 0-.751.133-1.414.399-1.988a3.138 3.138 0 0 1 1.155-1.358c.504-.327 1.11-.49 1.82-.49.695 0 1.283.15 1.764.448.48.299.844.719 1.092 1.26.247.537.371 1.171.371 1.904v.497h-5.096c-.005.434.065.824.21 1.169.144.34.359.611.644.812.289.196.648.294 1.078.294.434 0 .807-.098 1.12-.294.317-.196.525-.488.623-.875h1.386a2.447 2.447 0 0 1-.595 1.26 3.041 3.041 0 0 1-1.127.784 3.713 3.713 0 0 1-1.372.259Zm-1.967-4.382h3.668c0-.378-.066-.721-.196-1.029a1.592 1.592 0 0 0-.602-.735c-.266-.182-.602-.273-1.008-.273-.416 0-.761.1-1.036.301a1.89 1.89 0 0 0-.623.77 2.398 2.398 0 0 0-.203.966ZM219.278 82v-7.238h1.463v1.043c.117-.196.273-.38.469-.553.201-.173.446-.313.735-.42a2.954 2.954 0 0 1 1.015-.161c.453 0 .871.091 1.253.273.388.177.698.457.931.84.234.378.35.868.35 1.47V82h-1.498v-4.585c0-.518-.14-.903-.42-1.155-.275-.252-.632-.378-1.071-.378a2.41 2.41 0 0 0-.84.147c-.266.098-.48.247-.644.448-.163.196-.245.443-.245.742V82h-1.498Zm10.97.14c-.653 0-1.234-.142-1.743-.427a3.02 3.02 0 0 1-1.197-1.267c-.289-.56-.434-1.239-.434-2.037 0-.751.133-1.412.399-1.981a3.11 3.11 0 0 1 1.162-1.33c.504-.317 1.108-.476 1.813-.476.546 0 1.029.107 1.449.322.42.21.761.504 1.022.882.266.378.427.819.483 1.323H231.9a1.607 1.607 0 0 0-.266-.665 1.516 1.516 0 0 0-.553-.49 1.674 1.674 0 0 0-.819-.189c-.583 0-1.057.212-1.421.637-.364.425-.546 1.076-.546 1.953 0 .803.17 1.442.511 1.918.341.476.833.714 1.477.714.317 0 .59-.065.819-.196.229-.13.411-.299.546-.504.14-.205.229-.418.266-.637h1.274a2.673 2.673 0 0 1-1.505 2.142c-.42.205-.898.308-1.435.308Zm7.609 0c-.686 0-1.29-.147-1.813-.441a3.128 3.128 0 0 1-1.225-1.274c-.289-.55-.434-1.206-.434-1.967 0-.751.133-1.414.399-1.988a3.138 3.138 0 0 1 1.155-1.358c.504-.327 1.111-.49 1.82-.49.695 0 1.283.15 1.764.448.481.299.845.719 1.092 1.26.247.537.371 1.171.371 1.904v.497h-5.096c-.005.434.065.824.21 1.169.145.34.359.611.644.812.289.196.649.294 1.078.294.434 0 .807-.098 1.12-.294.317-.196.525-.488.623-.875h1.386a2.44 2.44 0 0 1-.595 1.26 3.033 3.033 0 0 1-1.127.784 3.713 3.713 0 0 1-1.372.259Zm-1.967-4.382h3.668c0-.378-.065-.721-.196-1.029a1.586 1.586 0 0 0-.602-.735c-.266-.182-.602-.273-1.008-.273-.415 0-.761.1-1.036.301-.275.2-.483.457-.623.77a2.415 2.415 0 0 0-.203.966Z"/></svg>