<svg width="20" height="20" viewBox="0 0 20 20" fill="none" xmlns="http://www.w3.org/2000/svg">
<path d="M16.6673 10.8324V8.87994C16.6673 8.19827 16.6673 7.85827 16.5407 7.55161C16.414 7.24577 16.1732 7.00494 15.6907 6.52244L11.744 2.57577C11.3282 2.15994 11.1207 1.95244 10.8623 1.8291C10.8089 1.80342 10.7541 1.78061 10.6982 1.76077C10.429 1.66577 10.1348 1.66577 9.54732 1.66577C6.84315 1.66577 5.49065 1.66577 4.57482 2.4041C4.38989 2.55322 4.22143 2.72168 4.07232 2.9066C3.33398 3.82327 3.33398 5.17494 3.33398 7.87911V10.8324M10.834 2.08244V2.4991C10.834 4.85577 10.834 6.03494 11.5665 6.7666C12.2982 7.49994 13.4773 7.49994 15.834 7.49994H16.2507" stroke="#006C67" stroke-width="1.25" stroke-linecap="round" stroke-linejoin="round"/>
<path d="M14.3086 18.0112L13.333 15.1636C13.2935 15.0493 13.2715 14.9526 13.2715 14.856C13.2715 14.5396 13.5132 14.3066 13.8516 14.3066C14.168 14.3066 14.3657 14.4912 14.4492 14.856L15.2754 17.9673H15.3237L16.229 14.8604C16.3257 14.4824 16.5146 14.3066 16.8135 14.3066C17.1387 14.3066 17.3716 14.5352 17.3716 14.8516C17.3716 14.9438 17.354 15.0405 17.3057 15.168L16.2817 18.0112C15.9829 18.855 15.7983 19.0439 15.3062 19.0439C14.7788 19.0439 14.5898 18.8506 14.3086 18.0112Z" fill="#006C67"/>
<path d="M11.582 18.4067C11.3447 18.8242 10.8833 19.0615 10.312 19.0615C9.40234 19.0615 8.78711 18.4902 8.78711 17.6421C8.78711 16.7808 9.42432 16.249 10.4834 16.249H11.5908V15.8667C11.5908 15.3965 11.2964 15.1504 10.7646 15.1504C10.4131 15.1504 10.1626 15.2822 9.90332 15.5151C9.77148 15.6206 9.64844 15.6689 9.45947 15.6689C9.20459 15.6689 9.04639 15.4976 9.04639 15.2603C9.04639 14.9878 9.23535 14.7109 9.64404 14.5044C9.93848 14.3506 10.3296 14.2627 10.8394 14.2627C12.061 14.2627 12.7466 14.8428 12.7466 15.8755V18.4243C12.7466 18.8198 12.5444 19.0439 12.1841 19.0439C11.8765 19.0439 11.6743 18.8726 11.6392 18.5693V18.4067H11.582ZM9.93848 17.5718C9.93848 17.9585 10.2461 18.2266 10.6987 18.2266C11.1997 18.2266 11.5908 17.8838 11.5908 17.4443V16.9609H10.6943C10.2197 16.9609 9.93848 17.1895 9.93848 17.5718Z" fill="#006C67"/>
<path d="M2.84814 18.1211L2.04395 15.1504C2.01318 15.0142 2 14.9351 2 14.8647C2 14.5352 2.2373 14.3066 2.58887 14.3066C2.8877 14.3066 3.08984 14.5088 3.15137 14.8779L3.73145 17.7959H3.78418L4.48291 15.0449C4.61475 14.5 4.80811 14.3066 5.19043 14.3066C5.57715 14.3066 5.7749 14.5088 5.91553 15.0449L6.62305 17.7959H6.67578L7.28662 14.8823C7.35693 14.5176 7.55908 14.3066 7.84473 14.3066C8.19189 14.3066 8.41162 14.5264 8.41162 14.8384C8.41162 14.9087 8.39404 15.0098 8.35889 15.1416L7.5459 18.1211C7.35254 18.8198 7.13281 19.0439 6.72412 19.0439C6.28906 19.0439 6.06055 18.8242 5.88477 18.1211L5.2124 15.6733H5.17285L4.51807 18.1211C4.34229 18.8242 4.13135 19.0439 3.69189 19.0439C3.26123 19.0439 3.02832 18.8066 2.84814 18.1211Z" fill="#006C67"/>
</svg>
