<svg width="20" height="20" viewBox="0 0 20 20" fill="none" xmlns="http://www.w3.org/2000/svg">
<path d="M16.6673 10.8324V8.87994C16.6673 8.19827 16.6673 7.85827 16.5407 7.55161C16.414 7.24577 16.1732 7.00494 15.6907 6.52244L11.744 2.57577C11.3282 2.15994 11.1207 1.95244 10.8623 1.8291C10.8089 1.80342 10.7541 1.78061 10.6982 1.76077C10.429 1.66577 10.1348 1.66577 9.54732 1.66577C6.84315 1.66577 5.49065 1.66577 4.57482 2.4041C4.38989 2.55322 4.22143 2.72168 4.07232 2.9066C3.33398 3.82327 3.33398 5.17494 3.33398 7.87911V10.8324M10.834 2.08244V2.4991C10.834 4.85577 10.834 6.03494 11.5665 6.7666C12.2982 7.49994 13.4773 7.49994 15.834 7.49994H16.2507" stroke="#006C67" stroke-width="1.25" stroke-linecap="round" stroke-linejoin="round"/>
<path d="M17.3652 18.4067C17.1279 18.8242 16.6665 19.0615 16.0952 19.0615C15.1855 19.0615 14.5703 18.4902 14.5703 17.6421C14.5703 16.7808 15.2075 16.249 16.2666 16.249H17.374V15.8667C17.374 15.3965 17.0796 15.1504 16.5479 15.1504C16.1963 15.1504 15.9458 15.2822 15.6865 15.5151C15.5547 15.6206 15.4316 15.6689 15.2427 15.6689C14.9878 15.6689 14.8296 15.4976 14.8296 15.2603C14.8296 14.9878 15.0186 14.7109 15.4272 14.5044C15.7217 14.3506 16.1128 14.2627 16.6226 14.2627C17.8442 14.2627 18.5298 14.8428 18.5298 15.8755V18.4243C18.5298 18.8198 18.3276 19.0439 17.9673 19.0439C17.6597 19.0439 17.4575 18.8726 17.4224 18.5693V18.4067H17.3652ZM15.7217 17.5718C15.7217 17.9585 16.0293 18.2266 16.4819 18.2266C16.9829 18.2266 17.374 17.8838 17.374 17.4443V16.9609H16.4775C16.0029 16.9609 15.7217 17.1895 15.7217 17.5718Z" fill="#006C67"/>
<path d="M12.3218 18.4507V17.8882H10.1289C9.68066 17.8882 9.4082 17.6465 9.4082 17.2378C9.4082 17.0444 9.46094 16.873 9.62354 16.5435C10.1245 15.5942 10.5947 14.7944 11.377 13.6387C11.7461 13.1025 12.0273 12.918 12.4844 12.918C13.0776 12.918 13.4336 13.2344 13.4336 13.7573V16.9214H13.728C14.0444 16.9214 14.2378 17.1147 14.2378 17.4136C14.2378 17.708 14.0488 17.8882 13.728 17.8882H13.4336V18.4507C13.4336 18.8242 13.2227 19.0527 12.8755 19.0527C12.5283 19.0527 12.3218 18.8242 12.3218 18.4507ZM10.4937 16.9214H12.3218V13.9375H12.2603C11.7329 14.7373 10.8804 16.1919 10.4937 16.8906V16.9214Z" fill="#006C67"/>
<path d="M8.70605 18.4067C8.70605 18.8198 8.49512 19.0439 8.12598 19.0439C7.75684 19.0439 7.55029 18.8198 7.55029 18.4067V16.0908C7.55029 15.5371 7.25146 15.2207 6.75049 15.2207C6.25391 15.2207 5.91553 15.5942 5.91553 16.1567V18.4067C5.91553 18.8198 5.71777 19.0439 5.35303 19.0439C4.99268 19.0439 4.79492 18.8198 4.79492 18.4067V16.1128C4.79492 15.5591 4.48291 15.2207 3.98193 15.2207C3.48975 15.2207 3.16016 15.5854 3.16016 16.1523V18.4067C3.16016 18.8198 2.94922 19.0439 2.58008 19.0439C2.21094 19.0439 2 18.8198 2 18.4067V14.9175C2 14.5308 2.21973 14.2935 2.57129 14.2935C2.90967 14.2935 3.11621 14.5176 3.13379 14.8911V15.1108H3.19092C3.34473 14.5879 3.83252 14.2627 4.46533 14.2627C5.12012 14.2627 5.59473 14.5967 5.74854 15.1416H5.80127C6.00342 14.6011 6.53076 14.2627 7.20312 14.2627C8.14355 14.2627 8.70605 14.8208 8.70605 15.7437V18.4067Z" fill="#006C67"/>
</svg>
