<svg width="24" height="20" viewBox="0 0 24 20" fill="none" xmlns="http://www.w3.org/2000/svg">
<path d="M18.6673 10.8324V8.87994C18.6673 8.19827 18.6673 7.85827 18.5407 7.55161C18.414 7.24577 18.1732 7.00494 17.6907 6.52244L13.744 2.57577C13.3282 2.15994 13.1207 1.95244 12.8623 1.8291C12.8089 1.80342 12.7541 1.78061 12.6982 1.76077C12.429 1.66577 12.1348 1.66577 11.5473 1.66577C8.84315 1.66577 7.49065 1.66577 6.57482 2.4041C6.38989 2.55322 6.22143 2.72168 6.07232 2.9066C5.33398 3.82327 5.33398 5.17494 5.33398 7.87911V10.8324M12.834 2.08244V2.4991C12.834 4.85577 12.834 6.03494 13.5665 6.7666C14.2982 7.49994 15.4773 7.49994 17.834 7.49994H18.2507" stroke="#006C67" stroke-width="1.25" stroke-linecap="round" stroke-linejoin="round"/>
<path d="M23.6006 18.4067C23.6006 18.8198 23.3896 19.0439 23.0205 19.0439C22.6514 19.0439 22.4448 18.8198 22.4448 18.4067V16.0908C22.4448 15.5371 22.146 15.2207 21.645 15.2207C21.1484 15.2207 20.8101 15.5942 20.8101 16.1567V18.4067C20.8101 18.8198 20.6123 19.0439 20.2476 19.0439C19.8872 19.0439 19.6895 18.8198 19.6895 18.4067V16.1128C19.6895 15.5591 19.3774 15.2207 18.8765 15.2207C18.3843 15.2207 18.0547 15.5854 18.0547 16.1523V18.4067C18.0547 18.8198 17.8438 19.0439 17.4746 19.0439C17.1055 19.0439 16.8945 18.8198 16.8945 18.4067V14.9175C16.8945 14.5308 17.1143 14.2935 17.4658 14.2935C17.8042 14.2935 18.0107 14.5176 18.0283 14.8911V15.1108H18.0854C18.2393 14.5879 18.7271 14.2627 19.3599 14.2627C20.0146 14.2627 20.4893 14.5967 20.6431 15.1416H20.6958C20.8979 14.6011 21.4253 14.2627 22.0977 14.2627C23.0381 14.2627 23.6006 14.8208 23.6006 15.7437V18.4067Z" fill="#006C67"/>
<path d="M14.3184 19.0615C13.668 19.0615 13.1582 18.7715 12.9648 18.2881H12.9077V18.4814C12.9077 18.8418 12.688 19.0439 12.3408 19.0439C11.9761 19.0439 11.7695 18.8198 11.7695 18.4067V13.2915C11.7695 12.8828 11.9805 12.6543 12.3496 12.6543C12.7188 12.6543 12.9297 12.8828 12.9297 13.2915V15.0669H12.9868C13.1362 14.5835 13.6768 14.2671 14.3403 14.2671C15.4126 14.2671 16.0718 15.0449 16.0718 16.3369V16.9873C16.0718 18.2837 15.4082 19.0615 14.3184 19.0615ZM12.9297 16.9873C12.9297 17.6772 13.334 18.1387 13.9316 18.1387C14.5337 18.1387 14.8809 17.6772 14.8809 16.8818V16.4731C14.8809 15.6689 14.5293 15.1899 13.9185 15.1899C13.3076 15.1899 12.9297 15.6558 12.9297 16.4028V16.9873Z" fill="#006C67"/>
<path d="M6.83984 16.9741V16.3721C6.83984 15.0977 7.68359 14.2363 8.93604 14.2363C10.1226 14.2363 10.9619 15.0801 10.9619 16.2314C10.9619 16.7544 10.8125 16.9258 10.3774 16.9258H8.01758V17.1279C8.02197 17.7783 8.43506 18.1958 9.125 18.1958C9.48535 18.1958 9.74023 18.1079 9.94678 17.9365C10.1709 17.7651 10.25 17.6992 10.4302 17.6992C10.6719 17.6992 10.8389 17.8662 10.8389 18.1211C10.8389 18.3276 10.7114 18.5254 10.4917 18.6836C10.1841 18.9429 9.65234 19.1011 9.05029 19.1011C7.68359 19.1011 6.83984 18.2969 6.83984 16.9741ZM8.01758 16.1919H9.85449V16.1831C9.85449 15.5459 9.50293 15.1328 8.95361 15.1328C8.38232 15.1328 8.01758 15.5547 8.01758 16.1831V16.1919Z" fill="#006C67"/>
<path d="M0.848145 18.1211L0.0439453 15.1504C0.0131836 15.0142 0 14.9351 0 14.8647C0 14.5352 0.237305 14.3066 0.588867 14.3066C0.887695 14.3066 1.08984 14.5088 1.15137 14.8779L1.73145 17.7959H1.78418L2.48291 15.0449C2.61475 14.5 2.80811 14.3066 3.19043 14.3066C3.57715 14.3066 3.7749 14.5088 3.91553 15.0449L4.62305 17.7959H4.67578L5.28662 14.8823C5.35693 14.5176 5.55908 14.3066 5.84473 14.3066C6.19189 14.3066 6.41162 14.5264 6.41162 14.8384C6.41162 14.9087 6.39404 15.0098 6.35889 15.1416L5.5459 18.1211C5.35254 18.8198 5.13281 19.0439 4.72412 19.0439C4.28906 19.0439 4.06055 18.8242 3.88477 18.1211L3.2124 15.6733H3.17285L2.51807 18.1211C2.34229 18.8242 2.13135 19.0439 1.69189 19.0439C1.26123 19.0439 1.02832 18.8066 0.848145 18.1211Z" fill="#006C67"/>
</svg>
