<svg width="20" height="20" viewBox="0 0 20 20" xmlns="http://www.w3.org/2000/svg">
<path fill-rule="evenodd" clip-rule="evenodd" d="M4.9091 8.54545C4.50743 8.54545 4.18182 8.87107 4.18182 9.27273C4.18182 12.2396 6.4028 14.686 9.27273 15.044V16.5455H7.09091C6.68925 16.5455 6.36364 16.8711 6.36364 17.2727C6.36364 17.6744 6.68925 18 7.09091 18H12.9091C13.3108 18 13.6364 17.6744 13.6364 17.2727C13.6364 16.8711 13.3108 16.5455 12.9091 16.5455H10.7273V15.044C12.0718 14.8763 13.2739 14.2503 14.1719 13.3271L13.1438 12.299C12.35 13.1234 11.2349 13.6364 10 13.6364C7.59004 13.6364 5.63637 11.6827 5.63637 9.27273C5.63637 8.87107 5.31076 8.54545 4.9091 8.54545ZM13.9747 11.0762L15.0544 12.1558C15.068 12.132 15.0814 12.1082 15.0947 12.0842C15.5557 11.251 15.8182 10.2926 15.8182 9.27273C15.8182 8.87107 15.4926 8.54545 15.0909 8.54545C14.6893 8.54545 14.3636 8.87107 14.3636 9.27273C14.3636 9.91585 14.2245 10.5265 13.9747 11.0762Z"/>
<path d="M14.6283 15.8406L4.34316 5.55536C4.05914 5.27135 4.05914 4.81086 4.34316 4.52684C4.62717 4.24283 5.08766 4.24283 5.37167 4.52684L15.6569 14.812C15.9409 15.0961 15.9409 15.5565 15.6569 15.8406C15.3728 16.1246 14.9124 16.1246 14.6283 15.8406Z"/>
<path d="M14.6283 15.8406L4.34316 5.55536C4.05914 5.27135 4.05914 4.81086 4.34316 4.52684C4.62717 4.24283 5.08766 4.24283 5.37167 4.52684L13.1438 12.299L14.1719 13.3271L15.6569 14.812C15.9409 15.0961 15.9409 15.5565 15.6569 15.8406C15.3728 16.1246 14.9124 16.1246 14.6283 15.8406Z"/>
<path fill-rule="evenodd" clip-rule="evenodd" d="M7.4254 4.52685L8.54546 5.6469L11.4546 8.55599L12.8334 9.93485C12.8829 9.72215 12.9091 9.5005 12.9091 9.27273V4.90909C12.9091 3.30244 11.6067 2 10 2C8.58388 2 7.43604 2.93541 7.17615 4.27557C7.21039 4.30981 7.25053 4.35042 7.29209 4.39247C7.33672 4.43762 7.38301 4.48445 7.4254 4.52685Z"/>
</svg>
