<svg width="93" height="33" viewBox="0 0 93 33" fill="none" xmlns="http://www.w3.org/2000/svg">
<g id="brand.container" clip-path="url(#clip0_132_664)">
<g id="brand">
<g id="type">
<path fill-rule="evenodd" clip-rule="evenodd" d="M61.974 13.606C61.3664 13.1991 60.6286 12.9957 59.7605 12.9957C58.8925 12.9957 58.1112 13.2053 57.4168 13.6245C56.7223 14.0437 56.1767 14.6539 55.7799 15.4553C55.3955 16.2444 55.2032 17.1752 55.2032 18.2478C55.2032 19.3204 55.3955 20.2574 55.7799 21.0588C56.1767 21.8478 56.7223 22.4519 57.4168 22.8711C58.1112 23.2903 58.8925 23.4999 59.7605 23.4999C60.6286 23.4999 61.3664 23.2964 61.974 22.8896C62.5941 22.4704 63.0405 21.9156 63.3133 21.2252V23.3704H65.9175V9.11523H63.3133V15.2519C63.0405 14.5615 62.5941 14.0128 61.974 13.606ZM58.6072 16.0656C59.1033 15.5355 59.7605 15.2704 60.579 15.2704C61.3726 15.2704 62.0236 15.5416 62.5321 16.0841C63.0529 16.6142 63.3133 17.3355 63.3133 18.2478C63.3133 19.1478 63.0529 19.869 62.5321 20.4115C62.0236 20.9416 61.3726 21.2067 60.579 21.2067C59.7605 21.2067 59.1033 20.9478 58.6072 20.43C58.1112 19.8999 57.8632 19.1725 57.8632 18.2478C57.8632 17.3231 58.1112 16.5957 58.6072 16.0656Z" fill="#003331"/>
<path d="M26.3181 15.0855C26.7025 14.432 27.2109 13.9204 27.8434 13.5505C28.4758 13.1683 29.1826 12.9772 29.9639 12.9772V15.7697H29.2012C27.2791 15.7697 26.3181 16.6574 26.3181 18.4327V23.3704H23.6953V13.1252H26.3181V15.0855Z" fill="#003331"/>
<path fill-rule="evenodd" clip-rule="evenodd" d="M40.1766 17.8594C40.1766 18.1183 40.1456 18.4142 40.0836 18.7471H32.5316C32.5688 19.6594 32.8168 20.3314 33.2756 20.7629C33.7344 21.1944 34.3049 21.4101 34.9869 21.4101C35.5945 21.4101 36.0968 21.2622 36.4936 20.9663C36.9028 20.6704 37.1632 20.2697 37.2748 19.7642H40.0464C39.91 20.4793 39.6186 21.1204 39.1721 21.6875C38.7257 22.2547 38.1491 22.6985 37.4422 23.019C36.7478 23.3396 35.9728 23.4999 35.1171 23.4999C34.1126 23.4999 33.2198 23.2903 32.4386 22.8711C31.6573 22.4396 31.0497 21.8293 30.6156 21.0403C30.1816 20.2512 29.9646 19.3204 29.9646 18.2478C29.9646 17.1752 30.1816 16.2444 30.6156 15.4553C31.0497 14.6539 31.6573 14.0437 32.4386 13.6245C33.2198 13.2053 34.1126 12.9957 35.1171 12.9957C36.134 12.9957 37.0206 13.2053 37.7771 13.6245C38.5459 14.0437 39.1349 14.6231 39.5442 15.3629C39.9658 16.0903 40.1766 16.9224 40.1766 17.8594ZM37.5353 17.6005C37.5725 16.7622 37.3492 16.1272 36.8656 15.6957C36.3944 15.2642 35.8116 15.0485 35.1171 15.0485C34.4103 15.0485 33.815 15.2642 33.3314 15.6957C32.8478 16.1272 32.5812 16.7622 32.5316 17.6005H37.5353Z" fill="#003331"/>
<path d="M49.0511 14.0683C48.1706 13.3533 47.067 12.9957 45.7401 12.9957C44.7356 12.9957 43.8428 13.2053 43.0615 13.6245C42.2803 14.0437 41.6726 14.6539 41.2386 15.4553C40.8046 16.2444 40.5876 17.1752 40.5876 18.2478C40.5876 19.3204 40.8046 20.2512 41.2386 21.0403C41.6726 21.8293 42.2803 22.4396 43.0615 22.8711C43.8428 23.2903 44.7356 23.4999 45.7401 23.4999C47.067 23.4999 48.1706 23.1423 49.0511 22.4273C49.9439 21.7122 50.502 20.7382 50.7252 19.5053H47.9536C47.842 20.0478 47.5878 20.4793 47.191 20.7999C46.7941 21.1081 46.2919 21.2622 45.6843 21.2622C44.9898 21.2622 44.407 21.0094 43.9358 20.504C43.4769 19.9862 43.2475 19.2341 43.2475 18.2478C43.2475 17.2615 43.4769 16.5156 43.9358 16.0101C44.407 15.4923 44.9898 15.2334 45.6843 15.2334C46.2919 15.2334 46.7941 15.3937 47.191 15.7142C47.5878 16.0224 47.842 16.4478 47.9536 16.9903H50.7252C50.502 15.7574 49.9439 14.7834 49.0511 14.0683Z" fill="#003331"/>
<path d="M54.2815 13.1252V23.3704H51.6587V13.1252H54.2815Z" fill="#003331"/>
<path d="M69.987 13.1252V23.3704H67.3643V13.1252H69.987Z" fill="#003331"/>
<path d="M78.5167 13.1252L75.9125 20.7629L73.2897 13.1252H70.481L74.2942 23.3704H77.4936L81.3068 13.1252H78.5167Z" fill="#003331"/>
<path d="M84.4574 13.1252V23.3704H81.8346V13.1252H84.4574Z" fill="#003331"/>
<path d="M93.08 21.1882H88.0205L92.894 15.1779V13.1252H85.2675V15.2889H89.8992L85.1559 21.2992V23.3704H93.08V21.1882Z" fill="#003331"/>
<path d="M52.9638 12.1974C53.8199 12.1974 54.5139 11.5075 54.5139 10.6563C54.5139 9.80521 53.8199 9.11523 52.9638 9.11523C52.1077 9.11523 51.4137 9.80521 51.4137 10.6563C51.4137 11.5075 52.1077 12.1974 52.9638 12.1974Z" fill="#003331"/>
<path d="M70.2165 10.6563C70.2165 11.5075 69.5225 12.1974 68.6665 12.1974C67.8104 12.1974 67.1164 11.5075 67.1164 10.6563C67.1164 9.80521 67.8104 9.11523 68.6665 9.11523C69.5225 9.11523 70.2165 9.80521 70.2165 10.6563Z" fill="#003331"/>
<path d="M83.1445 12.1974C84.0006 12.1974 84.6946 11.5075 84.6946 10.6563C84.6946 9.80521 84.0006 9.11523 83.1445 9.11523C82.2884 9.11523 81.5944 9.80521 81.5944 10.6563C81.5944 11.5075 82.2884 12.1974 83.1445 12.1974Z" fill="#003331"/>
</g>
<g id="icon">
<rect id="Rectangle 3.34" y="12.5" width="11" height="11" fill="#00A1FF"/>
<rect id="Rectangle 3.35" x="10.1562" y="1.5" width="11.8462" height="11.8462" rx="5.92308" fill="#E00E00"/>
</g>
</g>
</g>
<defs>
<clipPath id="clip0_132_664">
<rect width="93" height="32" fill="white" transform="translate(0 0.5)"/>
</clipPath>
</defs>
</svg>
