<svg width="16" height="16" viewBox="0 0 16 16" fill="none" xmlns="http://www.w3.org/2000/svg">
<path d="M11.8889 4H12C12.5523 4 13 4.44772 13 5V13C13 13.5523 12.5523 14 12 14H4C3.44772 14 3 13.5523 3 13V5C3 4.44772 3.44772 4 4 4H4.11111" stroke="#2B5469" stroke-opacity="0.8" stroke-linejoin="round"/>
<mask id="path-2-inside-1_2155_2277" fill="white">
<path d="M4 3.25C4 2.69772 4.44772 2.25 5 2.25H5.71429C5.71429 2.25 6.13635 1 8 1C9.86365 1 10.1909 2.25 10.1909 2.25H11C11.5523 2.25 12 2.69772 12 3.25V5C12 5.55228 11.5523 6 11 6H5C4.44772 6 4 5.55228 4 5V3.25Z"/>
</mask>
<path d="M5.71429 2.25V3.25H6.4321L6.66173 2.56991L5.71429 2.25ZM10.1909 2.25L9.22349 2.50326L9.41899 3.25H10.1909V2.25ZM11 3.25V5H13V3.25H11ZM11 5H5V7H11V5ZM5 5V3.25H3V5H5ZM5 3.25H5.71429V1.25H5V3.25ZM10.1909 3.25H11V1.25H10.1909V3.25ZM5.71429 2.25C6.66173 2.56991 6.66153 2.57052 6.66132 2.57113C6.66125 2.57133 6.66105 2.57194 6.66091 2.57234C6.66064 2.57313 6.66038 2.5739 6.66012 2.57466C6.6596 2.57618 6.65909 2.57763 6.65861 2.57901C6.65764 2.58178 6.65675 2.58429 6.65593 2.58655C6.6543 2.59106 6.65297 2.59458 6.65197 2.59716C6.64997 2.60231 6.64925 2.60383 6.64997 2.6022C6.65147 2.59882 6.65843 2.58364 6.67208 2.56036C6.69962 2.51338 6.75142 2.4384 6.83663 2.35973C6.98805 2.21993 7.31643 2 8 2V0C6.81993 0 6.00544 0.405069 5.47992 0.890265C5.22666 1.1241 5.05647 1.36162 4.94663 1.54901C4.89159 1.64292 4.85101 1.7254 4.82215 1.79038C4.80769 1.82293 4.79608 1.8513 4.78699 1.87476C4.78245 1.8865 4.77852 1.89704 4.77518 1.90628C4.7735 1.9109 4.77198 1.9152 4.77059 1.91918C4.7699 1.92116 4.76924 1.92306 4.76861 1.92488C4.7683 1.92579 4.76799 1.92668 4.7677 1.92755C4.76755 1.92798 4.76734 1.92862 4.76726 1.92884C4.76705 1.92947 4.76684 1.93009 5.71429 2.25ZM8 2C8.68265 2 8.97257 2.2183 9.08977 2.33466C9.15945 2.40384 9.19954 2.46929 9.21991 2.50921C9.22998 2.52895 9.23449 2.54103 9.23481 2.54189C9.23494 2.54224 9.23394 2.53956 9.23201 2.53336C9.23104 2.53025 9.22983 2.52624 9.2284 2.52125C9.22769 2.51875 9.22692 2.51601 9.2261 2.51302C9.2257 2.51152 9.22527 2.50996 9.22484 2.50834C9.22462 2.50752 9.2244 2.50669 9.22417 2.50585C9.22406 2.50542 9.22389 2.50478 9.22384 2.50457C9.22367 2.50392 9.22349 2.50326 10.1909 2.25C11.1583 1.99674 11.1581 1.99607 11.1579 1.99541C11.1579 1.99518 11.1577 1.9945 11.1576 1.99404C11.1573 1.99312 11.1571 1.99217 11.1568 1.99121C11.1563 1.98928 11.1558 1.98727 11.1552 1.98517C11.154 1.98097 11.1528 1.97644 11.1514 1.97158C11.1486 1.96186 11.1453 1.95083 11.1415 1.93856C11.1339 1.91405 11.124 1.88452 11.1116 1.85069C11.0867 1.78319 11.0511 1.69761 11.0014 1.60016C10.9021 1.40571 10.7439 1.15866 10.4989 0.915342C9.98653 0.406698 9.181 0 8 0V2ZM5 5H3C3 6.10457 3.89543 7 5 7V5ZM11 5V7C12.1046 7 13 6.10457 13 5H11ZM13 3.25C13 2.14543 12.1046 1.25 11 1.25V3.25H13ZM5 3.25H5V1.25C3.89543 1.25 3 2.14543 3 3.25H5Z" fill="#2B5469" fill-opacity="0.8" mask="url(#path-2-inside-1_2155_2277)"/>
<path d="M5 7.5L11 7.5" stroke="#2B5469" stroke-opacity="0.8" stroke-linecap="round"/>
<path d="M5 9.5L11 9.5" stroke="#2B5469" stroke-opacity="0.8" stroke-linecap="round"/>
<path d="M5 11.5L11 11.5" stroke="#2B5469" stroke-opacity="0.8" stroke-linecap="round"/>
</svg>
