<svg width="5" height="7" viewBox="0 0 5 7" fill="none" xmlns="http://www.w3.org/2000/svg">
<g id="chevron-down" clip-path="url(#clip0_1185_17)">
<path id="Vector" d="M3.73731 1.50653C3.82989 1.40932 3.88079 1.27976 3.87916 1.14553C3.87752 1.0113 3.82347 0.883025 3.72855 0.788101C3.63362 0.693177 3.50535 0.639126 3.37112 0.63749C3.23688 0.635853 3.10733 0.68676 3.01012 0.779341L0.80312 2.98634C0.735573 3.05381 0.681987 3.13393 0.645426 3.22212C0.608865 3.31031 0.590046 3.40484 0.590046 3.50031C0.590046 3.59578 0.608865 3.69031 0.645426 3.7785C0.681987 3.86669 0.735573 3.94681 0.80312 4.01427L3.01012 6.2205C3.10733 6.31308 3.23689 6.36399 3.37112 6.36235C3.50535 6.36072 3.63362 6.30667 3.72855 6.21174C3.82347 6.11682 3.87752 5.98855 3.87916 5.85431C3.8808 5.72008 3.82989 5.59053 3.73731 5.49332L1.74545 3.49992L3.73731 1.50653Z" fill="#006C67"/>
</g>
<defs>
<clipPath id="clip0_1185_17">
<rect width="6.94026" height="3.8557" fill="white" transform="translate(4.16682 0.0299072) rotate(90)"/>
</clipPath>
</defs>
</svg>
