<svg xmlns="http://www.w3.org/2000/svg" width="4" height="7" viewBox="0 0 4 7" fill="none">
  <g transform="translate(4,0) scale(-1,1)" clip-path="url(#clip0_carousel_left)">
    <path d="M0.429976 5.46393C0.337395 5.56114 0.286488 5.6907 0.288124 5.82493C0.289761 5.95916 0.343812 6.08743 0.438736 6.18236C0.53366 6.27728 0.661933 6.33133 0.796165 6.33297C0.930398 6.33461 1.05995 6.2837 1.15716 6.19112L3.36416 3.98412C3.43171 3.91665 3.4853 3.83653 3.52186 3.74834C3.55842 3.66015 3.57724 3.56562 3.57724 3.47015C3.57724 3.37468 3.55842 3.28015 3.52186 3.19196C3.4853 3.10377 3.43171 3.02365 3.36416 2.95619L1.15716 0.749956C1.05995 0.657375 0.930397 0.606468 0.796165 0.608105C0.661933 0.609742 0.533659 0.663792 0.438736 0.758716C0.343812 0.85364 0.289761 0.981913 0.288124 1.11615C0.286488 1.25038 0.337395 1.37993 0.429976 1.47714L2.42183 3.47054L0.429976 5.46393Z" fill="#006C67"/>
  </g>
  <defs>
    <clipPath id="clip0_carousel_left">
      <rect width="6.94026" height="3.8557" fill="white" transform="translate(3.03367e-07 6.94043) rotate(-90)"/>
    </clipPath>
  </defs>
</svg>
