<svg width="12" height="12" viewBox="0 0 12 12" fill="none" xmlns="http://www.w3.org/2000/svg">
<path fill-rule="evenodd" clip-rule="evenodd" d="M6.00039 4.93875L9.44437 1.49478C9.73753 1.20161 10.2128 1.20161 10.506 1.49478C10.7992 1.78794 10.7992 2.26325 10.506 2.55642L7.06253 5.9999L10.506 9.44339C10.7992 9.73655 10.7992 10.2119 10.506 10.505C10.2128 10.7982 9.73753 10.7982 9.44437 10.505L6.00039 7.06105L2.55642 10.505C2.26325 10.7982 1.78794 10.7982 1.49478 10.505C1.20161 10.2119 1.20161 9.73655 1.49478 9.44339L4.93826 5.9999L1.49478 2.55642C1.20161 2.26325 1.20161 1.78794 1.49478 1.49478C1.78794 1.20161 2.26325 1.20161 2.55642 1.49478L6.00039 4.93875Z" fill="#8792A2"/>
</svg>
