<svg width="12" height="13" viewBox="0 0 12 13" fill="none" xmlns="http://www.w3.org/2000/svg">
<path d="M10.575 0.725C10.275 0.425 9.825 0.425 9.525 0.725L4.5 5.75V8H6.75L11.775 2.975C12.075 2.675 12.075 2.225 11.775 1.925L10.575 0.725Z" fill="#00665F"/>
<path d="M11.25 7.25C10.8 7.25 10.5 7.55 10.5 8V11H1.5V2H4.5C4.95 2 5.25 1.7 5.25 1.25C5.25 0.8 4.95 0.5 4.5 0.5H0.75C0.3 0.5 0 0.8 0 1.25V11.75C0 12.2 0.3 12.5 0.75 12.5H11.25C11.7 12.5 12 12.2 12 11.75V8C12 7.55 11.7 7.25 11.25 7.25Z" fill="#00665F"/>
</svg>
