<svg width="16" height="16" viewBox="0 0 16 16" fill="none" xmlns="http://www.w3.org/2000/svg">
<path fill-rule="evenodd" clip-rule="evenodd" d="M11.5309 2.34162C11.6917 1.91291 11.5348 1.49732 11.2707 1.24399C11.0086 0.992483 10.5949 0.854439 10.179 1.00599C9.47872 1.26111 8.64021 1.50002 8 1.50002C7.35979 1.50002 6.52128 1.26111 5.82104 1.00599C5.40507 0.85444 4.99143 0.992483 4.72927 1.24399C4.4652 1.49732 4.30834 1.91291 4.4691 2.34162L5.43035 4.90496C5.31915 5.03899 5.20269 5.17811 5.08243 5.32178L5.08242 5.3218L5.08241 5.32181C4.43045 6.10067 3.66674 7.01303 3.02258 7.97102C2.19591 9.20042 1.5 10.5961 1.5 12C1.5 12.6189 1.78506 13.1917 2.1584 13.658C2.53524 14.1286 3.03416 14.5324 3.54439 14.8232C3.76625 14.9496 4.00836 15 4.23607 15H8H11.3377C11.4967 15 11.6618 14.9753 11.8229 14.9172C12.5802 14.6443 13.2526 14.2538 13.7373 13.6863C14.2302 13.1091 14.5 12.3823 14.5 11.5C14.5 10.2973 13.7928 8.93702 12.9741 7.7501C12.2191 6.65552 11.3115 5.6275 10.5804 4.87639L11.5309 2.34162ZM9.6535 4.50002L10.5946 1.9905L10.5951 1.98912C10.5939 1.98573 10.5897 1.97644 10.5784 1.96561C10.5662 1.95382 10.5525 1.94708 10.5423 1.94455C10.5343 1.94259 10.5287 1.94288 10.5213 1.94557C9.80629 2.20607 8.82727 2.50002 8 2.50002C7.17273 2.50002 6.19372 2.20607 5.47871 1.94557C5.47132 1.94288 5.46568 1.94259 5.45775 1.94455C5.44752 1.94708 5.43385 1.95382 5.42156 1.96561C5.41027 1.97644 5.40609 1.98573 5.40495 1.98912L5.40543 1.9905L6.3465 4.50002H9.6535ZM5.82775 5.98974C5.96764 5.82258 6.10432 5.65924 6.23605 5.50002H9.79156C10.5083 6.22994 11.412 7.24652 12.1509 8.31788C12.9572 9.48693 13.5 10.6267 13.5 11.5C13.5 12.1626 13.3037 12.6543 12.9769 13.0369C12.6419 13.4291 12.141 13.7396 11.4839 13.9765C11.4428 13.9913 11.3937 14 11.3377 14H8H4.23607C4.15329 14 4.08737 13.9816 4.03946 13.9543C3.62365 13.7174 3.22661 13.3921 2.93899 13.0329C2.64788 12.6694 2.5 12.3116 2.5 12C2.5 10.9039 3.05409 9.71628 3.85242 8.52901C4.46409 7.61935 5.18026 6.76351 5.82775 5.98974Z" fill="#2B5469" fill-opacity="0.8"/>
<path fill-rule="evenodd" clip-rule="evenodd" d="M8.5 6.5C8.5 6.22386 8.27614 6 8 6C7.72386 6 7.5 6.22386 7.5 6.5V6.55127C7.09924 6.63738 6.76137 6.82958 6.50568 7.10975C6.15633 7.49255 6 7.99571 6 8.5C6 9.2621 6.62144 9.8091 7.5 9.95882V11.4716C7.26959 11.4406 7.15366 11.3897 7.09761 11.3482C7.05757 11.3186 7 11.2639 7 11C7 10.7239 6.77614 10.5 6.5 10.5C6.22386 10.5 6 10.7239 6 11C6 11.4028 6.09243 11.8481 6.50239 12.1518C6.76224 12.3443 7.1016 12.4397 7.5 12.4783V13C7.5 13.2761 7.72386 13.5 8 13.5C8.27614 13.5 8.5 13.2761 8.5 13V12.47C8.92141 12.4156 9.26309 12.2858 9.52009 12.0716C9.8896 11.7637 10 11.3535 10 11C10 10.6184 9.82417 10.1361 9.51543 9.75015C9.27781 9.45313 8.93812 9.18527 8.5 9.0658V7.55221C8.66813 7.59289 8.779 7.65145 8.84871 7.70608C8.96208 7.7949 9 7.89724 9 8C9 8.27614 9.22386 8.5 9.5 8.5C9.77614 8.5 10 8.27614 10 8C10 7.60276 9.83071 7.2051 9.46547 6.91892C9.21262 6.72081 8.8877 6.59239 8.5 6.53488V6.5ZM7.5 7.598C7.39302 7.64767 7.3094 7.71254 7.24432 7.78385C7.09367 7.94893 7 8.19576 7 8.5C7 8.57634 7.0777 8.82749 7.5 8.94208V7.598ZM8.5 10.1537V11.4576C8.7056 11.4167 8.81955 11.3537 8.87991 11.3034C8.9604 11.2363 9 11.1465 9 11C9 10.8816 8.92583 10.6139 8.73457 10.3748C8.6659 10.289 8.58788 10.2138 8.5 10.1537Z" fill="#2B5469" fill-opacity="0.8"/>
</svg>
