<svg width="16" height="16" viewBox="0 0 16 16" fill="none" xmlns="http://www.w3.org/2000/svg">
<circle cx="8" cy="8" r="6.5" stroke="#2B5469" stroke-opacity="0.8"/>
<path fill-rule="evenodd" clip-rule="evenodd" d="M10 7.8862C10.5826 7.61164 11 6.87081 11 6C11 4.89543 10.3284 4 9.5 4C8.67157 4 8 4.89543 8 6C8 6.87081 8.4174 7.61164 9 7.8862L9 12C9 12.2761 9.22386 12.5 9.5 12.5C9.77614 12.5 10 12.2761 10 12L10 7.8862Z" fill="#2B5469" fill-opacity="0.8"/>
<path fill-rule="evenodd" clip-rule="evenodd" d="M7.25 6.28101C7.18441 6.41305 7.10236 6.5 7 6.5C6.89764 6.5 6.81559 6.41305 6.75 6.28101V4.46484C6.75 4.32677 6.63807 4.21484 6.5 4.21484C6.36193 4.21484 6.25 4.32677 6.25 4.46484L6.25 6.28101C6.18441 6.41305 6.10236 6.5 6 6.5C5.89764 6.5 5.81559 6.41305 5.75 6.28101V4.5C5.75 4.36193 5.63807 4.25 5.5 4.25C5.36193 4.25 5.25 4.36193 5.25 4.5V6.5V7C5.25 7.51258 5.55852 7.9531 6 8.14599L6 12C6 12.2761 6.22386 12.5 6.5 12.5C6.77614 12.5 7 12.2761 7 12L7 8.14599C7.44148 7.9531 7.75 7.51258 7.75 7V6.5V4.5C7.75 4.36193 7.63807 4.25 7.5 4.25C7.36193 4.25 7.25 4.36193 7.25 4.5V6.28101Z" fill="#2B5469" fill-opacity="0.8"/>
</svg>
