<svg width="16" height="16" viewBox="0 0 16 16" fill="none" xmlns="http://www.w3.org/2000/svg">
<path d="M9 12.9996H8.625C8.625 13.2067 8.79289 13.3746 9 13.3746V12.9996ZM11.5 12.9996V13.3746C11.7071 13.3746 11.875 13.2067 11.875 12.9996H11.5ZM11.5 11.4996L11.2348 11.2344C11.1645 11.3048 11.125 11.4001 11.125 11.4996H11.5ZM13.5 9.49961L13.2609 9.21073C13.2518 9.21822 13.2431 9.22613 13.2348 9.23444L13.5 9.49961ZM11.188 9.29199C11.0731 9.46431 11.1197 9.69714 11.292 9.81202C11.4643 9.9269 11.6971 9.88034 11.812 9.70801L11.188 9.29199ZM11.7039 6.55582L11.3799 6.36691L11.7039 6.55582ZM9 13.3746H11.5V12.6246H9V13.3746ZM11.875 12.9996V11.4996H11.125V12.9996H11.875ZM14.8638 8.09095C15.104 7.13008 14.9632 5.86386 14.7144 4.89593C14.5892 4.4085 14.4292 3.96705 14.2564 3.65602C14.1726 3.50504 14.0692 3.35414 13.9423 3.25002C13.8118 3.14294 13.5719 3.0284 13.3166 3.1715L13.6834 3.82571C13.5531 3.89873 13.4518 3.81773 13.4666 3.82981C13.4849 3.84485 13.5333 3.89873 13.6008 4.02017C13.7306 4.25398 13.8712 4.62794 13.988 5.08259C14.2235 5.99881 14.3326 7.12344 14.1362 7.90905L14.8638 8.09095ZM13.3166 3.1715C13.1811 3.24746 13.0449 3.31924 12.9187 3.38333L13.2582 4.05207C13.3914 3.98443 13.537 3.90776 13.6834 3.82571L13.3166 3.1715ZM12.125 4.6514V5.99961H12.875V4.6514H12.125ZM11.7652 11.7648L13.7652 9.76477L13.2348 9.23444L11.2348 11.2344L11.7652 11.7648ZM13.5 9.49961C13.7391 9.78848 13.7392 9.78842 13.7393 9.78835C13.7393 9.78833 13.7394 9.78826 13.7394 9.78821C13.7396 9.78811 13.7397 9.788 13.7398 9.78789C13.7401 9.78765 13.7405 9.78737 13.7408 9.78705C13.7416 9.78641 13.7426 9.78561 13.7437 9.78464C13.746 9.78272 13.749 9.78016 13.7527 9.77697C13.7602 9.77059 13.7705 9.76169 13.7832 9.75039C13.8086 9.72781 13.8441 9.69552 13.8867 9.65444C13.9717 9.5725 14.0867 9.45434 14.209 9.30715C14.4492 9.01804 14.7385 8.59231 14.8638 8.09095L14.1362 7.90905C14.0497 8.25485 13.839 8.57893 13.6322 8.82783C13.5309 8.94965 13.4356 9.04754 13.3662 9.11441C13.3317 9.14773 13.3039 9.17304 13.2854 9.18944C13.2761 9.19764 13.2693 9.20359 13.2651 9.20718C13.263 9.20897 13.2615 9.21017 13.2608 9.21077C13.2605 9.21107 13.2603 9.21122 13.2603 9.21121C13.2603 9.21121 13.2604 9.21117 13.2605 9.21109C13.2605 9.21105 13.2606 9.211 13.2606 9.21094C13.2607 9.21091 13.2607 9.21086 13.2608 9.21084C13.2608 9.21079 13.2609 9.21073 13.5 9.49961ZM9.375 12.9996V10.5H8.625V12.9996H9.375ZM9.375 10.5C9.375 10.2693 9.39852 9.89361 9.46817 9.53376C9.50292 9.35419 9.54753 9.18723 9.6022 9.04796C9.65839 8.9048 9.7163 8.81403 9.76517 8.76516L9.23483 8.23484C9.0837 8.38597 8.97911 8.5827 8.90405 8.77392C8.82747 8.96902 8.77208 9.18331 8.73183 9.39124C8.65148 9.80639 8.625 10.2307 8.625 10.5H9.375ZM9.76517 8.76516C9.97259 8.55774 10.2155 8.41797 10.4816 8.27586C10.7265 8.14506 11.0392 7.99113 11.2652 7.76516L10.7348 7.23483C10.6072 7.36243 10.42 7.45849 10.1282 7.61431C9.85771 7.75881 9.52741 7.94226 9.23483 8.23484L9.76517 8.76516ZM11.2652 7.76516C11.5881 7.44225 11.8414 7.06429 12.0278 6.74474L11.3799 6.36691C11.21 6.65822 10.9942 6.97551 10.7348 7.23483L11.2652 7.76516ZM12.6604 7.08335L11.188 9.29199L11.812 9.70801L13.2844 7.49937L12.6604 7.08335ZM12.4791 6.55499C12.699 6.62827 12.7889 6.89053 12.6604 7.08335L13.2844 7.49937C13.6873 6.89509 13.4053 6.07315 12.7163 5.84348L12.4791 6.55499ZM12.0278 6.74474C12.1294 6.57059 12.3207 6.50219 12.4791 6.55499L12.7163 5.84348C12.1888 5.66764 11.6426 5.91648 11.3799 6.36691L12.0278 6.74474ZM12.9187 3.38333C12.4483 3.62214 12.125 4.10389 12.125 4.6514H12.875C12.875 4.40605 13.0216 4.17221 13.2582 4.05207L12.9187 3.38333Z" fill="#2B5469" fill-opacity="0.8"/>
<path d="M6.61328 12.9996H6.98828C6.98828 13.2067 6.82039 13.3746 6.61328 13.3746V12.9996ZM4.11328 12.9996V13.3746C3.90617 13.3746 3.73828 13.2067 3.73828 12.9996H4.11328ZM4.11328 11.4996L4.37845 11.2344C4.44877 11.3048 4.48828 11.4001 4.48828 11.4996H4.11328ZM2.11328 9.49961L2.3524 9.21073C2.36145 9.21822 2.37014 9.22613 2.37845 9.23444L2.11328 9.49961ZM4.4253 9.29199C4.54018 9.46431 4.49362 9.69714 4.32129 9.81202C4.14897 9.9269 3.91614 9.88034 3.80126 9.70801L4.4253 9.29199ZM3.90942 6.55582L4.23336 6.36691L3.90942 6.55582ZM6.61328 13.3746H4.11328V12.6246H6.61328V13.3746ZM3.73828 12.9996V11.4996H4.48828V12.9996H3.73828ZM0.749478 8.09095C0.509261 7.13008 0.650128 5.86386 0.898848 4.89593C1.0241 4.4085 1.18412 3.96705 1.35686 3.65602C1.44071 3.50504 1.54408 3.35414 1.67098 3.25002C1.80147 3.14294 2.04141 3.0284 2.29666 3.1715L1.9299 3.82571C2.06015 3.89873 2.16144 3.81773 2.14672 3.82981C2.1284 3.84485 2.07997 3.89873 2.01253 4.02017C1.88267 4.25398 1.74208 4.62794 1.62525 5.08259C1.38981 5.99881 1.28068 7.12344 1.47708 7.90905L0.749478 8.09095ZM2.29666 3.1715C2.43214 3.24746 2.56839 3.31924 2.69463 3.38333L2.35509 4.05207C2.22187 3.98443 2.07627 3.90776 1.9299 3.82571L2.29666 3.1715ZM3.48828 4.6514V5.99961H2.73828V4.6514H3.48828ZM3.84812 11.7648L1.84812 9.76477L2.37845 9.23444L4.37845 11.2344L3.84812 11.7648ZM2.11328 9.49961C1.87417 9.78848 1.87409 9.78842 1.87401 9.78835C1.87398 9.78833 1.8739 9.78826 1.87384 9.78821C1.87372 9.78811 1.87359 9.788 1.87345 9.78789C1.87316 9.78765 1.87283 9.78737 1.87244 9.78705C1.87168 9.78641 1.87072 9.78561 1.86957 9.78464C1.86729 9.78272 1.86426 9.78016 1.86053 9.77697C1.85308 9.77059 1.84281 9.76169 1.83008 9.75039C1.80464 9.72781 1.76922 9.69552 1.72659 9.65444C1.64157 9.5725 1.52658 9.45434 1.40428 9.30715C1.16405 9.01804 0.874818 8.59231 0.749478 8.09095L1.47708 7.90905C1.56354 8.25485 1.7743 8.57893 1.98113 8.82783C2.08235 8.94965 2.17766 9.04754 2.24704 9.11441C2.28161 9.14773 2.30943 9.17304 2.32792 9.18944C2.33715 9.19764 2.34403 9.20359 2.34822 9.20718C2.35032 9.20897 2.35174 9.21017 2.35245 9.21077C2.35281 9.21107 2.35298 9.21122 2.35298 9.21121C2.35297 9.21121 2.35292 9.21117 2.35283 9.21109C2.35278 9.21105 2.35272 9.211 2.35265 9.21094C2.35261 9.21091 2.35255 9.21086 2.35253 9.21084C2.35247 9.21079 2.3524 9.21073 2.11328 9.49961ZM6.23828 12.9996V10.5H6.98828V12.9996H6.23828ZM6.23828 10.5C6.23828 10.2693 6.21476 9.89361 6.14511 9.53376C6.11036 9.35419 6.06575 9.18723 6.01108 9.04796C5.95489 8.9048 5.89698 8.81403 5.84812 8.76516L6.37845 8.23484C6.52958 8.38597 6.63417 8.5827 6.70923 8.77392C6.78581 8.96902 6.8412 9.18331 6.88145 9.39124C6.9618 9.80639 6.98828 10.2307 6.98828 10.5H6.23828ZM5.84812 8.76516C5.6407 8.55774 5.39776 8.41797 5.13169 8.27586C4.8868 8.14506 4.57408 7.99113 4.34812 7.76516L4.87845 7.23483C5.00604 7.36243 5.19331 7.45849 5.48504 7.61431C5.75558 7.75881 6.08587 7.94226 6.37845 8.23484L5.84812 8.76516ZM4.34812 7.76516C4.0252 7.44225 3.77183 7.06429 3.58548 6.74474L4.23336 6.36691C4.40325 6.65822 4.61912 6.97551 4.87845 7.23483L4.34812 7.76516ZM2.95287 7.08335L4.4253 9.29199L3.80126 9.70801L2.32884 7.49937L2.95287 7.08335ZM3.13416 6.55499C2.91432 6.62827 2.82433 6.89053 2.95287 7.08335L2.32884 7.49937C1.92598 6.89509 2.20799 6.07315 2.89699 5.84348L3.13416 6.55499ZM3.58548 6.74474C3.48392 6.57059 3.29256 6.50219 3.13416 6.55499L2.89699 5.84348C3.42451 5.66764 3.97068 5.91648 4.23336 6.36691L3.58548 6.74474ZM2.69463 3.38333C3.16496 3.62214 3.48828 4.10389 3.48828 4.6514H2.73828C2.73828 4.40605 2.59171 4.17221 2.35509 4.05207L2.69463 3.38333Z" fill="#2B5469" fill-opacity="0.8"/>
<path d="M10.9992 5C10.9992 5.8 8.99924 7.33333 7.99924 8C7.99924 8 5 6 5 5C5 4 5.50003 3.5 6.50003 3.5C7.50003 3.5 7.99924 4.5 7.99924 4.5C8.49924 4 8.64015 3.5 9.49924 3.5C10.3583 3.5 10.9992 4 10.9992 5Z" stroke="#2B5469" stroke-opacity="0.8" stroke-width="0.75" stroke-linejoin="round"/>
</svg>
