<svg width="17" height="17" viewBox="0 0 17 17" fill="none" xmlns="http://www.w3.org/2000/svg">
<g id="ic_verified" clip-path="url(#clip0_1377_2343)">
<circle id="Ellipse 1323" cx="8.5" cy="8.5" r="8" fill="white"/>
<circle id="Ellipse 1322" cx="8.5" cy="8.5" r="8" fill="white"/>
<path id="Vector" d="M8.5 0.5C4.1 0.5 0.5 4.1 0.5 8.5C0.5 12.9 4.1 16.5 8.5 16.5C12.9 16.5 16.5 12.9 16.5 8.5C16.5 4.1 12.9 0.5 8.5 0.5ZM7.85355 11.5464C7.65829 11.7417 7.34171 11.7417 7.14645 11.5464L4.45355 8.85355C4.25829 8.65829 4.25829 8.34171 4.45355 8.14645L5.14645 7.45355C5.34171 7.25829 5.65829 7.25829 5.85355 7.45355L7.5 9.1L11.1464 5.45355C11.3417 5.25829 11.6583 5.25829 11.8536 5.45355L12.5464 6.14645C12.7417 6.34171 12.7417 6.65829 12.5464 6.85355L7.85355 11.5464Z" fill="#00665F"/>
</g>
<defs>
<clipPath id="clip0_1377_2343">
<rect width="16" height="16" fill="white" transform="translate(0.5 0.5)"/>
</clipPath>
</defs>
</svg>
