<svg width="16" height="16" viewBox="0 0 16 16" fill="none" xmlns="http://www.w3.org/2000/svg">
<circle cx="8" cy="8" r="6.5" stroke="#2B5469" stroke-opacity="0.8"/>
<mask id="path-2-inside-1_2155_2285" fill="white">
<path fill-rule="evenodd" clip-rule="evenodd" d="M7.5 3.5C6.94772 3.5 6.5 3.94772 6.5 4.5V6.25H4.75C4.19772 6.25 3.75 6.69771 3.75 7.25V8.25C3.75 8.80228 4.19772 9.25 4.75 9.25H6.5V11C6.5 11.5523 6.94772 12 7.5 12H8.5C9.05228 12 9.5 11.5523 9.5 11V9.25H11.25C11.8023 9.25 12.25 8.80228 12.25 8.25V7.25C12.25 6.69772 11.8023 6.25 11.25 6.25H9.5V4.5C9.5 3.94772 9.05228 3.5 8.5 3.5H7.5Z"/>
</mask>
<path d="M6.5 6.25V7.25H7.5V6.25H6.5ZM6.5 9.25H7.5V8.25H6.5V9.25ZM9.5 9.25V8.25H8.5V9.25H9.5ZM9.5 6.25H8.5V7.25H9.5V6.25ZM7.5 4.5V4.5V2.5C6.39543 2.5 5.5 3.39543 5.5 4.5H7.5ZM7.5 6.25V4.5H5.5V6.25H7.5ZM4.75 7.25H6.5V5.25H4.75V7.25ZM4.75 7.25V7.25V5.25C3.64543 5.25 2.75 6.14543 2.75 7.25H4.75ZM4.75 8.25V7.25H2.75V8.25H4.75ZM4.75 8.25H4.75H2.75C2.75 9.35457 3.64543 10.25 4.75 10.25V8.25ZM6.5 8.25H4.75V10.25H6.5V8.25ZM7.5 11V9.25H5.5V11H7.5ZM7.5 11H5.5C5.5 12.1046 6.39543 13 7.5 13V11ZM8.5 11H7.5V13H8.5V11ZM8.5 11V13C9.60457 13 10.5 12.1046 10.5 11H8.5ZM8.5 9.25V11H10.5V9.25H8.5ZM11.25 8.25H9.5V10.25H11.25V8.25ZM11.25 8.25V10.25C12.3546 10.25 13.25 9.35457 13.25 8.25H11.25ZM11.25 7.25V8.25H13.25V7.25H11.25ZM11.25 7.25H13.25C13.25 6.14543 12.3546 5.25 11.25 5.25V7.25ZM9.5 7.25H11.25V5.25H9.5V7.25ZM8.5 4.5V6.25H10.5V4.5H8.5ZM8.5 4.5H10.5C10.5 3.39543 9.60457 2.5 8.5 2.5V4.5ZM7.5 4.5H8.5V2.5H7.5V4.5Z" fill="#2B5469" fill-opacity="0.8" mask="url(#path-2-inside-1_2155_2285)"/>
</svg>
