<svg xmlns="http://www.w3.org/2000/svg" width="15.265" height="14" viewBox="0 0 16 14" fill="none">
  <path d="M7.62707 8.79165C7.62955 8.2127 7.74735 7.64004 7.97358 7.10711C8.19982 6.57418 8.52996 6.09167 8.94474 5.68774C9.35951 5.28381 9.8506 4.96656 10.3893 4.75452C10.9281 4.54248 11.5036 4.43989 12.0825 4.45274C12.6115 4.45487 13.1363 4.54744 13.6342 4.72643L8.03315 0.143749C7.91946 0.0507861 7.77711 0 7.63025 0C7.48339 0 7.34105 0.0507861 7.22736 0.143749L0.226038 5.8721C0.0983124 5.97987 0.0180947 6.13355 0.002706 6.29995C-0.0126827 6.46636 0.0379923 6.63214 0.143789 6.76151C0.249586 6.89087 0.402016 6.97343 0.568167 6.99137C0.734317 7.00931 0.900857 6.96118 1.03183 6.85738L1.89872 6.14324V13.3635C1.89872 13.5323 1.96578 13.6942 2.08514 13.8136C2.2045 13.9329 2.3664 14 2.5352 14H10.6523C9.65809 13.0313 7.62707 10.8055 7.62707 8.79165Z" fill="#212121"/>
  <path d="M12.0823 5.72572C11.6711 5.71455 11.2618 5.78536 10.8783 5.93403C10.4948 6.08269 10.1447 6.30624 9.84846 6.59163C9.55223 6.87701 9.31579 7.21853 9.15293 7.59625C8.99008 7.97398 8.90406 8.38035 8.8999 8.79167C8.8999 10.5204 11.3625 12.9199 11.6431 13.1879L12.0823 13.6073L12.5215 13.1879C12.8022 12.918 15.2647 10.5204 15.2647 8.79167C15.2606 8.38035 15.1746 7.97398 15.0117 7.59625C14.8489 7.21853 14.6124 6.87701 14.3162 6.59163C14.02 6.30624 13.6699 6.08269 13.2863 5.93403C12.9028 5.78536 12.4935 5.71455 12.0823 5.72572ZM12.0823 10.1811C11.8306 10.1811 11.5844 10.1065 11.3751 9.96658C11.1658 9.8267 11.0026 9.62789 10.9063 9.39528C10.8099 9.16268 10.7847 8.90673 10.8338 8.6598C10.8829 8.41287 11.0042 8.18605 11.1822 8.00802C11.3602 7.82999 11.587 7.70875 11.834 7.65963C12.0809 7.61052 12.3369 7.63572 12.5695 7.73207C12.8021 7.82842 13.0009 7.99158 13.1408 8.20092C13.2806 8.41026 13.3553 8.65637 13.3553 8.90814C13.3553 9.24575 13.2212 9.56954 12.9824 9.80827C12.7437 10.047 12.4199 10.1811 12.0823 10.1811Z" fill="#212121"/>
</svg>
