<svg width="16" height="16" viewBox="0 0 16 16" fill="none" xmlns="http://www.w3.org/2000/svg">
<path fill-rule="evenodd" clip-rule="evenodd" d="M8.28948 0.76161C8.21824 0.675111 8.11206 0.625 8 0.625C7.88795 0.625 7.78176 0.675111 7.71053 0.76161L0.710528 9.26161C0.587763 9.41068 0.598284 9.62861 0.734837 9.76517L1.73484 10.7652C1.81026 10.8406 1.91424 10.8803 2.02074 10.8744C2.12724 10.8685 2.22619 10.8176 2.29283 10.7343L3.625 9.06904V13C3.625 13.2071 3.7929 13.375 4 13.375H12C12.2071 13.375 12.375 13.2071 12.375 13V9.06904L13.7072 10.7343C13.7738 10.8176 13.8728 10.8685 13.9793 10.8744C14.0858 10.8803 14.1897 10.8406 14.2652 10.7652L15.2652 9.76517C15.4017 9.62861 15.4122 9.41068 15.2895 9.26161L12.875 6.32975V2C12.875 1.79289 12.7071 1.625 12.5 1.625H11C10.7929 1.625 10.625 1.79289 10.625 2V3.59761L8.28948 0.76161ZM4.375 12.625V8.13154L8 3.60029L11.625 8.13154V12.625H9.375V10C9.375 9.79289 9.20711 9.625 9 9.625H7C6.7929 9.625 6.625 9.79289 6.625 10V12.625H4.375ZM7.375 12.625H8.625V10.375H7.375V12.625ZM11.3681 4.5L12.125 5.41903V2.375H11.375V4.5H11.3681ZM1.96891 9.93857L1.50591 9.47558L8 1.58989L14.4941 9.47558L14.0311 9.93857L8.29283 2.76574C8.22166 2.67678 8.11392 2.625 8 2.625C7.88608 2.625 7.77834 2.67678 7.70718 2.76574L1.96891 9.93857Z" fill="#2B5469" fill-opacity="0.8"/>
</svg>
