<svg width="16" height="16" viewBox="0 0 16 16" fill="none" xmlns="http://www.w3.org/2000/svg">
<mask id="path-1-inside-1_2155_2287" fill="white">
<path fill-rule="evenodd" clip-rule="evenodd" d="M6 3V2H8H10V3H6ZM11 2V3H14C14.5523 3 15 3.44772 15 4V5V13C15 13.5523 14.5523 14 14 14H2C1.44772 14 1 13.5523 1 13V5V4C1 3.44772 1.44772 3 2 3H5V2C5 1.44772 5.44772 1 6 1H8H10C10.5523 1 11 1.44772 11 2ZM2 5C2 6.10457 2.89543 7 4 7H6C6 6.44772 6.44772 6 7 6H9C9.55229 6 10 6.44772 10 7H12C13.1046 7 14 6.10457 14 5V4H10H6H2V5ZM6 8C6 8.55228 6.44772 9 7 9H9C9.55229 9 10 8.55228 10 8H12C12.7684 8 13.4692 7.71115 14 7.23611V13H2V7.23611C2.53076 7.71115 3.23165 8 4 8H6Z"/>
</mask>
<path fill-rule="evenodd" clip-rule="evenodd" d="M6 3V2H8H10V3H6ZM11 2V3H14C14.5523 3 15 3.44772 15 4V5V13C15 13.5523 14.5523 14 14 14H2C1.44772 14 1 13.5523 1 13V5V4C1 3.44772 1.44772 3 2 3H5V2C5 1.44772 5.44772 1 6 1H8H10C10.5523 1 11 1.44772 11 2ZM2 5C2 6.10457 2.89543 7 4 7H6C6 6.44772 6.44772 6 7 6H9C9.55229 6 10 6.44772 10 7H12C13.1046 7 14 6.10457 14 5V4H10H6H2V5ZM6 8C6 8.55228 6.44772 9 7 9H9C9.55229 9 10 8.55228 10 8H12C12.7684 8 13.4692 7.71115 14 7.23611V13H2V7.23611C2.53076 7.71115 3.23165 8 4 8H6Z" fill="white"/>
<path d="M6 2V1H5V2H6ZM6 3H5V4H6V3ZM10 2H11V1H10V2ZM10 3V4H11V3H10ZM11 3H10V4H11V3ZM5 3V4H6V3H5ZM6 7V8H7V7H6ZM10 7H9V8H10V7ZM14 4H15V3H14V4ZM2 4V3H1V4H2ZM6 8H7V7H6V8ZM10 8V7H9V8H10ZM14 7.23611H15V4.99904L13.3331 6.49097L14 7.23611ZM14 13V14H15V13H14ZM2 13H1V14H2V13ZM2 7.23611L2.66691 6.49097L1 4.99904V7.23611H2ZM5 2V3H7V2H5ZM8 1H6V3H8V1ZM10 1H8V3H10V1ZM11 3V2H9V3H11ZM6 4H10V2H6V4ZM12 3V2H10V3H12ZM14 2H11V4H14V2ZM16 4C16 2.89543 15.1046 2 14 2V4H16ZM16 5V4H14V5H16ZM16 13V5H14V13H16ZM14 15C15.1046 15 16 14.1046 16 13H14V15ZM2 15H14V13H2V15ZM0 13C0 14.1046 0.895431 15 2 15V13H2H0ZM0 5V13H2V5H0ZM0 4V5H2V4H0ZM2 2C0.895431 2 0 2.89543 0 4H2V4V2ZM5 2H2V4H5V2ZM4 2V3H6V2H4ZM6 0C4.89543 0 4 0.895431 4 2H6V0ZM8 0H6V2H8V0ZM10 0H8V2H10V0ZM12 2C12 0.89543 11.1046 0 10 0V2H12ZM4 6C3.44772 6 3 5.55228 3 5H1C1 6.65685 2.34315 8 4 8V6ZM6 6H4V8H6V6ZM7 7V5C5.89543 5 5 5.89543 5 7H7ZM7 7H9V5H7V7ZM9 7H11C11 5.89543 10.1046 5 9 5V7ZM12 6H10V8H12V6ZM13 5C13 5.55228 12.5523 6 12 6V8C13.6569 8 15 6.65685 15 5H13ZM13 4V5H15V4H13ZM10 5H14V3H10V5ZM6 5H10V3H6V5ZM2 5H6V3H2V5ZM3 5V4H1V5H3ZM7 8H5C5 9.10457 5.89543 10 7 10V8ZM9 8H7V10H9V8ZM9 8V10C10.1046 10 11 9.10457 11 8H9ZM10 9H12V7H10V9ZM12 9C13.0238 9 13.9599 8.61403 14.6669 7.98124L13.3331 6.49097C12.9786 6.80826 12.5129 7 12 7V9ZM13 7.23611V13H15V7.23611H13ZM14 12H2V14H14V12ZM3 13V7.23611H1V13H3ZM1.33309 7.98124C2.0401 8.61403 2.97617 9 4 9V7C3.48712 7 3.02142 6.80826 2.66691 6.49097L1.33309 7.98124ZM4 9H6V7H4V9Z" fill="#2B5469" fill-opacity="0.8" mask="url(#path-1-inside-1_2155_2287)"/>
</svg>
