<svg xmlns="http://www.w3.org/2000/svg" width="16" height="16" viewBox="0 0 16 16" fill="none">
  <path d="M7.66667 0C3.43233 0 0 3.43233 0 7.66667C0 11.901 3.43233 15.3333 7.66667 15.3333C11.901 15.3333 15.3333 11.901 15.3333 7.66667C15.3333 3.43233 11.901 0 7.66667 0ZM8.33333 12C8.33333 12.184 8.184 12.3333 8 12.3333H7.33333C7.14933 12.3333 7 12.184 7 12V6C7 5.816 7.14933 5.66667 7.33333 5.66667H8C8.184 5.66667 8.33333 5.816 8.33333 6V12ZM7.66667 4.33333C7.20633 4.33333 6.83333 3.96033 6.83333 3.5C6.83333 3.03967 7.20633 2.66667 7.66667 2.66667C8.127 2.66667 8.5 3.03967 8.5 3.5C8.5 3.96033 8.127 4.33333 7.66667 4.33333Z" fill="#9DB0B7"/>
</svg>
