<svg width="17" height="16" viewBox="0 0 17 16" fill="none" xmlns="http://www.w3.org/2000/svg">
<path d="M8.11111 0C3.71111 0 0.111115 3.6 0.111115 8C0.111115 12.4 3.71111 16 8.11111 16C12.5111 16 16.1111 12.4 16.1111 8C16.1111 3.6 12.5111 0 8.11111 0ZM8.11111 10C7.01111 10 6.11111 9.1 6.11111 8C6.11111 6.9 7.01111 6 8.11111 6C9.21111 6 10.1111 6.9 10.1111 8C10.1111 9.1 9.21111 10 8.11111 10ZM8.11111 2C9.01111 2 9.91111 2.2 10.7111 2.6L9.15511 4.156C8.39411 3.949 7.82811 3.949 7.06611 4.156L5.51111 2.6C6.31111 2.2 7.21111 2 8.11111 2ZM2.11111 8C2.11111 7.1 2.31111 6.2 2.71111 5.4L4.26711 6.956C4.06011 7.717 4.06011 8.283 4.26711 9.045L2.71111 10.6C2.31111 9.8 2.11111 8.9 2.11111 8ZM8.11111 14C7.21111 14 6.31111 13.8 5.51111 13.4L7.06711 11.844C7.82811 12.051 8.39411 12.051 9.15611 11.844L10.7111 13.4C9.91111 13.8 9.01111 14 8.11111 14ZM13.5111 10.6L11.9551 9.044C12.1621 8.283 12.1621 7.717 11.9551 6.955L13.5111 5.4C13.9111 6.2 14.1111 7.1 14.1111 8C14.1111 8.9 13.9111 9.8 13.5111 10.6Z" fill="#212121"/>
</svg>
