<svg width="16" height="16" viewBox="0 0 16 16" fill="none" xmlns="http://www.w3.org/2000/svg">
<path d="M1.28712 8.31932L2.5 6.5C2.66667 5.66667 2.6 4.8 3 4C3.5 3 5 1.5 8 1.5C11 1.5 13.5 3.81625 13.5 6.5C13.5 9.18375 12 11.1667 11 12V15H5.5V13L3.6644 13.3059C3.05487 13.4075 2.5 12.9375 2.5 12.3195V10L1.87664 9.84416C1.20575 9.67644 0.903529 8.89471 1.28712 8.31932Z" stroke="#2B5469" stroke-opacity="0.8" stroke-linejoin="round"/>
<path d="M10.5 4.00032C9.70003 3.60032 8.33419 4.33391 8.00085 5.00058C7.50085 4.50059 6.3112 3.5943 5.5 4C4.50024 4.5 4.64758 5.64649 5.00081 6.00037C5.4999 6.50037 6.83419 8.0006 8.00085 9.0006L11 6.00037C11.5 5.50037 11.3 4.40032 10.5 4.00032Z" stroke="#2B5469" stroke-opacity="0.8" stroke-linejoin="round"/>
</svg>
