<svg width="78" height="6" viewBox="0 0 78 6" fill="none" xmlns="http://www.w3.org/2000/svg">
<g clip-path="url(#clip0_3550_2318)">
<path d="M3.1857 0.33275C3.16227 0.306713 3.13362 0.285891 3.10162 0.271636C3.06962 0.25738 3.03498 0.250009 2.99995 0.25H0.749953C0.701631 0.250013 0.654349 0.264029 0.613827 0.290353C0.573305 0.316677 0.54128 0.354181 0.521628 0.398326C0.501975 0.442471 0.495538 0.491365 0.503094 0.539092C0.51065 0.58682 0.531876 0.631334 0.564203 0.66725L2.66345 3L0.563453 5.33275C0.531083 5.36871 0.509844 5.4133 0.502314 5.46109C0.494784 5.50889 0.501285 5.55784 0.52103 5.60202C0.540774 5.64619 0.572913 5.68369 0.613548 5.70995C0.654183 5.73622 0.701567 5.75013 0.749953 5.75H2.99995C3.03498 5.74999 3.06962 5.74262 3.10162 5.72836C3.13362 5.71411 3.16227 5.69329 3.1857 5.66725L5.4357 3.16725C5.47702 3.12134 5.49989 3.06176 5.49989 3C5.49989 2.93824 5.47702 2.87866 5.4357 2.83275L3.1857 0.33275Z" fill="black"/>
</g>
<g clip-path="url(#clip1_3550_2318)">
<path d="M9.1857 0.33275C9.16227 0.306713 9.13362 0.285891 9.10162 0.271636C9.06962 0.25738 9.03498 0.250009 8.99995 0.25H6.74995C6.70163 0.250013 6.65435 0.264029 6.61383 0.290353C6.5733 0.316677 6.54128 0.354181 6.52163 0.398326C6.50198 0.442471 6.49554 0.491365 6.50309 0.539092C6.51065 0.58682 6.53188 0.631334 6.5642 0.66725L8.66345 3L6.56345 5.33275C6.53108 5.36871 6.50984 5.4133 6.50231 5.46109C6.49478 5.50889 6.50129 5.55784 6.52103 5.60202C6.54077 5.64619 6.57291 5.68369 6.61355 5.70995C6.65418 5.73622 6.70157 5.75013 6.74995 5.75H8.99995C9.03498 5.74999 9.06962 5.74262 9.10162 5.72836C9.13362 5.71411 9.16227 5.69329 9.1857 5.66725L11.4357 3.16725C11.477 3.12134 11.4999 3.06176 11.4999 3C11.4999 2.93824 11.477 2.87866 11.4357 2.83275L9.1857 0.33275Z" fill="black"/>
</g>
<g clip-path="url(#clip2_3550_2318)">
<path d="M15.1857 0.33275C15.1623 0.306713 15.1336 0.285891 15.1016 0.271636C15.0696 0.25738 15.035 0.250009 15 0.25H12.75C12.7016 0.250013 12.6543 0.264029 12.6138 0.290353C12.5733 0.316677 12.5413 0.354181 12.5216 0.398326C12.502 0.442471 12.4955 0.491365 12.5031 0.539092C12.5106 0.58682 12.5319 0.631334 12.5642 0.66725L14.6635 3L12.5635 5.33275C12.5311 5.36871 12.5098 5.4133 12.5023 5.46109C12.4948 5.50889 12.5013 5.55784 12.521 5.60202C12.5408 5.64619 12.5729 5.68369 12.6135 5.70995C12.6542 5.73622 12.7016 5.75013 12.75 5.75H15C15.035 5.74999 15.0696 5.74262 15.1016 5.72836C15.1336 5.71411 15.1623 5.69329 15.1857 5.66725L17.4357 3.16725C17.477 3.12134 17.4999 3.06176 17.4999 3C17.4999 2.93824 17.477 2.87866 17.4357 2.83275L15.1857 0.33275Z" fill="black"/>
</g>
<g clip-path="url(#clip3_3550_2318)">
<path d="M21.1857 0.33275C21.1623 0.306713 21.1336 0.285891 21.1016 0.271636C21.0696 0.25738 21.035 0.250009 21 0.25H18.75C18.7016 0.250013 18.6543 0.264029 18.6138 0.290353C18.5733 0.316677 18.5413 0.354181 18.5216 0.398326C18.502 0.442471 18.4955 0.491365 18.5031 0.539092C18.5106 0.58682 18.5319 0.631334 18.5642 0.66725L20.6635 3L18.5635 5.33275C18.5311 5.36871 18.5098 5.4133 18.5023 5.46109C18.4948 5.50889 18.5013 5.55784 18.521 5.60202C18.5408 5.64619 18.5729 5.68369 18.6135 5.70995C18.6542 5.73622 18.7016 5.75013 18.75 5.75H21C21.035 5.74999 21.0696 5.74262 21.1016 5.72836C21.1336 5.71411 21.1623 5.69329 21.1857 5.66725L23.4357 3.16725C23.477 3.12134 23.4999 3.06176 23.4999 3C23.4999 2.93824 23.477 2.87866 23.4357 2.83275L21.1857 0.33275Z" fill="black"/>
</g>
<g clip-path="url(#clip4_3550_2318)">
<path d="M27.1857 0.33275C27.1623 0.306713 27.1336 0.285891 27.1016 0.271636C27.0696 0.25738 27.035 0.250009 27 0.25H24.75C24.7016 0.250013 24.6543 0.264029 24.6138 0.290353C24.5733 0.316677 24.5413 0.354181 24.5216 0.398326C24.502 0.442471 24.4955 0.491365 24.5031 0.539092C24.5106 0.58682 24.5319 0.631334 24.5642 0.66725L26.6635 3L24.5635 5.33275C24.5311 5.36871 24.5098 5.4133 24.5023 5.46109C24.4948 5.50889 24.5013 5.55784 24.521 5.60202C24.5408 5.64619 24.5729 5.68369 24.6135 5.70995C24.6542 5.73622 24.7016 5.75013 24.75 5.75H27C27.035 5.74999 27.0696 5.74262 27.1016 5.72836C27.1336 5.71411 27.1623 5.69329 27.1857 5.66725L29.4357 3.16725C29.477 3.12134 29.4999 3.06176 29.4999 3C29.4999 2.93824 29.477 2.87866 29.4357 2.83275L27.1857 0.33275Z" fill="black"/>
</g>
<g clip-path="url(#clip5_3550_2318)">
<path d="M33.1857 0.33275C33.1623 0.306713 33.1336 0.285891 33.1016 0.271636C33.0696 0.25738 33.035 0.250009 33 0.25H30.75C30.7016 0.250013 30.6543 0.264029 30.6138 0.290353C30.5733 0.316677 30.5413 0.354181 30.5216 0.398326C30.502 0.442471 30.4955 0.491365 30.5031 0.539092C30.5106 0.58682 30.5319 0.631334 30.5642 0.66725L32.6635 3L30.5635 5.33275C30.5311 5.36871 30.5098 5.4133 30.5023 5.46109C30.4948 5.50889 30.5013 5.55784 30.521 5.60202C30.5408 5.64619 30.5729 5.68369 30.6135 5.70995C30.6542 5.73622 30.7016 5.75013 30.75 5.75H33C33.035 5.74999 33.0696 5.74262 33.1016 5.72836C33.1336 5.71411 33.1623 5.69329 33.1857 5.66725L35.4357 3.16725C35.477 3.12134 35.4999 3.06176 35.4999 3C35.4999 2.93824 35.477 2.87866 35.4357 2.83275L33.1857 0.33275Z" fill="black"/>
</g>
<g clip-path="url(#clip6_3550_2318)">
<path d="M39.1857 0.33275C39.1623 0.306713 39.1336 0.285891 39.1016 0.271636C39.0696 0.25738 39.035 0.250009 39 0.25H36.75C36.7016 0.250013 36.6543 0.264029 36.6138 0.290353C36.5733 0.316677 36.5413 0.354181 36.5216 0.398326C36.502 0.442471 36.4955 0.491365 36.5031 0.539092C36.5106 0.58682 36.5319 0.631334 36.5642 0.66725L38.6635 3L36.5635 5.33275C36.5311 5.36871 36.5098 5.4133 36.5023 5.46109C36.4948 5.50889 36.5013 5.55784 36.521 5.60202C36.5408 5.64619 36.5729 5.68369 36.6135 5.70995C36.6542 5.73622 36.7016 5.75013 36.75 5.75H39C39.035 5.74999 39.0696 5.74262 39.1016 5.72836C39.1336 5.71411 39.1623 5.69329 39.1857 5.66725L41.4357 3.16725C41.477 3.12134 41.4999 3.06176 41.4999 3C41.4999 2.93824 41.477 2.87866 41.4357 2.83275L39.1857 0.33275Z" fill="black"/>
</g>
<g clip-path="url(#clip7_3550_2318)">
<path d="M45.1857 0.33275C45.1623 0.306713 45.1336 0.285891 45.1016 0.271636C45.0696 0.25738 45.035 0.250009 45 0.25H42.75C42.7016 0.250013 42.6543 0.264029 42.6138 0.290353C42.5733 0.316677 42.5413 0.354181 42.5216 0.398326C42.502 0.442471 42.4955 0.491365 42.5031 0.539092C42.5106 0.58682 42.5319 0.631334 42.5642 0.66725L44.6635 3L42.5635 5.33275C42.5311 5.36871 42.5098 5.4133 42.5023 5.46109C42.4948 5.50889 42.5013 5.55784 42.521 5.60202C42.5408 5.64619 42.5729 5.68369 42.6135 5.70995C42.6542 5.73622 42.7016 5.75013 42.75 5.75H45C45.035 5.74999 45.0696 5.74262 45.1016 5.72836C45.1336 5.71411 45.1623 5.69329 45.1857 5.66725L47.4357 3.16725C47.477 3.12134 47.4999 3.06176 47.4999 3C47.4999 2.93824 47.477 2.87866 47.4357 2.83275L45.1857 0.33275Z" fill="black"/>
</g>
<g clip-path="url(#clip8_3550_2318)">
<path d="M51.1857 0.33275C51.1623 0.306713 51.1336 0.285891 51.1016 0.271636C51.0696 0.25738 51.035 0.250009 51 0.25H48.75C48.7016 0.250013 48.6543 0.264029 48.6138 0.290353C48.5733 0.316677 48.5413 0.354181 48.5216 0.398326C48.502 0.442471 48.4955 0.491365 48.5031 0.539092C48.5106 0.58682 48.5319 0.631334 48.5642 0.66725L50.6635 3L48.5635 5.33275C48.5311 5.36871 48.5098 5.4133 48.5023 5.46109C48.4948 5.50889 48.5013 5.55784 48.521 5.60202C48.5408 5.64619 48.5729 5.68369 48.6135 5.70995C48.6542 5.73622 48.7016 5.75013 48.75 5.75H51C51.035 5.74999 51.0696 5.74262 51.1016 5.72836C51.1336 5.71411 51.1623 5.69329 51.1857 5.66725L53.4357 3.16725C53.477 3.12134 53.4999 3.06176 53.4999 3C53.4999 2.93824 53.477 2.87866 53.4357 2.83275L51.1857 0.33275Z" fill="black"/>
</g>
<g clip-path="url(#clip9_3550_2318)">
<path d="M57.1857 0.33275C57.1623 0.306713 57.1336 0.285891 57.1016 0.271636C57.0696 0.25738 57.035 0.250009 57 0.25H54.75C54.7016 0.250013 54.6543 0.264029 54.6138 0.290353C54.5733 0.316677 54.5413 0.354181 54.5216 0.398326C54.502 0.442471 54.4955 0.491365 54.5031 0.539092C54.5106 0.58682 54.5319 0.631334 54.5642 0.66725L56.6635 3L54.5635 5.33275C54.5311 5.36871 54.5098 5.4133 54.5023 5.46109C54.4948 5.50889 54.5013 5.55784 54.521 5.60202C54.5408 5.64619 54.5729 5.68369 54.6135 5.70995C54.6542 5.73622 54.7016 5.75013 54.75 5.75H57C57.035 5.74999 57.0696 5.74262 57.1016 5.72836C57.1336 5.71411 57.1623 5.69329 57.1857 5.66725L59.4357 3.16725C59.477 3.12134 59.4999 3.06176 59.4999 3C59.4999 2.93824 59.477 2.87866 59.4357 2.83275L57.1857 0.33275Z" fill="black"/>
</g>
<g clip-path="url(#clip10_3550_2318)">
<path d="M63.1857 0.33275C63.1623 0.306713 63.1336 0.285891 63.1016 0.271636C63.0696 0.25738 63.035 0.250009 63 0.25H60.75C60.7016 0.250013 60.6543 0.264029 60.6138 0.290353C60.5733 0.316677 60.5413 0.354181 60.5216 0.398326C60.502 0.442471 60.4955 0.491365 60.5031 0.539092C60.5106 0.58682 60.5319 0.631334 60.5642 0.66725L62.6635 3L60.5635 5.33275C60.5311 5.36871 60.5098 5.4133 60.5023 5.46109C60.4948 5.50889 60.5013 5.55784 60.521 5.60202C60.5408 5.64619 60.5729 5.68369 60.6135 5.70995C60.6542 5.73622 60.7016 5.75013 60.75 5.75H63C63.035 5.74999 63.0696 5.74262 63.1016 5.72836C63.1336 5.71411 63.1623 5.69329 63.1857 5.66725L65.4357 3.16725C65.477 3.12134 65.4999 3.06176 65.4999 3C65.4999 2.93824 65.477 2.87866 65.4357 2.83275L63.1857 0.33275Z" fill="black"/>
</g>
<g clip-path="url(#clip11_3550_2318)">
<path d="M69.1857 0.33275C69.1623 0.306713 69.1336 0.285891 69.1016 0.271636C69.0696 0.25738 69.035 0.250009 69 0.25H66.75C66.7016 0.250013 66.6543 0.264029 66.6138 0.290353C66.5733 0.316677 66.5413 0.354181 66.5216 0.398326C66.502 0.442471 66.4955 0.491365 66.5031 0.539092C66.5106 0.58682 66.5319 0.631334 66.5642 0.66725L68.6635 3L66.5635 5.33275C66.5311 5.36871 66.5098 5.4133 66.5023 5.46109C66.4948 5.50889 66.5013 5.55784 66.521 5.60202C66.5408 5.64619 66.5729 5.68369 66.6135 5.70995C66.6542 5.73622 66.7016 5.75013 66.75 5.75H69C69.035 5.74999 69.0696 5.74262 69.1016 5.72836C69.1336 5.71411 69.1623 5.69329 69.1857 5.66725L71.4357 3.16725C71.477 3.12134 71.4999 3.06176 71.4999 3C71.4999 2.93824 71.477 2.87866 71.4357 2.83275L69.1857 0.33275Z" fill="black"/>
</g>
<g clip-path="url(#clip12_3550_2318)">
<path d="M75.1857 0.33275C75.1623 0.306713 75.1336 0.285891 75.1016 0.271636C75.0696 0.25738 75.035 0.250009 75 0.25H72.75C72.7016 0.250013 72.6543 0.264029 72.6138 0.290353C72.5733 0.316677 72.5413 0.354181 72.5216 0.398326C72.502 0.442471 72.4955 0.491365 72.5031 0.539092C72.5106 0.58682 72.5319 0.631334 72.5642 0.66725L74.6635 3L72.5635 5.33275C72.5311 5.36871 72.5098 5.4133 72.5023 5.46109C72.4948 5.50889 72.5013 5.55784 72.521 5.60202C72.5408 5.64619 72.5729 5.68369 72.6135 5.70995C72.6542 5.73622 72.7016 5.75013 72.75 5.75H75C75.035 5.74999 75.0696 5.74262 75.1016 5.72836C75.1336 5.71411 75.1623 5.69329 75.1857 5.66725L77.4357 3.16725C77.477 3.12134 77.4999 3.06176 77.4999 3C77.4999 2.93824 77.477 2.87866 77.4357 2.83275L75.1857 0.33275Z" fill="black"/>
</g>
<defs>
<clipPath id="clip0_3550_2318">
<rect width="6" height="6" fill="white"/>
</clipPath>
<clipPath id="clip1_3550_2318">
<rect width="6" height="6" fill="white" transform="translate(6)"/>
</clipPath>
<clipPath id="clip2_3550_2318">
<rect width="6" height="6" fill="white" transform="translate(12)"/>
</clipPath>
<clipPath id="clip3_3550_2318">
<rect width="6" height="6" fill="white" transform="translate(18)"/>
</clipPath>
<clipPath id="clip4_3550_2318">
<rect width="6" height="6" fill="white" transform="translate(24)"/>
</clipPath>
<clipPath id="clip5_3550_2318">
<rect width="6" height="6" fill="white" transform="translate(30)"/>
</clipPath>
<clipPath id="clip6_3550_2318">
<rect width="6" height="6" fill="white" transform="translate(36)"/>
</clipPath>
<clipPath id="clip7_3550_2318">
<rect width="6" height="6" fill="white" transform="translate(42)"/>
</clipPath>
<clipPath id="clip8_3550_2318">
<rect width="6" height="6" fill="white" transform="translate(48)"/>
</clipPath>
<clipPath id="clip9_3550_2318">
<rect width="6" height="6" fill="white" transform="translate(54)"/>
</clipPath>
<clipPath id="clip10_3550_2318">
<rect width="6" height="6" fill="white" transform="translate(60)"/>
</clipPath>
<clipPath id="clip11_3550_2318">
<rect width="6" height="6" fill="white" transform="translate(66)"/>
</clipPath>
<clipPath id="clip12_3550_2318">
<rect width="6" height="6" fill="white" transform="translate(72)"/>
</clipPath>
</defs>
</svg>
