<svg width="16" height="16" viewBox="0 0 16 16" fill="none" xmlns="http://www.w3.org/2000/svg">
<path fill-rule="evenodd" clip-rule="evenodd" d="M5.70327 9.67705L9.61337 5.80642L7.90619 4.08183C6.83734 3.00208 5.09556 2.99325 4.01582 4.06209C2.93608 5.13094 2.92724 6.87271 3.99608 7.95246L5.70327 9.67705ZM4.99258 10.3806L3.2854 8.65597C1.82802 7.18372 1.84007 4.80879 3.31231 3.35141C4.78455 1.89403 7.15949 1.90607 8.61687 3.37832L13.259 8.0678C14.0746 8.8917 14.43 9.99829 14.3268 11.0686C14.2457 11.911 13.8805 12.731 13.2321 13.3729C11.7598 14.8303 9.38488 14.8183 7.9275 13.346L4.99228 10.3809L4.99258 10.3806Z" fill="#2B5469" fill-opacity="0.8"/>
<circle cx="6.5" cy="4.5" r="0.5" fill="#2B5469" fill-opacity="0.8"/>
<path d="M8 6L7.5 5.5" stroke="#2B5469" stroke-opacity="0.8" stroke-linecap="round" stroke-linejoin="round"/>
</svg>
