<svg width="16" height="16" viewBox="0 0 16 16" fill="none" xmlns="http://www.w3.org/2000/svg">
<path fill-rule="evenodd" clip-rule="evenodd" d="M4.72484 3.32444C4.79802 3.12929 4.98458 3 5.193 3H10.807C11.0154 3 11.202 3.12929 11.2752 3.32444L12.2785 6H3.7215L4.72484 3.32444ZM2.99044 7.00004C2.99679 7.00017 3.00313 7.00017 3.00946 7.00004C3.55739 7.00512 4 7.45087 4 8C4 8.55228 3.55228 9 3 9C2.44772 9 2 8.55228 2 8C2 7.45091 2.44256 7.00518 2.99044 7.00004ZM2.64148 6.03204L3.78851 2.97331C4.00805 2.38786 4.56773 2 5.193 2H10.807C11.4323 2 11.9919 2.38786 12.2115 2.97331L13.3585 6.03204C14.292 6.20099 15 7.01781 15 8V11H14V12.25C14 12.9404 13.4404 13.5 12.75 13.5C12.0596 13.5 11.5 12.9404 11.5 12.25V11H4.5V12.25C4.5 12.9404 3.94036 13.5 3.25 13.5C2.55964 13.5 2 12.9404 2 12.25V11H1V8C1 7.01781 1.708 6.20099 2.64148 6.03204ZM12.9907 7.00005C12.997 7.00017 13.0033 7.00016 13.0096 7.00004C13.5574 7.00518 14 7.45091 14 8C14 8.55228 13.5523 9 13 9C12.4477 9 12 8.55228 12 8C12 7.45081 12.4427 7.00503 12.9907 7.00005Z" fill="#2B5469" fill-opacity="0.8"/>
</svg>
