<svg width="271" height="40" viewBox="0 0 271 40" fill="none" xmlns="http://www.w3.org/2000/svg">
<rect width="271" height="40" rx="12" fill="white"/>
<path d="M26.7727 18H25.3636C25.2803 17.5947 25.1345 17.2386 24.9261 16.9318C24.7216 16.625 24.4716 16.3674 24.1761 16.1591C23.8845 15.947 23.5606 15.7879 23.2045 15.6818C22.8485 15.5758 22.4773 15.5227 22.0909 15.5227C21.3864 15.5227 20.7481 15.7008 20.1761 16.0568C19.608 16.4129 19.1553 16.9375 18.8182 17.6307C18.4848 18.3239 18.3182 19.1742 18.3182 20.1818C18.3182 21.1894 18.4848 22.0398 18.8182 22.733C19.1553 23.4261 19.608 23.9508 20.1761 24.3068C20.7481 24.6629 21.3864 24.8409 22.0909 24.8409C22.4773 24.8409 22.8485 24.7879 23.2045 24.6818C23.5606 24.5758 23.8845 24.4186 24.1761 24.2102C24.4716 23.9981 24.7216 23.7386 24.9261 23.4318C25.1345 23.1212 25.2803 22.7652 25.3636 22.3636H26.7727C26.6667 22.9583 26.4735 23.4905 26.1932 23.9602C25.9129 24.4299 25.5644 24.8295 25.1477 25.1591C24.7311 25.4848 24.2633 25.733 23.7443 25.9034C23.2292 26.0739 22.678 26.1591 22.0909 26.1591C21.0985 26.1591 20.2159 25.9167 19.4432 25.4318C18.6705 24.947 18.0625 24.2576 17.6193 23.3636C17.1761 22.4697 16.9545 21.4091 16.9545 20.1818C16.9545 18.9545 17.1761 17.8939 17.6193 17C18.0625 16.1061 18.6705 15.4167 19.4432 14.9318C20.2159 14.447 21.0985 14.2045 22.0909 14.2045C22.678 14.2045 23.2292 14.2898 23.7443 14.4602C24.2633 14.6307 24.7311 14.8807 25.1477 15.2102C25.5644 15.536 25.9129 15.9337 26.1932 16.4034C26.4735 16.8693 26.6667 17.4015 26.7727 18ZM29.8888 14.3636V26H28.5479V14.3636H29.8888ZM32.0248 26V17.2727H33.3657V26H32.0248ZM32.7066 15.8182C32.4452 15.8182 32.2198 15.7292 32.0305 15.5511C31.8448 15.3731 31.752 15.1591 31.752 14.9091C31.752 14.6591 31.8448 14.4451 32.0305 14.267C32.2198 14.089 32.4452 14 32.7066 14C32.968 14 33.1914 14.089 33.377 14.267C33.5664 14.4451 33.6611 14.6591 33.6611 14.9091C33.6611 15.1591 33.5664 15.3731 33.377 15.5511C33.1914 15.7292 32.968 15.8182 32.7066 15.8182ZM39.1607 26.1818C38.3198 26.1818 37.5945 25.9962 36.9846 25.625C36.3785 25.25 35.9107 24.7273 35.5812 24.0568C35.2554 23.3826 35.0926 22.5985 35.0926 21.7045C35.0926 20.8106 35.2554 20.0227 35.5812 19.3409C35.9107 18.6553 36.3691 18.1212 36.9562 17.7386C37.5471 17.3523 38.2365 17.1591 39.0244 17.1591C39.4789 17.1591 39.9278 17.2348 40.371 17.3864C40.8141 17.5379 41.2176 17.7841 41.5812 18.125C41.9448 18.4621 42.2346 18.9091 42.4505 19.4659C42.6664 20.0227 42.7744 20.7083 42.7744 21.5227V22.0909H36.0471V20.9318H41.4107C41.4107 20.4394 41.3123 20 41.1153 19.6136C40.9221 19.2273 40.6456 18.9223 40.2857 18.6989C39.9297 18.4754 39.5092 18.3636 39.0244 18.3636C38.4903 18.3636 38.0282 18.4962 37.638 18.7614C37.2516 19.0227 36.9543 19.3636 36.746 19.7841C36.5376 20.2045 36.4335 20.6553 36.4335 21.1364V21.9091C36.4335 22.5682 36.5471 23.1269 36.7744 23.5852C37.0054 24.0398 37.3255 24.3864 37.7346 24.625C38.1437 24.8598 38.6191 24.9773 39.1607 24.9773C39.513 24.9773 39.8312 24.928 40.1153 24.8295C40.4032 24.7273 40.6513 24.5758 40.8596 24.375C41.0679 24.1705 41.2289 23.9167 41.3426 23.6136L42.638 23.9773C42.5016 24.4167 42.2725 24.803 41.9505 25.1364C41.6285 25.4659 41.2308 25.7235 40.7573 25.9091C40.2838 26.0909 39.7516 26.1818 39.1607 26.1818ZM45.8351 20.75V26H44.4941V17.2727H45.7896V18.6364H45.9032C46.1078 18.1932 46.4184 17.8371 46.8351 17.5682C47.2517 17.2955 47.7896 17.1591 48.4487 17.1591C49.0396 17.1591 49.5566 17.2803 49.9998 17.5227C50.443 17.7614 50.7877 18.125 51.0339 18.6136C51.2801 19.0985 51.4032 19.7121 51.4032 20.4545V26H50.0623V20.5455C50.0623 19.8598 49.8843 19.3258 49.5282 18.9432C49.1722 18.5568 48.6835 18.3636 48.0623 18.3636C47.6343 18.3636 47.2517 18.4564 46.9146 18.642C46.5813 18.8277 46.318 19.0985 46.1248 19.4545C45.9316 19.8106 45.8351 20.2424 45.8351 20.75ZM57.329 17.2727V18.4091H52.8063V17.2727H57.329ZM54.1244 15.1818H55.4653V23.5C55.4653 23.8788 55.5203 24.1629 55.6301 24.3523C55.7438 24.5379 55.8877 24.6629 56.0619 24.7273C56.24 24.7879 56.4275 24.8182 56.6244 24.8182C56.7722 24.8182 56.8934 24.8106 56.9881 24.7955C57.0828 24.7765 57.1585 24.7614 57.2153 24.75L57.4881 25.9545C57.3972 25.9886 57.2703 26.0227 57.1074 26.0568C56.9445 26.0947 56.7381 26.1136 56.4881 26.1136C56.1093 26.1136 55.7381 26.0322 55.3744 25.8693C55.0146 25.7064 54.7153 25.4583 54.4767 25.125C54.2419 24.7917 54.1244 24.3712 54.1244 23.8636V15.1818ZM65.7742 26.2045C65.2212 26.2045 64.7193 26.1004 64.2685 25.892C63.8178 25.6799 63.4598 25.375 63.1947 24.9773C62.9295 24.5758 62.7969 24.0909 62.7969 23.5227C62.7969 23.0227 62.8954 22.6174 63.0924 22.3068C63.2894 21.9924 63.5526 21.7462 63.8822 21.5682C64.2117 21.3902 64.5753 21.2576 64.9731 21.1705C65.3746 21.0795 65.778 21.0076 66.1833 20.9545C66.7136 20.8864 67.1435 20.8352 67.4731 20.8011C67.8064 20.7633 68.0488 20.7008 68.2003 20.6136C68.3556 20.5265 68.4333 20.375 68.4333 20.1591V20.1136C68.4333 19.553 68.2799 19.1174 67.9731 18.8068C67.67 18.4962 67.2098 18.3409 66.5924 18.3409C65.9522 18.3409 65.4503 18.4811 65.0867 18.7614C64.7231 19.0417 64.4674 19.3409 64.3197 19.6591L63.0469 19.2045C63.2742 18.6742 63.5772 18.2614 63.956 17.9659C64.3386 17.6667 64.7553 17.4583 65.206 17.3409C65.6606 17.2197 66.1075 17.1591 66.5469 17.1591C66.8272 17.1591 67.1492 17.1932 67.5128 17.2614C67.8803 17.3258 68.2344 17.4602 68.5753 17.6648C68.92 17.8693 69.206 18.178 69.4333 18.5909C69.6606 19.0038 69.7742 19.5568 69.7742 20.25V26H68.4333V24.8182H68.3651C68.2742 25.0076 68.1227 25.2102 67.9106 25.4261C67.6984 25.642 67.4162 25.8258 67.064 25.9773C66.7117 26.1288 66.2818 26.2045 65.7742 26.2045ZM65.9787 25C66.5091 25 66.956 24.8958 67.3197 24.6875C67.6871 24.4792 67.9636 24.2102 68.1492 23.8807C68.3386 23.5511 68.4333 23.2045 68.4333 22.8409V21.6136C68.3765 21.6818 68.2515 21.7443 68.0583 21.8011C67.8689 21.8542 67.6492 21.9015 67.3992 21.9432C67.153 21.9811 66.9125 22.0152 66.6776 22.0455C66.4466 22.072 66.2591 22.0947 66.1151 22.1136C65.7666 22.1591 65.4409 22.233 65.1378 22.3352C64.8386 22.4337 64.5962 22.5833 64.4106 22.7841C64.2287 22.9811 64.1378 23.25 64.1378 23.5909C64.1378 24.0568 64.3102 24.4091 64.6549 24.6477C65.0034 24.8826 65.4447 25 65.9787 25ZM71.9016 29.2727V17.2727H73.1971V18.6591H73.3562C73.4547 18.5076 73.591 18.3144 73.7653 18.0795C73.9433 17.8409 74.1971 17.6288 74.5266 17.4432C74.86 17.2538 75.3107 17.1591 75.8789 17.1591C76.6138 17.1591 77.2615 17.3428 77.8221 17.7102C78.3827 18.0777 78.8202 18.5985 79.1346 19.2727C79.449 19.947 79.6062 20.7424 79.6062 21.6591C79.6062 22.5833 79.449 23.3845 79.1346 24.0625C78.8202 24.7367 78.3846 25.2595 77.8278 25.6307C77.271 25.9981 76.6289 26.1818 75.9016 26.1818C75.341 26.1818 74.8922 26.089 74.5551 25.9034C74.2179 25.714 73.9585 25.5 73.7766 25.2614C73.5948 25.0189 73.4547 24.8182 73.3562 24.6591H73.2426V29.2727H71.9016ZM73.2198 21.6364C73.2198 22.2955 73.3164 22.8769 73.5096 23.3807C73.7028 23.8807 73.985 24.2727 74.3562 24.5568C74.7274 24.8371 75.1819 24.9773 75.7198 24.9773C76.2804 24.9773 76.7482 24.8295 77.1232 24.5341C77.502 24.2348 77.7861 23.8333 77.9755 23.3295C78.1687 22.822 78.2653 22.2576 78.2653 21.6364C78.2653 21.0227 78.1706 20.4697 77.9812 19.9773C77.7956 19.4811 77.5134 19.089 77.1346 18.8011C76.7596 18.5095 76.288 18.3636 75.7198 18.3636C75.1744 18.3636 74.716 18.5019 74.3448 18.7784C73.9736 19.0511 73.6933 19.4337 73.5039 19.9261C73.3145 20.4148 73.2198 20.9848 73.2198 21.6364ZM81.3317 29.2727V17.2727H82.6271V18.6591H82.7862C82.8847 18.5076 83.021 18.3144 83.1953 18.0795C83.3733 17.8409 83.6271 17.6288 83.9567 17.4432C84.29 17.2538 84.7407 17.1591 85.3089 17.1591C86.0438 17.1591 86.6915 17.3428 87.2521 17.7102C87.8127 18.0777 88.2502 18.5985 88.5646 19.2727C88.879 19.947 89.0362 20.7424 89.0362 21.6591C89.0362 22.5833 88.879 23.3845 88.5646 24.0625C88.2502 24.7367 87.8146 25.2595 87.2578 25.6307C86.701 25.9981 86.0589 26.1818 85.3317 26.1818C84.771 26.1818 84.3222 26.089 83.9851 25.9034C83.6479 25.714 83.3885 25.5 83.2067 25.2614C83.0248 25.0189 82.8847 24.8182 82.7862 24.6591H82.6726V29.2727H81.3317ZM82.6498 21.6364C82.6498 22.2955 82.7464 22.8769 82.9396 23.3807C83.1328 23.8807 83.415 24.2727 83.7862 24.5568C84.1574 24.8371 84.612 24.9773 85.1498 24.9773C85.7104 24.9773 86.1782 24.8295 86.5532 24.5341C86.932 24.2348 87.2161 23.8333 87.4055 23.3295C87.5987 22.822 87.6953 22.2576 87.6953 21.6364C87.6953 21.0227 87.6006 20.4697 87.4112 19.9773C87.2256 19.4811 86.9434 19.089 86.5646 18.8011C86.1896 18.5095 85.718 18.3636 85.1498 18.3636C84.6044 18.3636 84.146 18.5019 83.7748 18.7784C83.4036 19.0511 83.1233 19.4337 82.9339 19.9261C82.7445 20.4148 82.6498 20.9848 82.6498 21.6364ZM94.4207 26.1818C93.5798 26.1818 92.8545 25.9962 92.2446 25.625C91.6385 25.25 91.1707 24.7273 90.8412 24.0568C90.5154 23.3826 90.3526 22.5985 90.3526 21.7045C90.3526 20.8106 90.5154 20.0227 90.8412 19.3409C91.1707 18.6553 91.6291 18.1212 92.2162 17.7386C92.8071 17.3523 93.4965 17.1591 94.2844 17.1591C94.7389 17.1591 95.1878 17.2348 95.631 17.3864C96.0742 17.5379 96.4776 17.7841 96.8412 18.125C97.2048 18.4621 97.4946 18.9091 97.7105 19.4659C97.9264 20.0227 98.0344 20.7083 98.0344 21.5227V22.0909H91.3071V20.9318H96.6707C96.6707 20.4394 96.5723 20 96.3753 19.6136C96.1821 19.2273 95.9056 18.9223 95.5457 18.6989C95.1897 18.4754 94.7692 18.3636 94.2844 18.3636C93.7503 18.3636 93.2882 18.4962 92.898 18.7614C92.5117 19.0227 92.2143 19.3636 92.006 19.7841C91.7976 20.2045 91.6935 20.6553 91.6935 21.1364V21.9091C91.6935 22.5682 91.8071 23.1269 92.0344 23.5852C92.2654 24.0398 92.5855 24.3864 92.9946 24.625C93.4037 24.8598 93.8791 24.9773 94.4207 24.9773C94.773 24.9773 95.0912 24.928 95.3753 24.8295C95.6632 24.7273 95.9113 24.5758 96.1196 24.375C96.3279 24.1705 96.4889 23.9167 96.6026 23.6136L97.898 23.9773C97.7617 24.4167 97.5325 24.803 97.2105 25.1364C96.8885 25.4659 96.4908 25.7235 96.0173 25.9091C95.5438 26.0909 95.0117 26.1818 94.4207 26.1818ZM102.322 26.2045C101.769 26.2045 101.267 26.1004 100.817 25.892C100.366 25.6799 100.008 25.375 99.7428 24.9773C99.4776 24.5758 99.3451 24.0909 99.3451 23.5227C99.3451 23.0227 99.4435 22.6174 99.6405 22.3068C99.8375 21.9924 100.101 21.7462 100.43 21.5682C100.76 21.3902 101.123 21.2576 101.521 21.1705C101.923 21.0795 102.326 21.0076 102.731 20.9545C103.262 20.8864 103.692 20.8352 104.021 20.8011C104.355 20.7633 104.597 20.7008 104.748 20.6136C104.904 20.5265 104.981 20.375 104.981 20.1591V20.1136C104.981 19.553 104.828 19.1174 104.521 18.8068C104.218 18.4962 103.758 18.3409 103.141 18.3409C102.5 18.3409 101.998 18.4811 101.635 18.7614C101.271 19.0417 101.016 19.3409 100.868 19.6591L99.5951 19.2045C99.8223 18.6742 100.125 18.2614 100.504 17.9659C100.887 17.6667 101.303 17.4583 101.754 17.3409C102.209 17.2197 102.656 17.1591 103.095 17.1591C103.375 17.1591 103.697 17.1932 104.061 17.2614C104.428 17.3258 104.783 17.4602 105.123 17.6648C105.468 17.8693 105.754 18.178 105.981 18.5909C106.209 19.0038 106.322 19.5568 106.322 20.25V26H104.981V24.8182H104.913C104.822 25.0076 104.671 25.2102 104.459 25.4261C104.247 25.642 103.964 25.8258 103.612 25.9773C103.26 26.1288 102.83 26.2045 102.322 26.2045ZM102.527 25C103.057 25 103.504 24.8958 103.868 24.6875C104.235 24.4792 104.512 24.2102 104.697 23.8807C104.887 23.5511 104.981 23.2045 104.981 22.8409V21.6136C104.925 21.6818 104.8 21.7443 104.606 21.8011C104.417 21.8542 104.197 21.9015 103.947 21.9432C103.701 21.9811 103.461 22.0152 103.226 22.0455C102.995 22.072 102.807 22.0947 102.663 22.1136C102.315 22.1591 101.989 22.233 101.686 22.3352C101.387 22.4337 101.144 22.5833 100.959 22.7841C100.777 22.9811 100.686 23.25 100.686 23.5909C100.686 24.0568 100.858 24.4091 101.203 24.6477C101.551 24.8826 101.993 25 102.527 25ZM108.45 26V17.2727H109.745V18.5909H109.836C109.995 18.1591 110.283 17.8087 110.7 17.5398C111.116 17.2708 111.586 17.1364 112.109 17.1364C112.207 17.1364 112.33 17.1383 112.478 17.142C112.626 17.1458 112.738 17.1515 112.813 17.1591V18.5227C112.768 18.5114 112.664 18.4943 112.501 18.4716C112.342 18.4451 112.173 18.4318 111.995 18.4318C111.571 18.4318 111.192 18.5208 110.859 18.6989C110.529 18.8731 110.268 19.1155 110.075 19.4261C109.885 19.733 109.791 20.0833 109.791 20.4773V26H108.45ZM117.476 26.1818C116.635 26.1818 115.91 25.9962 115.3 25.625C114.694 25.25 114.226 24.7273 113.897 24.0568C113.571 23.3826 113.408 22.5985 113.408 21.7045C113.408 20.8106 113.571 20.0227 113.897 19.3409C114.226 18.6553 114.685 18.1212 115.272 17.7386C115.863 17.3523 116.552 17.1591 117.34 17.1591C117.795 17.1591 118.243 17.2348 118.687 17.3864C119.13 17.5379 119.533 17.7841 119.897 18.125C120.26 18.4621 120.55 18.9091 120.766 19.4659C120.982 20.0227 121.09 20.7083 121.09 21.5227V22.0909H114.363V20.9318H119.726C119.726 20.4394 119.628 20 119.431 19.6136C119.238 19.2273 118.961 18.9223 118.601 18.6989C118.245 18.4754 117.825 18.3636 117.34 18.3636C116.806 18.3636 116.344 18.4962 115.954 18.7614C115.567 19.0227 115.27 19.3636 115.062 19.7841C114.853 20.2045 114.749 20.6553 114.749 21.1364V21.9091C114.749 22.5682 114.863 23.1269 115.09 23.5852C115.321 24.0398 115.641 24.3864 116.05 24.625C116.459 24.8598 116.935 24.9773 117.476 24.9773C117.829 24.9773 118.147 24.928 118.431 24.8295C118.719 24.7273 118.967 24.5758 119.175 24.375C119.384 24.1705 119.545 23.9167 119.658 23.6136L120.954 23.9773C120.817 24.4167 120.588 24.803 120.266 25.1364C119.944 25.4659 119.546 25.7235 119.073 25.9091C118.599 26.0909 118.067 26.1818 117.476 26.1818ZM126.105 26.1818C125.378 26.1818 124.736 25.9981 124.179 25.6307C123.622 25.2595 123.187 24.7367 122.872 24.0625C122.558 23.3845 122.401 22.5833 122.401 21.6591C122.401 20.7424 122.558 19.947 122.872 19.2727C123.187 18.5985 123.624 18.0777 124.185 17.7102C124.745 17.3428 125.393 17.1591 126.128 17.1591C126.696 17.1591 127.145 17.2538 127.475 17.4432C127.808 17.6288 128.062 17.8409 128.236 18.0795C128.414 18.3144 128.552 18.5076 128.651 18.6591H128.764V14.3636H130.105V26H128.81V24.6591H128.651C128.552 24.8182 128.412 25.0189 128.23 25.2614C128.048 25.5 127.789 25.714 127.452 25.9034C127.115 26.089 126.666 26.1818 126.105 26.1818ZM126.287 24.9773C126.825 24.9773 127.279 24.8371 127.651 24.5568C128.022 24.2727 128.304 23.8807 128.497 23.3807C128.69 22.8769 128.787 22.2955 128.787 21.6364C128.787 20.9848 128.692 20.4148 128.503 19.9261C128.314 19.4337 128.033 19.0511 127.662 18.7784C127.291 18.5019 126.832 18.3636 126.287 18.3636C125.719 18.3636 125.245 18.5095 124.867 18.8011C124.492 19.089 124.209 19.4811 124.02 19.9773C123.834 20.4697 123.742 21.0227 123.742 21.6364C123.742 22.2576 123.836 22.822 124.026 23.3295C124.219 23.8333 124.503 24.2348 124.878 24.5341C125.257 24.8295 125.726 24.9773 126.287 24.9773ZM143.744 17.2727L140.516 26H139.153L135.925 17.2727H137.38L139.789 24.2273H139.88L142.289 17.2727H143.744ZM148.54 26.1818C147.699 26.1818 146.974 25.9962 146.364 25.625C145.758 25.25 145.29 24.7273 144.961 24.0568C144.635 23.3826 144.472 22.5985 144.472 21.7045C144.472 20.8106 144.635 20.0227 144.961 19.3409C145.29 18.6553 145.748 18.1212 146.336 17.7386C146.926 17.3523 147.616 17.1591 148.404 17.1591C148.858 17.1591 149.307 17.2348 149.75 17.3864C150.194 17.5379 150.597 17.7841 150.961 18.125C151.324 18.4621 151.614 18.9091 151.83 19.4659C152.046 20.0227 152.154 20.7083 152.154 21.5227V22.0909H145.426V20.9318H150.79C150.79 20.4394 150.692 20 150.495 19.6136C150.301 19.2273 150.025 18.9223 149.665 18.6989C149.309 18.4754 148.889 18.3636 148.404 18.3636C147.87 18.3636 147.408 18.4962 147.017 18.7614C146.631 19.0227 146.334 19.3636 146.125 19.7841C145.917 20.2045 145.813 20.6553 145.813 21.1364V21.9091C145.813 22.5682 145.926 23.1269 146.154 23.5852C146.385 24.0398 146.705 24.3864 147.114 24.625C147.523 24.8598 147.998 24.9773 148.54 24.9773C148.892 24.9773 149.211 24.928 149.495 24.8295C149.783 24.7273 150.031 24.5758 150.239 24.375C150.447 24.1705 150.608 23.9167 150.722 23.6136L152.017 23.9773C151.881 24.4167 151.652 24.803 151.33 25.1364C151.008 25.4659 150.61 25.7235 150.137 25.9091C149.663 26.0909 149.131 26.1818 148.54 26.1818ZM153.874 26V17.2727H155.169V18.5909H155.26C155.419 18.1591 155.707 17.8087 156.124 17.5398C156.54 17.2708 157.01 17.1364 157.533 17.1364C157.631 17.1364 157.754 17.1383 157.902 17.142C158.05 17.1458 158.161 17.1515 158.237 17.1591V18.5227C158.192 18.5114 158.088 18.4943 157.925 18.4716C157.766 18.4451 157.597 18.4318 157.419 18.4318C156.995 18.4318 156.616 18.5208 156.283 18.6989C155.953 18.8731 155.692 19.1155 155.499 19.4261C155.309 19.733 155.214 20.0833 155.214 20.4773V26H153.874ZM160.636 29.2727C160.409 29.2727 160.206 29.2538 160.028 29.2159C159.85 29.1818 159.727 29.1477 159.659 29.1136L160 27.9318C160.325 28.0152 160.613 28.0455 160.863 28.0227C161.113 28 161.335 27.8883 161.528 27.6875C161.725 27.4905 161.905 27.1705 162.068 26.7273L162.318 26.0455L159.09 17.2727H160.545L162.954 24.2273H163.045L165.454 17.2727H166.909L163.204 27.2727C163.037 27.7235 162.831 28.0966 162.585 28.392C162.339 28.6913 162.053 28.9129 161.727 29.0568C161.405 29.2008 161.041 29.2727 160.636 29.2727ZM175.107 26.2045C174.554 26.2045 174.052 26.1004 173.601 25.892C173.15 25.6799 172.792 25.375 172.527 24.9773C172.262 24.5758 172.129 24.0909 172.129 23.5227C172.129 23.0227 172.228 22.6174 172.425 22.3068C172.622 21.9924 172.885 21.7462 173.215 21.5682C173.544 21.3902 173.908 21.2576 174.306 21.1705C174.707 21.0795 175.11 21.0076 175.516 20.9545C176.046 20.8864 176.476 20.8352 176.806 20.8011C177.139 20.7633 177.381 20.7008 177.533 20.6136C177.688 20.5265 177.766 20.375 177.766 20.1591V20.1136C177.766 19.553 177.612 19.1174 177.306 18.8068C177.003 18.4962 176.542 18.3409 175.925 18.3409C175.285 18.3409 174.783 18.4811 174.419 18.7614C174.056 19.0417 173.8 19.3409 173.652 19.6591L172.379 19.2045C172.607 18.6742 172.91 18.2614 173.289 17.9659C173.671 17.6667 174.088 17.4583 174.539 17.3409C174.993 17.2197 175.44 17.1591 175.879 17.1591C176.16 17.1591 176.482 17.1932 176.845 17.2614C177.213 17.3258 177.567 17.4602 177.908 17.6648C178.253 17.8693 178.539 18.178 178.766 18.5909C178.993 19.0038 179.107 19.5568 179.107 20.25V26H177.766V24.8182H177.698C177.607 25.0076 177.455 25.2102 177.243 25.4261C177.031 25.642 176.749 25.8258 176.396 25.9773C176.044 26.1288 175.614 26.2045 175.107 26.2045ZM175.311 25C175.842 25 176.289 24.8958 176.652 24.6875C177.02 24.4792 177.296 24.2102 177.482 23.8807C177.671 23.5511 177.766 23.2045 177.766 22.8409V21.6136C177.709 21.6818 177.584 21.7443 177.391 21.8011C177.201 21.8542 176.982 21.9015 176.732 21.9432C176.485 21.9811 176.245 22.0152 176.01 22.0455C175.779 22.072 175.592 22.0947 175.448 22.1136C175.099 22.1591 174.773 22.233 174.47 22.3352C174.171 22.4337 173.929 22.5833 173.743 22.7841C173.561 22.9811 173.47 23.25 173.47 23.5909C173.47 24.0568 173.643 24.4091 173.987 24.6477C174.336 24.8826 174.777 25 175.311 25ZM182.575 20.75V26H181.234V17.2727H182.53V18.6364H182.643C182.848 18.1932 183.158 17.8371 183.575 17.5682C183.992 17.2955 184.53 17.1591 185.189 17.1591C185.78 17.1591 186.297 17.2803 186.74 17.5227C187.183 17.7614 187.528 18.125 187.774 18.6136C188.02 19.0985 188.143 19.7121 188.143 20.4545V26H186.802V20.5455C186.802 19.8598 186.624 19.3258 186.268 18.9432C185.912 18.5568 185.424 18.3636 184.802 18.3636C184.374 18.3636 183.992 18.4564 183.655 18.642C183.321 18.8277 183.058 19.0985 182.865 19.4545C182.672 19.8106 182.575 20.2424 182.575 20.75ZM191.274 17.2727L193.364 20.8409L195.455 17.2727H197.001L194.183 21.6364L197.001 26H195.455L193.364 22.6136L191.274 26H189.728L192.501 21.6364L189.728 17.2727H191.274ZM198.594 26V17.2727H199.935V26H198.594ZM199.276 15.8182C199.015 15.8182 198.789 15.7292 198.6 15.5511C198.414 15.3731 198.321 15.1591 198.321 14.9091C198.321 14.6591 198.414 14.4451 198.6 14.267C198.789 14.089 199.015 14 199.276 14C199.537 14 199.761 14.089 199.946 14.267C200.136 14.4451 200.231 14.6591 200.231 14.9091C200.231 15.1591 200.136 15.3731 199.946 15.5511C199.761 15.7292 199.537 15.8182 199.276 15.8182ZM205.616 26.1818C204.829 26.1818 204.137 25.9943 203.543 25.6193C202.952 25.2443 202.49 24.7197 202.156 24.0455C201.827 23.3712 201.662 22.5833 201.662 21.6818C201.662 20.7727 201.827 19.9792 202.156 19.3011C202.49 18.6231 202.952 18.0966 203.543 17.7216C204.137 17.3466 204.829 17.1591 205.616 17.1591C206.404 17.1591 207.094 17.3466 207.685 17.7216C208.279 18.0966 208.741 18.6231 209.071 19.3011C209.404 19.9792 209.571 20.7727 209.571 21.6818C209.571 22.5833 209.404 23.3712 209.071 24.0455C208.741 24.7197 208.279 25.2443 207.685 25.6193C207.094 25.9943 206.404 26.1818 205.616 26.1818ZM205.616 24.9773C206.215 24.9773 206.707 24.8239 207.094 24.517C207.48 24.2102 207.766 23.8068 207.952 23.3068C208.137 22.8068 208.23 22.2652 208.23 21.6818C208.23 21.0985 208.137 20.5549 207.952 20.0511C207.766 19.5473 207.48 19.1402 207.094 18.8295C206.707 18.5189 206.215 18.3636 205.616 18.3636C205.018 18.3636 204.526 18.5189 204.139 18.8295C203.753 19.1402 203.467 19.5473 203.281 20.0511C203.096 20.5549 203.003 21.0985 203.003 21.6818C203.003 22.2652 203.096 22.8068 203.281 23.3068C203.467 23.8068 203.753 24.2102 204.139 24.517C204.526 24.8239 205.018 24.9773 205.616 24.9773ZM216.798 22.4318V17.2727H218.139V26H216.798V24.5227H216.707C216.502 24.9659 216.184 25.3428 215.752 25.6534C215.321 25.9602 214.775 26.1136 214.116 26.1136C213.571 26.1136 213.086 25.9943 212.662 25.7557C212.237 25.5133 211.904 25.1496 211.662 24.6648C211.419 24.1761 211.298 23.5606 211.298 22.8182V17.2727H212.639V22.7273C212.639 23.3636 212.817 23.8712 213.173 24.25C213.533 24.6288 213.991 24.8182 214.548 24.8182C214.881 24.8182 215.22 24.733 215.565 24.5625C215.913 24.392 216.205 24.1307 216.44 23.7784C216.679 23.4261 216.798 22.9773 216.798 22.4318ZM226.457 19.2273L225.252 19.5682C225.176 19.3674 225.065 19.1723 224.917 18.983C224.773 18.7898 224.576 18.6307 224.326 18.5057C224.076 18.3807 223.756 18.3182 223.366 18.3182C222.832 18.3182 222.387 18.4413 222.03 18.6875C221.678 18.9299 221.502 19.2386 221.502 19.6136C221.502 19.947 221.623 20.2102 221.866 20.4034C222.108 20.5966 222.487 20.7576 223.002 20.8864L224.298 21.2045C225.078 21.3939 225.659 21.6837 226.042 22.0739C226.424 22.4602 226.616 22.9583 226.616 23.5682C226.616 24.0682 226.472 24.5152 226.184 24.9091C225.9 25.303 225.502 25.6136 224.991 25.8409C224.479 26.0682 223.885 26.1818 223.207 26.1818C222.316 26.1818 221.58 25.9886 220.996 25.6023C220.413 25.2159 220.044 24.6515 219.888 23.9091L221.161 23.5909C221.282 24.0606 221.512 24.4129 221.849 24.6477C222.19 24.8826 222.635 25 223.184 25C223.809 25 224.305 24.8674 224.673 24.6023C225.044 24.3333 225.229 24.0114 225.229 23.6364C225.229 23.3333 225.123 23.0795 224.911 22.875C224.699 22.6667 224.373 22.5114 223.934 22.4091L222.479 22.0682C221.68 21.8788 221.093 21.5852 220.718 21.1875C220.347 20.786 220.161 20.2841 220.161 19.6818C220.161 19.1894 220.299 18.7538 220.576 18.375C220.856 17.9962 221.237 17.6989 221.718 17.483C222.203 17.267 222.752 17.1591 223.366 17.1591C224.229 17.1591 224.907 17.3485 225.4 17.7273C225.896 18.1061 226.248 18.6061 226.457 19.2273ZM235.062 26.2045C234.509 26.2045 234.007 26.1004 233.557 25.892C233.106 25.6799 232.748 25.375 232.483 24.9773C232.218 24.5758 232.085 24.0909 232.085 23.5227C232.085 23.0227 232.184 22.6174 232.381 22.3068C232.577 21.9924 232.841 21.7462 233.17 21.5682C233.5 21.3902 233.863 21.2576 234.261 21.1705C234.663 21.0795 235.066 21.0076 235.471 20.9545C236.002 20.8864 236.432 20.8352 236.761 20.8011C237.095 20.7633 237.337 20.7008 237.488 20.6136C237.644 20.5265 237.721 20.375 237.721 20.1591V20.1136C237.721 19.553 237.568 19.1174 237.261 18.8068C236.958 18.4962 236.498 18.3409 235.881 18.3409C235.24 18.3409 234.738 18.4811 234.375 18.7614C234.011 19.0417 233.756 19.3409 233.608 19.6591L232.335 19.2045C232.562 18.6742 232.865 18.2614 233.244 17.9659C233.627 17.6667 234.043 17.4583 234.494 17.3409C234.949 17.2197 235.396 17.1591 235.835 17.1591C236.115 17.1591 236.437 17.1932 236.801 17.2614C237.168 17.3258 237.523 17.4602 237.863 17.6648C238.208 17.8693 238.494 18.178 238.721 18.5909C238.949 19.0038 239.062 19.5568 239.062 20.25V26H237.721V24.8182H237.653C237.562 25.0076 237.411 25.2102 237.199 25.4261C236.987 25.642 236.704 25.8258 236.352 25.9773C236 26.1288 235.57 26.2045 235.062 26.2045ZM235.267 25C235.797 25 236.244 24.8958 236.608 24.6875C236.975 24.4792 237.252 24.2102 237.437 23.8807C237.627 23.5511 237.721 23.2045 237.721 22.8409V21.6136C237.665 21.6818 237.54 21.7443 237.346 21.8011C237.157 21.8542 236.937 21.9015 236.687 21.9432C236.441 21.9811 236.201 22.0152 235.966 22.0455C235.735 22.072 235.547 22.0947 235.403 22.1136C235.055 22.1591 234.729 22.233 234.426 22.3352C234.127 22.4337 233.884 22.5833 233.699 22.7841C233.517 22.9811 233.426 23.25 233.426 23.5909C233.426 24.0568 233.598 24.4091 233.943 24.6477C234.291 24.8826 234.733 25 235.267 25ZM241.372 26V14.3636H242.712V18.6591H242.826C242.925 18.5076 243.061 18.3144 243.235 18.0795C243.413 17.8409 243.667 17.6288 243.997 17.4432C244.33 17.2538 244.781 17.1591 245.349 17.1591C246.084 17.1591 246.731 17.3428 247.292 17.7102C247.853 18.0777 248.29 18.5985 248.605 19.2727C248.919 19.947 249.076 20.7424 249.076 21.6591C249.076 22.5833 248.919 23.3845 248.605 24.0625C248.29 24.7367 247.855 25.2595 247.298 25.6307C246.741 25.9981 246.099 26.1818 245.372 26.1818C244.811 26.1818 244.362 26.089 244.025 25.9034C243.688 25.714 243.428 25.5 243.247 25.2614C243.065 25.0189 242.925 24.8182 242.826 24.6591H242.667V26H241.372ZM242.69 21.6364C242.69 22.2955 242.786 22.8769 242.98 23.3807C243.173 23.8807 243.455 24.2727 243.826 24.5568C244.197 24.8371 244.652 24.9773 245.19 24.9773C245.75 24.9773 246.218 24.8295 246.593 24.5341C246.972 24.2348 247.256 23.8333 247.445 23.3295C247.639 22.822 247.735 22.2576 247.735 21.6364C247.735 21.0227 247.641 20.4697 247.451 19.9773C247.266 19.4811 246.983 19.089 246.605 18.8011C246.23 18.5095 245.758 18.3636 245.19 18.3636C244.644 18.3636 244.186 18.5019 243.815 18.7784C243.444 19.0511 243.163 19.4337 242.974 19.9261C242.784 20.4148 242.69 20.9848 242.69 21.6364Z" fill="black"/>
<path d="M252.762 10.6136V29.75H251.625V10.6136H252.762Z" fill="#006C67"/>
</svg>
