<svg width="20" height="20" viewBox="0 0 20 20" fill="none" xmlns="http://www.w3.org/2000/svg">
<path d="M7.98366 4.62334C8.18366 4.53167 8.39366 4.45084 8.61033 4.38501C10.177 3.90834 11.907 4.22417 13.147 5.21834C14.387 6.21001 14.9487 7.72417 14.622 9.1925H15.447C17.0412 9.1925 18.3337 10.4925 18.3337 12.0975C18.3337 12.895 18.0145 13.6175 17.4978 14.1425M15.0003 15.0033H5.54783C3.40449 15 1.66699 13.3275 1.66699 11.2642C1.66699 9.20167 3.40449 7.52917 5.54783 7.52917C5.65616 7.04417 5.85616 6.58917 6.13116 6.17917M2.50033 2.5L17.5003 17.5" stroke="#A18100" stroke-width="1.66667" stroke-linecap="round" stroke-linejoin="round"/>
</svg>
