<svg width="20" height="20" viewBox="0 0 20 20" fill="none" xmlns="http://www.w3.org/2000/svg">
<path d="M10.834 2.41667V2.83333C10.834 5.19 10.834 6.36917 11.5665 7.10083C12.2982 7.83417 13.4773 7.83417 15.834 7.83417H16.2507M16.6673 11.1667V9.21417C16.6673 8.5325 16.6673 8.1925 16.5407 7.88583C16.414 7.58 16.1732 7.33917 15.6907 6.85667L11.744 2.91C11.3282 2.49417 11.1207 2.28667 10.8623 2.16333C10.8089 2.13765 10.7541 2.11484 10.6982 2.095C10.429 2 10.1348 2 9.54732 2C6.84315 2 5.49065 2 4.57482 2.73833C4.38989 2.88745 4.22143 3.05591 4.07232 3.24083C3.33398 4.1575 3.33398 5.50917 3.33398 8.21333V11.1667V13.3342C3.33398 15.5434 5.12484 17.3342 7.33398 17.3342H12.6673C14.8765 17.3342 16.6673 15.5434 16.6673 13.3342V11.1667Z" stroke="#006C67" stroke-width="1.25" stroke-linecap="round" stroke-linejoin="round"/>
</svg>
