<svg width="20" height="20" viewBox="0 0 20 20" fill="none" xmlns="http://www.w3.org/2000/svg">
<path d="M16.6673 10.8324V8.87994C16.6673 8.19827 16.6673 7.85827 16.5407 7.55161C16.414 7.24577 16.1732 7.00494 15.6907 6.52244L11.744 2.57577C11.3282 2.15994 11.1207 1.95244 10.8623 1.8291C10.8089 1.80342 10.7541 1.78061 10.6982 1.76077C10.429 1.66577 10.1348 1.66577 9.54732 1.66577C6.84315 1.66577 5.49065 1.66577 4.57482 2.4041C4.38989 2.55322 4.22143 2.72168 4.07232 2.9066C3.33398 3.82327 3.33398 5.17494 3.33398 7.87911V10.8324M10.834 2.08244V2.4991C10.834 4.85577 10.834 6.03494 11.5665 6.7666C12.2982 7.49994 13.4773 7.49994 15.834 7.49994H16.2507" stroke="#006C67" stroke-width="1.25" stroke-linecap="round" stroke-linejoin="round"/>
<path d="M12.3516 16.9741V16.3193C12.3516 15.0801 13.1118 14.2363 14.4521 14.2363C14.9092 14.2363 15.375 14.3418 15.7266 14.5747C16.0122 14.7593 16.2407 15.0361 16.2407 15.3306C16.2407 15.5986 16.0649 15.8052 15.7793 15.8052C15.5552 15.8052 15.4321 15.6733 15.3135 15.5591C15.1113 15.3218 14.8564 15.1855 14.5137 15.1855C13.8633 15.1855 13.5425 15.6689 13.5425 16.3809V16.917C13.5425 17.6465 13.8237 18.1519 14.5225 18.1519C14.8433 18.1519 15.1201 18.0332 15.353 17.7651C15.4629 17.6597 15.5903 17.5234 15.8057 17.5234C16.0649 17.5234 16.2539 17.6948 16.2539 17.9893C16.2539 18.2881 16.0298 18.5825 15.6914 18.7891C15.3311 19.0044 14.9004 19.1011 14.4565 19.1011C13.1426 19.1011 12.3516 18.3101 12.3516 16.9741Z" fill="#006C67"/>
<path d="M10.4434 18.4067C10.2061 18.8242 9.74463 19.0615 9.17334 19.0615C8.26367 19.0615 7.64844 18.4902 7.64844 17.6421C7.64844 16.7808 8.28564 16.249 9.34473 16.249H10.4521V15.8667C10.4521 15.3965 10.1577 15.1504 9.62598 15.1504C9.27441 15.1504 9.02393 15.2822 8.76465 15.5151C8.63281 15.6206 8.50977 15.6689 8.3208 15.6689C8.06592 15.6689 7.90771 15.4976 7.90771 15.2603C7.90771 14.9878 8.09668 14.7109 8.50537 14.5044C8.7998 14.3506 9.19092 14.2627 9.70068 14.2627C10.9224 14.2627 11.6079 14.8428 11.6079 15.8755V18.4243C11.6079 18.8198 11.4058 19.0439 11.0454 19.0439C10.7378 19.0439 10.5356 18.8726 10.5005 18.5693V18.4067H10.4434ZM8.7998 17.5718C8.7998 17.9585 9.10742 18.2266 9.56006 18.2266C10.061 18.2266 10.4521 17.8838 10.4521 17.4443V16.9609H9.55566C9.08105 16.9609 8.7998 17.1895 8.7998 17.5718Z" fill="#006C67"/>
<path d="M5.79492 18.4067C5.55762 18.8242 5.09619 19.0615 4.5249 19.0615C3.61523 19.0615 3 18.4902 3 17.6421C3 16.7808 3.63721 16.249 4.69629 16.249H5.80371V15.8667C5.80371 15.3965 5.50928 15.1504 4.97754 15.1504C4.62598 15.1504 4.37549 15.2822 4.11621 15.5151C3.98438 15.6206 3.86133 15.6689 3.67236 15.6689C3.41748 15.6689 3.25928 15.4976 3.25928 15.2603C3.25928 14.9878 3.44824 14.7109 3.85693 14.5044C4.15137 14.3506 4.54248 14.2627 5.05225 14.2627C6.27393 14.2627 6.95947 14.8428 6.95947 15.8755V18.4243C6.95947 18.8198 6.75732 19.0439 6.39697 19.0439C6.08936 19.0439 5.88721 18.8726 5.85205 18.5693V18.4067H5.79492ZM4.15137 17.5718C4.15137 17.9585 4.45898 18.2266 4.91162 18.2266C5.4126 18.2266 5.80371 17.8838 5.80371 17.4443V16.9609H4.90723C4.43262 16.9609 4.15137 17.1895 4.15137 17.5718Z" fill="#006C67"/>
</svg>
