<svg width="20" height="21" viewBox="0 0 20 21" fill="none" xmlns="http://www.w3.org/2000/svg">
<path d="M16.6673 10.8324V8.87994C16.6673 8.19827 16.6673 7.85827 16.5407 7.55161C16.414 7.24577 16.1732 7.00494 15.6907 6.52244L11.744 2.57577C11.3282 2.15994 11.1207 1.95244 10.8623 1.8291C10.8089 1.80342 10.7541 1.78061 10.6982 1.76077C10.429 1.66577 10.1348 1.66577 9.54732 1.66577C6.84315 1.66577 5.49065 1.66577 4.57482 2.4041C4.38989 2.55322 4.22143 2.72168 4.07232 2.9066C3.33398 3.82327 3.33398 5.17494 3.33398 7.87911V10.8324M10.834 2.08244V2.4991C10.834 4.85577 10.834 6.03494 11.5665 6.7666C12.2982 7.49994 13.4773 7.49994 15.834 7.49994H16.2507" stroke="#006C67" stroke-width="1.25" stroke-linecap="round" stroke-linejoin="round"/>
<path d="M14.6406 17.7344C14.6406 17.4575 14.8384 17.2554 15.1064 17.2554C15.2998 17.2554 15.4448 17.3477 15.6074 17.585C15.8623 17.9893 16.2534 18.2046 16.7456 18.2046C17.4048 18.2046 17.8311 17.8486 17.8311 17.3037C17.8311 16.7588 17.396 16.3896 16.75 16.3896H16.3193C16.0557 16.3896 15.8623 16.1919 15.8623 15.9194C15.8623 15.6558 16.0513 15.458 16.3193 15.458H16.728C17.2686 15.458 17.6641 15.1064 17.6641 14.623C17.6641 14.1396 17.2773 13.8101 16.7192 13.8101C16.2842 13.8101 15.9458 14.0122 15.7129 14.4077C15.5811 14.6274 15.4272 14.7197 15.2207 14.7197C14.9395 14.7197 14.7373 14.522 14.7373 14.2363C14.7373 13.5332 15.5942 12.8872 16.7412 12.8872C17.9541 12.8872 18.8066 13.542 18.8066 14.478C18.8066 15.1284 18.3188 15.7261 17.7124 15.814V15.8887C18.4419 15.959 18.9912 16.583 18.9912 17.3433C18.9912 18.3936 18.0596 19.1274 16.7368 19.1274C15.5503 19.1274 14.6406 18.4595 14.6406 17.7344Z" fill="#006C67"/>
<path d="M10.8413 20.0195C10.8413 20.4282 10.6348 20.6567 10.2612 20.6567C9.89209 20.6567 9.68555 20.4282 9.68555 20.0195V14.9351C9.68555 14.522 9.8877 14.2935 10.2524 14.2935C10.5952 14.2935 10.7974 14.4912 10.8237 14.8516V15.0757H10.8809C11.0698 14.5747 11.584 14.2627 12.2388 14.2627C13.3242 14.2627 13.9746 15.0405 13.9746 16.3369V16.9829C13.9746 18.2793 13.3154 19.0615 12.2212 19.0615C11.584 19.0615 11.105 18.7803 10.8984 18.2881H10.8413V20.0195ZM10.8413 17.0005C10.8413 17.686 11.2368 18.1343 11.8301 18.1343C12.4409 18.1343 12.7925 17.6729 12.7925 16.873V16.4512C12.7925 15.647 12.4409 15.1899 11.8213 15.1899C11.2148 15.1899 10.8413 15.6338 10.8413 16.3809V17.0005Z" fill="#006C67"/>
<path d="M8.70605 18.4067C8.70605 18.8198 8.49512 19.0439 8.12598 19.0439C7.75684 19.0439 7.55029 18.8198 7.55029 18.4067V16.0908C7.55029 15.5371 7.25146 15.2207 6.75049 15.2207C6.25391 15.2207 5.91553 15.5942 5.91553 16.1567V18.4067C5.91553 18.8198 5.71777 19.0439 5.35303 19.0439C4.99268 19.0439 4.79492 18.8198 4.79492 18.4067V16.1128C4.79492 15.5591 4.48291 15.2207 3.98193 15.2207C3.48975 15.2207 3.16016 15.5854 3.16016 16.1523V18.4067C3.16016 18.8198 2.94922 19.0439 2.58008 19.0439C2.21094 19.0439 2 18.8198 2 18.4067V14.9175C2 14.5308 2.21973 14.2935 2.57129 14.2935C2.90967 14.2935 3.11621 14.5176 3.13379 14.8911V15.1108H3.19092C3.34473 14.5879 3.83252 14.2627 4.46533 14.2627C5.12012 14.2627 5.59473 14.5967 5.74854 15.1416H5.80127C6.00342 14.6011 6.53076 14.2627 7.20312 14.2627C8.14355 14.2627 8.70605 14.8208 8.70605 15.7437V18.4067Z" fill="#006C67"/>
</svg>
