<svg width="20" height="20" viewBox="0 0 20 20" fill="currentColor" xmlns="http://www.w3.org/2000/svg">
<path fill-rule="evenodd" clip-rule="evenodd" d="M6 4.625C6 4.45924 6.06585 4.30027 6.18306 4.18306C6.30027 4.06585 6.45924 4 6.625 4H7.875C8.04076 4 8.19973 4.06585 8.31694 4.18306C8.43415 4.30027 8.5 4.45924 8.5 4.625V15.875C8.5 16.0408 8.43415 16.1997 8.31694 16.3169C8.19973 16.4342 8.04076 16.5 7.875 16.5H6.625C6.45924 16.5 6.30027 16.4342 6.18306 16.3169C6.06585 16.1997 6 16.0408 6 15.875V4.625ZM12.25 4.625C12.25 4.45924 12.3158 4.30027 12.4331 4.18306C12.5503 4.06585 12.7092 4 12.875 4H14.125C14.2908 4 14.4497 4.06585 14.5669 4.18306C14.6842 4.30027 14.75 4.45924 14.75 4.625V15.875C14.75 16.0408 14.6842 16.1997 14.5669 16.3169C14.4497 16.4342 14.2908 16.5 14.125 16.5H12.875C12.7092 16.5 12.5503 16.4342 12.4331 16.3169C12.3158 16.1997 12.25 16.0408 12.25 15.875V4.625Z"/>
<path d="M7.875 3.5C8.17337 3.5 8.45992 3.61812 8.6709 3.8291C8.88188 4.04008 9 4.32663 9 4.625V15.875C9 16.1734 8.88188 16.4599 8.6709 16.6709C8.45992 16.8819 8.17337 17 7.875 17H6.625C6.32663 17 6.04008 16.8819 5.8291 16.6709C5.61812 16.4599 5.5 16.1734 5.5 15.875V4.625C5.5 4.32663 5.61812 4.04008 5.8291 3.8291C6.04008 3.61812 6.32663 3.5 6.625 3.5H7.875ZM14.125 3.5C14.4234 3.5 14.7099 3.61812 14.9209 3.8291C15.1319 4.04008 15.25 4.32663 15.25 4.625V15.875C15.25 16.1734 15.1319 16.4599 14.9209 16.6709C14.7099 16.8819 14.4234 17 14.125 17H12.875C12.5766 17 12.2901 16.8819 12.0791 16.6709C11.8681 16.4599 11.75 16.1734 11.75 15.875V4.625C11.75 4.32663 11.8681 4.04008 12.0791 3.8291C12.2901 3.61812 12.5766 3.5 12.875 3.5H14.125Z"/>
</svg>
