<svg width="30" height="30" viewBox="0 0 30 30" fill="none" xmlns="http://www.w3.org/2000/svg">
<rect width="30" height="30" rx="15" fill="#D5EDE5"/>
<path fill-rule="evenodd" clip-rule="evenodd" d="M13 10C13.1086 10 13.2143 10.0354 13.3011 10.1009C13.3878 10.1663 13.4508 10.2582 13.4807 10.3627L14.0227 12.26C14.1394 12.6686 14.3583 13.0407 14.6588 13.3412C14.9593 13.6417 15.3314 13.8606 15.74 13.9773L17.6373 14.5193C17.7417 14.5492 17.8336 14.6123 17.8989 14.699C17.9643 14.7858 17.9996 14.8914 17.9996 15C17.9996 15.1086 17.9643 15.2142 17.8989 15.301C17.8336 15.3877 17.7417 15.4508 17.6373 15.4807L15.74 16.0227C15.3314 16.1394 14.9593 16.3583 14.6588 16.6588C14.3583 16.9593 14.1394 17.3314 14.0227 17.74L13.4807 19.6373C13.4508 19.7417 13.3877 19.8336 13.301 19.8989C13.2142 19.9643 13.1086 19.9996 13 19.9996C12.8914 19.9996 12.7858 19.9643 12.699 19.8989C12.6123 19.8336 12.5492 19.7417 12.5193 19.6373L11.9773 17.74C11.8606 17.3314 11.6417 16.9593 11.3412 16.6588C11.0407 16.3583 10.6686 16.1394 10.26 16.0227L8.36267 15.4807C8.25828 15.4508 8.16645 15.3877 8.10109 15.301C8.03572 15.2142 8.00037 15.1086 8.00037 15C8.00037 14.8914 8.03572 14.7858 8.10109 14.699C8.16645 14.6123 8.25828 14.5492 8.36267 14.5193L10.26 13.9773C10.6686 13.8606 11.0407 13.6417 11.3412 13.3412C11.6417 13.0407 11.8606 12.6686 11.9773 12.26L12.5193 10.3627C12.5492 10.2582 12.6122 10.1663 12.699 10.1009C12.7857 10.0354 12.8914 10 13 10ZM19 8C19.1116 7.99994 19.2199 8.03718 19.3079 8.10579C19.3958 8.17441 19.4583 8.27046 19.4853 8.37867L19.6573 9.06933C19.8147 9.696 20.304 10.1853 20.9307 10.3427L21.6213 10.5147C21.7298 10.5415 21.8261 10.6039 21.8949 10.6919C21.9637 10.7798 22.0011 10.8883 22.0011 11C22.0011 11.1117 21.9637 11.2202 21.8949 11.3081C21.8261 11.3961 21.7298 11.4585 21.6213 11.4853L20.9307 11.6573C20.304 11.8147 19.8147 12.304 19.6573 12.9307L19.4853 13.6213C19.4585 13.7298 19.3961 13.8261 19.3081 13.8949C19.2202 13.9637 19.1117 14.0011 19 14.0011C18.8883 14.0011 18.7798 13.9637 18.6919 13.8949C18.6039 13.8261 18.5415 13.7298 18.5147 13.6213L18.3427 12.9307C18.2657 12.623 18.1066 12.3419 17.8824 12.1177C17.6581 11.8934 17.3771 11.7343 17.0693 11.6573L16.3787 11.4853C16.2703 11.4585 16.174 11.3961 16.1051 11.3081C16.0363 11.2202 15.9989 11.1117 15.9989 11C15.9989 10.8883 16.0363 10.7798 16.1051 10.6919C16.174 10.6039 16.2703 10.5415 16.3787 10.5147L17.0693 10.3427C17.3771 10.2657 17.6581 10.1066 17.8824 9.88235C18.1066 9.65807 18.2657 9.37705 18.3427 9.06933L18.5147 8.37867C18.5417 8.27046 18.6042 8.17441 18.6922 8.10579C18.7801 8.03718 18.8885 7.99994 19 8ZM18 17C18.105 16.9999 18.2074 17.0329 18.2926 17.0943C18.3778 17.1557 18.4415 17.2424 18.4747 17.342L18.7373 18.1307C18.8373 18.4287 19.0707 18.6633 19.3693 18.7627L20.158 19.026C20.2573 19.0593 20.3436 19.123 20.4048 19.2081C20.466 19.2931 20.4989 19.3952 20.4989 19.5C20.4989 19.6048 20.466 19.7069 20.4048 19.7919C20.3436 19.877 20.2573 19.9407 20.158 19.974L19.3693 20.2373C19.0713 20.3373 18.8367 20.5707 18.7373 20.8693L18.474 21.658C18.4407 21.7573 18.377 21.8436 18.2919 21.9048C18.2069 21.966 18.1048 21.9989 18 21.9989C17.8952 21.9989 17.7931 21.966 17.7081 21.9048C17.623 21.8436 17.5593 21.7573 17.526 21.658L17.2627 20.8693C17.2136 20.7222 17.1309 20.5885 17.0212 20.4788C16.9115 20.3691 16.7778 20.2864 16.6307 20.2373L15.842 19.974C15.7427 19.9407 15.6564 19.877 15.5952 19.7919C15.534 19.7069 15.5011 19.6048 15.5011 19.5C15.5011 19.3952 15.534 19.2931 15.5952 19.2081C15.6564 19.123 15.7427 19.0593 15.842 19.026L16.6307 18.7627C16.9287 18.6627 17.1633 18.4293 17.2627 18.1307L17.526 17.342C17.5592 17.2425 17.6228 17.1559 17.7078 17.0945C17.7929 17.0331 17.8951 17.0001 18 17Z" fill="#004D48"/>
<path d="M15 1.87685C15 1.39258 15.393 0.997137 15.8763 1.02744C18.6764 1.203 21.3667 2.21675 23.5924 3.94692C25.8181 5.67709 27.464 8.03432 28.3248 10.7046C28.4734 11.1655 28.1871 11.6439 27.7177 11.7633C27.2484 11.8828 26.7742 11.5978 26.6215 11.1382C25.8596 8.84543 24.4339 6.82232 22.5161 5.33147C20.5983 3.84062 18.286 2.95788 15.8762 2.78507C15.3931 2.75043 15 2.36112 15 1.87685Z" fill="#004D48"/>
</svg>
