<svg width="93" height="32" viewBox="0 0 93 32" fill="none" xmlns="http://www.w3.org/2000/svg">
<g clip-path="url(#clip0_40003259_8077)">
<path fill-rule="evenodd" clip-rule="evenodd" d="M61.974 13.106C61.3664 12.6991 60.6286 12.4957 59.7605 12.4957C58.8925 12.4957 58.1112 12.7053 57.4168 13.1245C56.7223 13.5437 56.1767 14.1539 55.7799 14.9553C55.3955 15.7444 55.2032 16.6752 55.2032 17.7478C55.2032 18.8204 55.3955 19.7574 55.7799 20.5588C56.1767 21.3478 56.7223 21.9519 57.4168 22.3711C58.1112 22.7903 58.8925 22.9999 59.7605 22.9999C60.6286 22.9999 61.3664 22.7964 61.974 22.3896C62.5941 21.9704 63.0405 21.4156 63.3133 20.7252V22.8704H65.9175V8.61523H63.3133V14.7519C63.0405 14.0615 62.5941 13.5128 61.974 13.106ZM58.6072 15.5656C59.1033 15.0355 59.7605 14.7704 60.579 14.7704C61.3726 14.7704 62.0236 15.0416 62.5321 15.5841C63.0529 16.1142 63.3133 16.8355 63.3133 17.7478C63.3133 18.6478 63.0529 19.369 62.5321 19.9115C62.0236 20.4416 61.3726 20.7067 60.579 20.7067C59.7605 20.7067 59.1033 20.4478 58.6072 19.93C58.1112 19.3999 57.8632 18.6725 57.8632 17.7478C57.8632 16.8231 58.1112 16.0957 58.6072 15.5656Z" fill="#003331"/>
<path d="M26.3181 14.5855C26.7025 13.932 27.2109 13.4204 27.8434 13.0505C28.4758 12.6683 29.1826 12.4772 29.9639 12.4772V15.2697H29.2012C27.2791 15.2697 26.3181 16.1574 26.3181 17.9327V22.8704H23.6953V12.6252H26.3181V14.5855Z" fill="#003331"/>
<path fill-rule="evenodd" clip-rule="evenodd" d="M40.1766 17.3594C40.1766 17.6183 40.1456 17.9142 40.0836 18.2471H32.5316C32.5688 19.1594 32.8168 19.8314 33.2756 20.2629C33.7344 20.6944 34.3049 20.9101 34.9869 20.9101C35.5945 20.9101 36.0968 20.7622 36.4936 20.4663C36.9028 20.1704 37.1632 19.7697 37.2748 19.2642H40.0464C39.91 19.9793 39.6186 20.6204 39.1721 21.1875C38.7257 21.7547 38.1491 22.1985 37.4422 22.519C36.7478 22.8396 35.9728 22.9999 35.1171 22.9999C34.1126 22.9999 33.2198 22.7903 32.4386 22.3711C31.6573 21.9396 31.0497 21.3293 30.6156 20.5403C30.1816 19.7512 29.9646 18.8204 29.9646 17.7478C29.9646 16.6752 30.1816 15.7444 30.6156 14.9553C31.0497 14.1539 31.6573 13.5437 32.4386 13.1245C33.2198 12.7053 34.1126 12.4957 35.1171 12.4957C36.134 12.4957 37.0206 12.7053 37.7771 13.1245C38.5459 13.5437 39.1349 14.1231 39.5442 14.8629C39.9658 15.5903 40.1766 16.4224 40.1766 17.3594ZM37.5353 17.1005C37.5725 16.2622 37.3492 15.6272 36.8656 15.1957C36.3944 14.7642 35.8116 14.5485 35.1171 14.5485C34.4103 14.5485 33.815 14.7642 33.3314 15.1957C32.8478 15.6272 32.5812 16.2622 32.5316 17.1005H37.5353Z" fill="#003331"/>
<path d="M49.0511 13.5683C48.1706 12.8533 47.067 12.4957 45.7401 12.4957C44.7356 12.4957 43.8428 12.7053 43.0615 13.1245C42.2803 13.5437 41.6726 14.1539 41.2386 14.9553C40.8046 15.7444 40.5876 16.6752 40.5876 17.7478C40.5876 18.8204 40.8046 19.7512 41.2386 20.5403C41.6726 21.3293 42.2803 21.9396 43.0615 22.3711C43.8428 22.7903 44.7356 22.9999 45.7401 22.9999C47.067 22.9999 48.1706 22.6423 49.0511 21.9273C49.9439 21.2122 50.502 20.2382 50.7252 19.0053H47.9536C47.842 19.5478 47.5878 19.9793 47.191 20.2999C46.7941 20.6081 46.2919 20.7622 45.6843 20.7622C44.9898 20.7622 44.407 20.5094 43.9358 20.004C43.4769 19.4862 43.2475 18.7341 43.2475 17.7478C43.2475 16.7615 43.4769 16.0156 43.9358 15.5101C44.407 14.9923 44.9898 14.7334 45.6843 14.7334C46.2919 14.7334 46.7941 14.8937 47.191 15.2142C47.5878 15.5224 47.842 15.9478 47.9536 16.4903H50.7252C50.502 15.2574 49.9439 14.2834 49.0511 13.5683Z" fill="#003331"/>
<path d="M54.2815 12.6252V22.8704H51.6587V12.6252H54.2815Z" fill="#003331"/>
<path d="M69.987 12.6252V22.8704H67.3643V12.6252H69.987Z" fill="#003331"/>
<path d="M78.5167 12.6252L75.9125 20.2629L73.2897 12.6252H70.481L74.2942 22.8704H77.4936L81.3068 12.6252H78.5167Z" fill="#003331"/>
<path d="M84.4574 12.6252V22.8704H81.8346V12.6252H84.4574Z" fill="#003331"/>
<path d="M93.08 20.6882H88.0205L92.894 14.6779V12.6252H85.2675V14.7889H89.8992L85.1559 20.7992V22.8704H93.08V20.6882Z" fill="#003331"/>
<path d="M52.9638 11.6974C53.8199 11.6974 54.5139 11.0075 54.5139 10.1563C54.5139 9.30521 53.8199 8.61523 52.9638 8.61523C52.1077 8.61523 51.4137 9.30521 51.4137 10.1563C51.4137 11.0075 52.1077 11.6974 52.9638 11.6974Z" fill="#003331"/>
<path d="M70.2165 10.1563C70.2165 11.0075 69.5225 11.6974 68.6665 11.6974C67.8104 11.6974 67.1164 11.0075 67.1164 10.1563C67.1164 9.30521 67.8104 8.61523 68.6665 8.61523C69.5225 8.61523 70.2165 9.30521 70.2165 10.1563Z" fill="#003331"/>
<path d="M83.1445 11.6974C84.0006 11.6974 84.6946 11.0075 84.6946 10.1563C84.6946 9.30521 84.0006 8.61523 83.1445 8.61523C82.2884 8.61523 81.5944 9.30521 81.5944 10.1563C81.5944 11.0075 82.2884 11.6974 83.1445 11.6974Z" fill="#003331"/>
<rect y="12" width="11" height="11" fill="#00A1FF"/>
<rect x="10.1562" y="1" width="11.8462" height="11.8462" rx="5.92308" fill="#E00E00"/>
</g>
<defs>
<clipPath id="clip0_40003259_8077">
<rect width="93" height="32" fill="white"/>
</clipPath>
</defs>
</svg>
