<svg width="26" height="26" viewBox="0 0 26 26" fill="none" xmlns="http://www.w3.org/2000/svg">
<path d="M22.75 13H21.75C21.75 17.8325 17.8325 21.75 13 21.75V22.75V23.75C18.9371 23.75 23.75 18.9371 23.75 13H22.75ZM13 22.75V21.75C8.16751 21.75 4.25 17.8325 4.25 13H3.25H2.25C2.25 18.9371 7.06294 23.75 13 23.75V22.75ZM3.25 13H4.25C4.25 8.16751 8.16751 4.25 13 4.25V3.25V2.25C7.06294 2.25 2.25 7.06294 2.25 13H3.25ZM13 3.25V4.25C17.8325 4.25 21.75 8.16751 21.75 13H22.75H23.75C23.75 7.06294 18.9371 2.25 13 2.25V3.25ZM17.3333 13H16.3333C16.3333 14.841 14.841 16.3333 13 16.3333V17.3333V18.3333C15.9455 18.3333 18.3333 15.9455 18.3333 13H17.3333ZM13 17.3333V16.3333C11.1591 16.3333 9.66667 14.841 9.66667 13H8.66667H7.66667C7.66667 15.9455 10.0545 18.3333 13 18.3333V17.3333ZM8.66667 13H9.66667C9.66667 11.1591 11.1591 9.66667 13 9.66667V8.66667V7.66667C10.0545 7.66667 7.66667 10.0545 7.66667 13H8.66667ZM13 8.66667V9.66667C14.841 9.66667 16.3333 11.1591 16.3333 13H17.3333H18.3333C18.3333 10.0545 15.9455 7.66667 13 7.66667V8.66667ZM19.8943 6.10571L19.1872 5.3986L15.357 9.22876L16.0641 9.93587L16.7712 10.643L20.6014 6.81282L19.8943 6.10571ZM16.0641 16.0641L15.357 16.7712L19.1872 20.6014L19.8943 19.8943L20.6014 19.1872L16.7712 15.357L16.0641 16.0641ZM9.93587 9.93587L10.643 9.22876L6.81282 5.3986L6.10571 6.10571L5.3986 6.81282L9.22876 10.643L9.93587 9.93587ZM9.93587 16.0641L9.22876 15.357L5.3986 19.1872L6.10571 19.8943L6.81282 20.6014L10.643 16.7712L9.93587 16.0641Z"/>
</svg>
