<svg width="49" height="48" viewBox="0 0 49 48" fill="none" xmlns="http://www.w3.org/2000/svg">
<path d="M14.5586 20L4.55859 41L11.6916 39.9417L15.412 46.119L24.5586 27L14.5586 20Z" fill="#EFD358"/>
<path d="M34.5586 20L44.5586 41L37.4256 39.9417L33.7052 46.119L24.5586 27L34.5586 20Z" fill="#EFD358"/>
<path d="M39.5586 16C39.5586 14.3059 38.7105 12.8215 37.4188 11.9234C36.7221 11.4389 36.3847 10.6243 36.5348 9.7891C36.8131 8.24072 36.3631 6.59125 35.1652 5.39337C33.9673 4.19548 32.3179 3.74546 30.7695 4.02372C29.9343 4.17381 29.1197 3.8364 28.6352 3.13971C27.7371 1.84812 26.2526 1 24.5586 1C22.8646 1 21.3801 1.84812 20.482 3.13971C19.9975 3.8364 19.1829 4.17382 18.3477 4.02372C16.7993 3.74546 15.1499 4.19548 13.952 5.39337C12.7541 6.59125 12.3041 8.24072 12.5824 9.7891C12.7325 10.6243 12.3951 11.4389 11.6983 11.9234C10.4067 12.8215 9.55859 14.3059 9.55859 16C9.55859 17.6941 10.4067 19.1785 11.6983 20.0766C12.3951 20.5611 12.7325 21.3757 12.5824 22.2109C12.3041 23.7593 12.7541 25.4087 13.952 26.6066C15.1498 27.8044 16.7993 28.2544 18.3477 27.9762C19.1829 27.8261 19.9975 28.1635 20.4819 28.8602C21.38 30.1518 22.8645 31 24.5586 31C26.2527 31 27.7372 30.1518 28.6353 28.8602C29.1197 28.1635 29.9343 27.8261 30.7695 27.9762C32.3179 28.2544 33.9673 27.8044 35.1652 26.6066C36.3631 25.4087 36.8131 23.7593 36.5348 22.2109C36.3847 21.3757 36.7221 20.5611 37.4189 20.0766C38.7105 19.1785 39.5586 17.6941 39.5586 16Z" fill="#E86C60"/>
<path d="M24.5586 23C28.4246 23 31.5586 19.866 31.5586 16C31.5586 12.134 28.4246 9 24.5586 9C20.6926 9 17.5586 12.134 17.5586 16C17.5586 19.866 20.6926 23 24.5586 23Z" fill="#C94949"/>
</svg>
